<svg xmlns="http://www.w3.org/2000/svg" width="349" height="326"><defs><linearGradient id="a" x1="61.245%" x2="18.947%" y1="142.487%" y2="19.376%"><stop offset="0%" stop-color="#3591C9"/><stop offset="100%" stop-color="#185899"/></linearGradient><linearGradient id="b" x1="50%" x2="50%" y1="-70.177%" y2="100%"><stop offset="0%" stop-color="#3591C9"/><stop offset="100%" stop-color="#185899"/></linearGradient><linearGradient id="c" x1="50%" x2="19.141%" y1="0%" y2="82.063%"><stop offset="0%" stop-color="#3591C9"/><stop offset="100%" stop-color="#185899"/></linearGradient><linearGradient id="d" x1="0%" y1="0%" y2="100%"><stop offset="0%" stop-color="#51BDF5"/><stop offset="100%" stop-color="#2888E8"/></linearGradient><linearGradient id="e" x1="100%" x2="-9.88%" y1="100%" y2="-9.362%"><stop offset="0%" stop-color="#51BDF5"/><stop offset="100%" stop-color="#2888E8"/></linearGradient><linearGradient id="f" x1="50%" x2="50%" y1="0%" y2="100%"><stop offset="0%" stop-color="#3591C9"/><stop offset="100%" stop-color="#185899"/></linearGradient><linearGradient id="g" x1="30.362%" x2="-20.187%" y1="-12.767%" y2="79.617%"><stop offset="0%" stop-color="#8AB1E3"/><stop offset="100%" stop-color="#3D5D95"/></linearGradient><linearGradient id="h" x1="140.178%" x2="-10.904%" y1="-19.914%" y2="67.78%"><stop offset="0%" stop-color="#93C4F6"/><stop offset="100%" stop-color="#3D5D95"/></linearGradient><linearGradient id="i" x1="50%" x2="50%" y1="189.173%" y2="0%"><stop offset="0%" stop-color="#93C4F6"/><stop offset="100%" stop-color="#3D5D95"/></linearGradient><linearGradient id="j" x1="100%" x2="0%" y1="100%" y2="40.806%"><stop offset="0%" stop-color="#3591C9"/><stop offset="100%" stop-color="#185899"/></linearGradient><linearGradient id="k" x1="0%" y1="28.717%" y2="100%"><stop offset="0%" stop-color="#3591C9"/><stop offset="100%" stop-color="#185899"/></linearGradient><linearGradient id="l" x1="0%" x2="93.326%" y1="67.159%" y2="37.447%"><stop offset="0%" stop-color="#51BDF5"/><stop offset="100%" stop-color="#2888E8"/></linearGradient><linearGradient id="m" x1="68.874%" x2="0%" y1="41.218%" y2="66.385%"><stop offset="0%" stop-color="#51BDF5"/><stop offset="100%" stop-color="#2888E8"/></linearGradient><linearGradient id="n" x1="50%" x2="50%" y1="65.925%" y2="0%"><stop offset="0%" stop-color="#51BDF5"/><stop offset="100%" stop-color="#2888E8"/></linearGradient></defs><g fill="none" fill-rule="evenodd"><g transform="translate(38 5)"><circle cx="139" cy="139" r="139" fill="#FFF" stroke="#979797"/><g transform="translate(31 35)"><circle cx="104.5" cy="104.5" r="104.5" fill="#FFF"/><path stroke="#A0ABB9" stroke-width="1.47" d="M104.908 34.29L44.086 69.394l60.822 35.105 60.822-35.105z"/><path stroke="#A0ABB9" stroke-width="1.47" d="M44.086 69.395L104.91 104.5v70.21l-60.824-34.917z"/><path stroke="#A0ABB9" stroke-width="1.47" d="M165.73 69.395L104.908 104.5v70.21l60.822-35.105z"/><path fill="#A0ABB9" d="M104.908 150.627l29.799-17.145-15.103-8.572-14.695 8.572-14.695-8.572-15.105 8.572z" opacity=".456"/><path fill="#C5CDD8" d="M75.262 121.55V87.263l15.102 8.57v17.147l14.696 8.572v17.553z"/><path fill="#DDE4ED" d="M63.832 121.551V87.262l15.103 8.572v17.145l14.696 8.572v17.553z" opacity=".456"/><path fill="#73A3D4" d="M104.908 87.355l14.696 8.573v17.144l-14.696-8.572z"/><path fill="#185899" d="M104.908 87.355l-14.695 8.573v17.144l14.695-8.572z"/><path fill="#323F4A" d="M104.908 104.5l-14.695 8.572 14.694 8.573 14.696-8.573z"/><path fill="#2888E8" d="M104.908 70.21L75.11 87.356l15.104 8.573 14.694-8.573 14.696 8.573 15.104-8.573z"/><path fill="#DDE4ED" d="M104.908 61.23L75.11 78.375l15.104 8.572 14.694-8.572 14.696 8.572 15.104-8.572z" opacity=".456"/><path fill="#A0ABB9" d="M134.666 121.551V87.262l-15.104 8.572v17.145l-14.695 8.572v17.553z"/><path fill="#DDE4ED" d="M146.736 121.738l.076-34.494-15.18 8.776v17.145l-14.695 8.573v17.144z" opacity=".456"/><path stroke="#DDE4ED" stroke-dasharray="2.058" stroke-width="1.47" d="M104.908 104.5l82.865 47.76-82.863-47.76V8.573v95.929zm-82.865 47.76l82.865-47.76"/></g></g><path fill="#FFF" d="M0 1h107v107H0z"/><path fill="url(#a)" d="M72.454 31.059l29.153 16.831-14.7 8.633-14.578-8.416-14.502 8.287-14.924-8.616z" transform="rotate(60 71.389 44.291)"/><path fill="url(#b)" d="M54.275 62.753L83.53 79.584 68.702 88l-14.426-8.416L39.85 88l-14.828-8.416z" transform="matrix(1 0 0 -1 0 151.753)"/><path fill="url(#c)" d="M36.386 31.059L65.54 47.89l-14.702 8.633-14.577-8.415-14.501 8.286-14.924-8.616z" transform="scale(-1 1) rotate(60 -.866 -18.387)"/><path fill="#FFF" d="M242 0h107v107H242z"/><path fill="url(#d)" d="M13 0l13 7.667V23l-13-7.667z" transform="translate(294 31)"/><path fill="url(#e)" d="M0 0l13 7.667V23L0 15.333z" transform="matrix(-1 0 0 1 307 31)"/><path fill="url(#f)" d="M13 15l13 7.5L13 30 0 22.5z" transform="matrix(-1 0 0 1 320 31)"/><path fill="url(#d)" d="M13 0l13 7.667V23l-13-7.667z" transform="translate(268 17)"/><path fill="url(#e)" d="M0 0l13 7.667V23L0 15.333z" transform="matrix(-1 0 0 1 281 17)"/><path fill="url(#f)" d="M13 15l13 7.5L13 30 0 22.5z" transform="matrix(-1 0 0 1 294 17)"/><path fill="url(#d)" d="M13 0l13 7.667V23l-13-7.667z" transform="translate(281 39)"/><path fill="url(#e)" d="M0 0l13 7.667V23L0 15.333z" transform="matrix(-1 0 0 1 294 39)"/><path fill="url(#f)" d="M13 15l13 7.5L13 30 0 22.5z" transform="matrix(-1 0 0 1 307 39)"/><g><path fill="url(#d)" d="M13 0l13 7.667V23l-13-7.667z" transform="translate(294 61)"/><path fill="url(#e)" d="M0 0l13 7.667V23L0 15.333z" transform="matrix(-1 0 0 1 307 61)"/><path fill="url(#f)" d="M13 15l13 7.5L13 30 0 22.5z" transform="matrix(-1 0 0 1 320 61)"/></g><g><path fill="#FFF" d="M120 219h107v107H120z"/><path fill="url(#g)" d="M30 .51l29.594 16.808V50.93L30 34.214z" transform="translate(143 240)"/><path fill="url(#h)" d="M30 .51L.406 17.319V50.93L30 34.124z" transform="translate(143 240)"/><path stroke="#95C3F2" stroke-width="3" d="M173 239.278l29.032 16.376L173 272.031l-29.032-16.377L173 239.278z"/><path fill="url(#i)" d="M30 33.897L.406 50.59 30 67.283 59.594 50.59z" transform="translate(143 240)"/><path stroke="#7EAEDE" stroke-width="3" d="M142.5 258.161l28.98 16.458v32.951L142.5 291.2v-33.039z"/><path stroke="#88C2FD" stroke-width="3" d="M203.5 258.161v32.958l-28.98 16.458v-32.958l28.98-16.458z"/></g><g><path fill="url(#j)" d="M32.5.217L65 18.913 32.5 37.609 0 18.913z" transform="matrix(-1 0 0 1 206 107)"/><path fill="url(#j)" d="M0 .195L32.508 18.75v37.5L0 37.695z" transform="matrix(-1 0 0 1 173.508 107)"/><path fill="url(#j)" d="M0 18.913l32.5 18.696V75L0 56.404z" transform="translate(141 107)"/><path fill="url(#j)" d="M0 18.75L33.222 37.5 0 56.25z" transform="translate(141 107)"/><path fill="url(#k)" d="M32.5 18.913L65 37.609V75L32.5 56.304z" transform="matrix(-1 0 0 1 238.5 107)"/><path fill="url(#j)" d="M30.333 18.75L65 37.5 30.333 56.25z" transform="rotate(-180 118.167 91)"/><path fill="url(#l)" d="M32.5 55.82l-15.603-8.887V28.626L32.5 37.514z" transform="translate(141 107)"/><path fill="url(#m)" d="M32.5 55.835V37.528l15.603-8.902v18.307z" transform="translate(141 107)"/><path fill="url(#n)" d="M32.521 37.531l15.582-8.905L32.5 19.473l-15.603 9.153z" transform="translate(141 107)"/></g></g></svg>