<svg xmlns="http://www.w3.org/2000/svg" width="45" height="52" viewBox="0 0 45 52">
    <defs>
        <linearGradient id="a" x1="100%" x2="0%" y1="100%" y2="40.806%">
            <stop offset="0%" stop-color="#3591C9"/>
            <stop offset="100%" stop-color="#185899"/>
        </linearGradient>
        <linearGradient id="b" x1="0%" y1="28.717%" y2="100%">
            <stop offset="0%" stop-color="#3591C9"/>
            <stop offset="100%" stop-color="#185899"/>
        </linearGradient>
        <linearGradient id="c" x1="0%" x2="93.326%" y1="67.159%" y2="37.447%">
            <stop offset="0%" stop-color="#51BDF5"/>
            <stop offset="100%" stop-color="#2888E8"/>
        </linearGradient>
        <linearGradient id="d" x1="68.874%" x2="0%" y1="41.218%" y2="66.385%">
            <stop offset="0%" stop-color="#51BDF5"/>
            <stop offset="100%" stop-color="#2888E8"/>
        </linearGradient>
        <linearGradient id="e" x1="50%" x2="50%" y1="65.925%" y2="0%">
            <stop offset="0%" stop-color="#51BDF5"/>
            <stop offset="100%" stop-color="#2888E8"/>
        </linearGradient>
    </defs>
    <g fill="none" fill-rule="evenodd">
        <path fill="url(#a)" d="M22.5.15L45 13.114 22.5 26.075 0 13.113z" transform="matrix(-1 0 0 1 45 0)"/>
        <path fill="url(#a)" d="M0 .135L22.506 13v26L0 26.135z" transform="matrix(-1 0 0 1 22.506 0)"/>
        <path fill="url(#a)" d="M0 13.113l22.5 12.962V52L0 39.107z"/>
        <path fill="url(#a)" d="M0 13l23 13L0 39z"/>
        <path fill="url(#b)" d="M22.5 13.113L45 26.075V52L22.5 39.038z" transform="matrix(-1 0 0 1 67.5 0)"/>
        <path fill="url(#a)" d="M21 13l24 13-24 13z" transform="rotate(-180 33 26)"/>
        <path fill="url(#c)" d="M22.5 38.702L11.698 32.54V19.848L22.5 26.01z"/>
        <path fill="url(#d)" d="M22.5 38.712V26.02l10.802-6.171V32.54z"/>
        <path fill="url(#e)" d="M22.515 26.022l10.787-6.174L22.5 13.5l-10.802 6.347z"/>
    </g>
</svg>
