<svg xmlns="http://www.w3.org/2000/svg" width="52" height="74"><defs><linearGradient id="a" x1="0%" y1="0%" y2="100%"><stop offset="0%" stop-color="#51BDF5"/><stop offset="100%" stop-color="#2888E8"/></linearGradient><linearGradient id="b" x1="100%" x2="-9.88%" y1="100%" y2="-9.362%"><stop offset="0%" stop-color="#51BDF5"/><stop offset="100%" stop-color="#2888E8"/></linearGradient><linearGradient id="c" x1="50%" x2="50%" y1="0%" y2="100%"><stop offset="0%" stop-color="#3591C9"/><stop offset="100%" stop-color="#185899"/></linearGradient></defs><g fill="none" fill-rule="evenodd"><path fill="url(#a)" d="M13 0l13 7.667V23l-13-7.667z" transform="translate(26 14)"/><path fill="url(#b)" d="M0 0l13 7.667V23L0 15.333z" transform="matrix(-1 0 0 1 39 14)"/><path fill="url(#c)" d="M13 15l13 7.5L13 30 0 22.5z" transform="matrix(-1 0 0 1 52 14)"/><path fill="url(#a)" d="M13 0l13 7.667V23l-13-7.667z"/><path fill="url(#b)" d="M0 0l13 7.667V23L0 15.333z" transform="matrix(-1 0 0 1 13 0)"/><path fill="url(#c)" d="M13 15l13 7.5L13 30 0 22.5z" transform="matrix(-1 0 0 1 26 0)"/><path fill="url(#a)" d="M13 0l13 7.667V23l-13-7.667z" transform="translate(13 22)"/><path fill="url(#b)" d="M0 0l13 7.667V23L0 15.333z" transform="matrix(-1 0 0 1 26 22)"/><path fill="url(#c)" d="M13 15l13 7.5L13 30 0 22.5z" transform="matrix(-1 0 0 1 39 22)"/><g><path fill="url(#a)" d="M13 0l13 7.667V23l-13-7.667z" transform="translate(26 44)"/><path fill="url(#b)" d="M0 0l13 7.667V23L0 15.333z" transform="matrix(-1 0 0 1 39 44)"/><path fill="url(#c)" d="M13 15l13 7.5L13 30 0 22.5z" transform="matrix(-1 0 0 1 52 44)"/></g></g></svg>