<svg xmlns="http://www.w3.org/2000/svg" width="59" height="68" viewBox="0 0 59 68">
    <defs>
        <linearGradient id="a" x1="61.245%" x2="18.947%" y1="142.487%" y2="19.376%">
            <stop offset="0%" stop-color="#3591C9"/>
            <stop offset="100%" stop-color="#185899"/>
        </linearGradient>
        <linearGradient id="b" x1="50%" x2="50%" y1="-70.177%" y2="100%">
            <stop offset="0%" stop-color="#3591C9"/>
            <stop offset="100%" stop-color="#185899"/>
        </linearGradient>
        <linearGradient id="c" x1="50%" x2="19.141%" y1="0%" y2="82.063%">
            <stop offset="0%" stop-color="#3591C9"/>
            <stop offset="100%" stop-color="#185899"/>
        </linearGradient>
    </defs>
    <g fill="none" fill-rule="evenodd">
        <path fill="url(#a)" d="M72.454 31.059l29.153 16.831-14.7 8.633-14.578-8.416-14.502 8.287-14.924-8.616z" transform="rotate(60 77.075 12.14)"/>
        <path fill="url(#b)" d="M54.275 62.753L83.53 79.584 68.702 88l-14.426-8.416L39.85 88l-14.828-8.416z" transform="matrix(1 0 0 -1 -25 130.753)"/>
        <path fill="url(#c)" d="M36.386 31.059L65.54 47.89l-14.702 8.633-14.577-8.415-14.501 8.286-14.924-8.616z" transform="scale(-1 1) rotate(60 29.82 -7.236)"/>
    </g>
</svg>
