<svg xmlns="http://www.w3.org/2000/svg" width="1280" height="699" viewBox="0 0 1280 699">
    <defs>
        <linearGradient id="a" x1="9.009%" x2="85.321%" y1="4.805%" y2="43.626%">
            <stop offset="0%" stop-color="#112D4C"/>
            <stop offset="100%" stop-color="#0A233C"/>
        </linearGradient>
        <radialGradient id="b" cy="48.086%" r="48.782%" fx="50%" fy="48.086%" gradientTransform="matrix(0 -1 1.06445 0 -.012 .98)">
            <stop offset="0%" stop-color="#B7BDC1"/>
            <stop offset="30.544%" stop-color="#A8B9CB" stop-opacity=".662"/>
            <stop offset="100%" stop-color="#73A3D4" stop-opacity="0"/>
        </radialGradient>
    </defs>
    <g fill="none" fill-rule="evenodd">
        <path fill="url(#a)" d="M596 0l1280 699H596z" transform="matrix(-1 0 0 1 1876 0)"/>
        <path fill="url(#b)" fill-rule="nonzero" d="M327.703 51.002l30.178 17.244.047 34.512-30.225 17.226-30.177-17.243V68.246l30.177-17.244zM298.376 68.74v33.508l29.328 16.758 29.373-16.741-.046-33.525-29.328-16.758-29.327 16.758zm29.327 186.272l30.178 17.244.047 34.512-30.225 17.226-30.177-17.243v-34.495l30.177-17.244zm-29.327 17.737v33.508l29.328 16.758 29.373-16.74-.046-33.526-29.328-16.758-29.327 16.758zm29.327-119.741l30.178 17.243.047 34.512-30.225 17.227-30.177-17.244V170.25l30.177-17.243zm-29.327 17.737v33.508l29.328 16.758 29.373-16.741-.046-33.525-29.328-16.758-29.327 16.758zm29.327 186.272l30.178 17.243.047 34.512-30.225 17.227-30.177-17.244V374.26l30.177-17.243zm-29.327 17.737v33.508l29.328 16.758 29.373-16.741-.046-33.525-29.328-16.758-29.327 16.758zm386.358-323.75l30.177 17.243.048 34.512-30.225 17.226-30.178-17.243V68.246l30.178-17.244zm-29.327 17.736v33.508l29.327 16.758 29.374-16.741-.046-33.525-29.328-16.758-29.327 16.758zm29.327 186.272l30.177 17.244.048 34.512-30.225 17.226-30.178-17.243v-34.495l30.178-17.244zm-29.327 17.737v33.508l29.327 16.758 29.374-16.74-.046-33.526-29.328-16.758-29.327 16.758zm29.327-119.741l30.177 17.243.048 34.512-30.225 17.227-30.178-17.244V170.25l30.178-17.243zm-29.327 17.737v33.508l29.327 16.758 29.374-16.741-.046-33.525-29.328-16.758-29.327 16.758zm29.327 186.272l30.177 17.243.048 34.512-30.225 17.227-30.178-17.244V374.26l30.178-17.243zm-29.327 17.737v33.508l29.327 16.758 29.374-16.741-.046-33.525-29.328-16.758-29.327 16.758zm386.358-323.75l30.177 17.243.048 34.512-30.225 17.226-30.178-17.243V68.246l30.178-17.244zm-29.328 17.736v33.508l29.328 16.758 29.374-16.741-.046-33.525-29.328-16.758-29.328 16.758zm29.328 186.272l30.177 17.244.048 34.512-30.225 17.226-30.178-17.243v-34.495l30.178-17.244zm-29.328 17.737v33.508l29.328 16.758 29.374-16.74-.046-33.526-29.328-16.758-29.328 16.758zm29.328-119.741l30.177 17.243.048 34.512-30.225 17.227-30.178-17.244V170.25l30.178-17.243zm-29.328 17.737v33.508l29.328 16.758 29.374-16.741-.046-33.525-29.328-16.758-29.328 16.758zm29.328 186.272l30.177 17.243.048 34.512-30.225 17.227-30.178-17.244V374.26l30.178-17.243zm-29.328 17.737v33.508l29.328 16.758 29.374-16.741-.046-33.525-29.328-16.758-29.328 16.758zM208.693 51.003l30.177 17.243.048 34.512-30.225 17.226-30.178-17.243V68.246l30.178-17.244zm0 .978L179.365 68.74v33.508l29.328 16.758 29.374-16.741-.046-33.525-29.328-16.758zm0 203.03l30.177 17.244.048 34.512-30.225 17.226-30.178-17.243v-34.495l30.178-17.244zm-29.328 17.737v33.508l29.328 16.758 29.374-16.74-.046-33.526-29.328-16.758-29.328 16.758zm29.328-119.741l30.177 17.243.048 34.512-30.225 17.227-30.178-17.244V170.25l30.178-17.243zm-29.328 17.737v33.508l29.328 16.758 29.374-16.741-.046-33.525-29.328-16.758-29.328 16.758zm29.328 186.272l30.177 17.243.048 34.512-30.225 17.227-30.178-17.244V374.26l30.178-17.243zm-29.328 17.737v33.508l29.328 16.758 29.374-16.741-.046-33.525-29.328-16.758-29.328 16.758zm386.359-323.75L595.9 68.245l.048 34.512-30.225 17.226-30.178-17.243V68.246l30.178-17.244zm-29.328 17.736v33.508l29.328 16.758 29.374-16.741-.046-33.525-29.328-16.758-29.328 16.758zm29.328 186.272l30.177 17.244.048 34.512-30.225 17.226-30.178-17.243v-34.495l30.178-17.244zm-29.328 17.737v33.508l29.328 16.758 29.374-16.74-.046-33.526-29.328-16.758-29.328 16.758zm29.328-119.741L595.9 170.25l.048 34.512-30.225 17.227-30.178-17.244V170.25l30.178-17.243zm-29.328 17.737v33.508l29.328 16.758 29.374-16.741-.046-33.525-29.328-16.758-29.328 16.758zm29.328 186.272l30.177 17.243.048 34.512-30.225 17.227-30.178-17.244V374.26l30.178-17.243zm-29.328 17.737v33.508l29.328 16.758 29.374-16.741-.046-33.525-29.328-16.758-29.328 16.758zm386.359-323.75l30.177 17.243.047 34.512-30.225 17.226-30.177-17.243V68.246l30.178-17.244zm-29.328 17.736v33.508l29.328 16.758 29.374-16.741-.046-33.525-29.328-16.758-29.328 16.758zm29.328 186.272l30.177 17.244.047 34.512-30.225 17.226-30.177-17.243v-34.495l30.178-17.244zm-29.328 17.737v33.508l29.328 16.758 29.374-16.74-.046-33.526-29.328-16.758-29.328 16.758zm29.328-119.741l30.177 17.243.047 34.512-30.225 17.227-30.177-17.244V170.25l30.178-17.243zm-29.328 17.737v33.508l29.328 16.758 29.374-16.741-.046-33.525-29.328-16.758-29.328 16.758zm29.328 186.272l30.177 17.243.047 34.512-30.225 17.227-30.177-17.244V374.26l30.178-17.243zm-29.328 17.737v33.508l29.328 16.758 29.374-16.741-.046-33.525-29.328-16.758-29.328 16.758zM89.683 51.003l30.177 17.243.048 34.512-30.226 17.226-30.177-17.243V68.246l30.178-17.244zM60.355 68.738v33.508l29.328 16.758 29.374-16.741-.046-33.525-29.328-16.758L60.355 68.74zm29.328 186.272l30.177 17.244.048 34.512-30.226 17.226-30.177-17.243v-34.495l30.178-17.244zm-29.328 17.737v33.508l29.328 16.758 29.374-16.74-.046-33.526-29.328-16.758-29.328 16.758zm29.328-119.741l30.177 17.243.048 34.512-30.226 17.227-30.177-17.244V170.25l30.178-17.243zm-29.328 17.737v33.508l29.328 16.758 29.374-16.741-.046-33.525-29.328-16.758-29.328 16.758zm29.328 186.272l30.177 17.243.048 34.512-30.226 17.227-30.177-17.244V374.26l30.178-17.243zm-29.328 17.737v33.508l29.328 16.758 29.374-16.741-.046-33.525-29.328-16.758-29.328 16.758zm386.359-323.75l30.177 17.243.047 34.512-30.225 17.226-30.177-17.243V68.246l30.178-17.244zm-29.328 17.736v33.508l29.328 16.758 29.374-16.741-.047-33.525-29.327-16.758-29.328 16.758zm29.328 186.272l30.177 17.244.047 34.512-30.225 17.226-30.177-17.243v-34.495l30.178-17.244zm-29.328 17.737v33.508l29.328 16.758 29.374-16.74-.047-33.526-29.327-16.758-29.328 16.758zm29.328-119.741l30.177 17.243.047 34.512-30.225 17.227-30.177-17.244V170.25l30.178-17.243zm-29.328 17.737v33.508l29.328 16.758 29.374-16.741-.047-33.525-29.327-16.758-29.328 16.758zm29.328 186.272l30.177 17.243.047 34.512-30.225 17.227-30.177-17.244V374.26l30.178-17.243zm-29.328 17.737v33.508l29.328 16.758 29.374-16.741-.047-33.525-29.327-16.758-29.328 16.758zm386.358-323.75l30.178 17.243.047 34.512-30.225 17.226-30.177-17.243V68.246l30.177-17.244zm-29.327 17.736v33.508l29.328 16.758 29.373-16.741-.046-33.525-29.328-16.758-29.327 16.758zm29.327 186.272l30.178 17.244.047 34.512-30.225 17.226-30.177-17.243v-34.495l30.177-17.244zm-29.327 17.737v33.508l29.328 16.758 29.373-16.74-.046-33.526-29.328-16.758-29.327 16.758zm29.327-119.741l30.178 17.243.047 34.512-30.225 17.227-30.177-17.244V170.25l30.177-17.243zm-29.327 17.737v33.508l29.328 16.758 29.373-16.741-.046-33.525-29.328-16.758-29.327 16.758zm29.327 186.272l30.178 17.243.047 34.512-30.225 17.227-30.177-17.244V374.26l30.177-17.243zm-29.327 17.737v33.508l29.328 16.758 29.373-16.741-.046-33.525-29.328-16.758-29.327 16.758zM297.95 0l30.177 17.243.048 34.512-30.226 17.227-30.177-17.244V17.244L297.951 0zm-29.328 17.737v33.508l29.328 16.758 29.374-16.741-.046-33.525L297.95.98l-29.328 16.758zM654.982 0l30.177 17.243.047 34.512-30.225 17.227-30.177-17.244V17.244L654.982 0zm-29.328 17.737v33.508l29.328 16.758 29.374-16.741-.047-33.525L654.982.98l-29.328 16.758zM1012.012 0l30.178 17.243.047 34.512-30.225 17.227-30.177-17.244V17.244L1012.012 0zm-29.327 17.737v33.508l29.328 16.758 29.373-16.741-.046-33.525L1012.012.98l-29.327 16.758zM178.94 0l30.178 17.243.047 34.512-30.225 17.227-30.177-17.244V17.244L178.94 0zm-29.327 17.737v33.508l29.328 16.758 29.373-16.741-.046-33.525L178.94.98l-29.327 16.758zM535.97 0l30.178 17.243.047 34.512-30.225 17.227-30.177-17.244V17.244L535.97 0zm-29.327 17.737v33.508l29.328 16.758 29.373-16.741-.046-33.525L535.971.98l-29.327 16.758zM893.002 0l30.177 17.243.048 34.512-30.225 17.227-30.178-17.244V17.244L893.002 0zm0 .979l-29.327 16.758v33.508l29.327 16.758 29.374-16.741-.046-33.525L893.002.98zM59.93 0l30.177 17.243.048 34.512L59.93 68.982 29.753 51.738V17.244L59.93 0zm0 .979L30.603 17.737v33.508L59.93 68.003l29.374-16.741-.046-33.525L59.93.98zM416.961 0l30.177 17.243.048 34.512-30.225 17.227-30.178-17.244V17.244L416.961 0zm-29.328 17.737v33.508l29.328 16.758 29.374-16.741-.046-33.525L416.96.98l-29.328 16.758zM773.992 0l30.177 17.243.048 34.512-30.225 17.227-30.178-17.244V17.244L773.992 0zm-29.328 17.737v33.508l29.328 16.758 29.374-16.741-.046-33.525L773.992.98l-29.328 16.758zM357.456 0l30.177 17.243.048 34.512-30.225 17.227-30.178-17.244V17.244L357.456 0zm-29.328 17.737v33.508l29.328 16.758 29.374-16.741-.046-33.525L357.456.98l-29.328 16.758zM714.487 0l30.177 17.243.047 34.512-30.225 17.227-30.177-17.244V17.244L714.487 0zm-29.328 17.737v33.508l29.328 16.758 29.374-16.741-.046-33.525L714.487.98l-29.328 16.758zM1071.517 0l30.178 17.243.047 34.512-30.225 17.227-30.177-17.244V17.244L1071.517 0zm-29.327 17.737v33.508l29.328 16.758 29.374-16.741-.047-33.525L1071.517.98l-29.327 16.758zM1131.023 0l30.177 17.243.047 34.512-30.225 17.227-30.177-17.244V17.244L1131.023 0zm-29.328 17.737v33.508l29.328 16.758 29.374-16.741-.046-33.525L1131.023.98l-29.328 16.758zM238.445 0l30.178 17.243.047 34.512-30.225 17.227-30.177-17.244V17.244L238.446 0zm0 .979l-29.327 16.758v33.508l29.328 16.758 29.374-16.741-.047-33.525L238.446.98zM595.477 0l30.178 17.243.047 34.512-30.225 17.227L565.3 51.738V17.244L595.476 0zM566.15 17.737v33.508l29.328 16.758 29.373-16.741-.046-33.525L595.476.98 566.15 17.737zM952.507 0l30.177 17.243.048 34.512-30.225 17.227-30.177-17.244V17.244L952.507 0zm0 .979L923.18 17.737v33.508l29.327 16.758 29.374-16.741-.046-33.525L952.507.98zM119.435 0l30.178 17.243.047 34.512-30.225 17.227-30.177-17.244V17.244L119.435 0zM90.108 17.737v33.508l29.328 16.758 29.373-16.741-.046-33.525L119.435.98 90.108 17.737zM476.466 0l30.177 17.243.048 34.512-30.225 17.227-30.177-17.244V17.244L476.466 0zm0 .979L447.14 17.737v33.508l29.327 16.758 29.374-16.741-.046-33.525L476.466.98zM833.496 0l30.178 17.243.048 34.512-30.225 17.227-30.178-17.244V17.244L833.497 0zM804.17 17.737v33.508l29.328 16.758 29.374-16.741-.046-33.525L833.497.98l-29.328 16.758zm-506.218 84.268l30.177 17.243.048 34.512-30.226 17.226-30.177-17.243v-34.495l30.178-17.243zm-29.328 17.736v33.509l29.328 16.758 29.374-16.742-.046-33.524-29.328-16.758-29.328 16.757zm29.328 186.273l30.177 17.243.048 34.512-30.226 17.226-30.177-17.243v-34.495l30.178-17.243zm-29.328 17.736v33.509l29.328 16.758 29.374-16.742-.046-33.524-29.328-16.758-29.328 16.757zm29.328-119.74l30.177 17.242.048 34.512-30.226 17.227-30.177-17.244v-34.494l30.178-17.244zm-29.328 17.736v33.508l29.328 16.758 29.374-16.741-.046-33.525-29.328-16.758-29.328 16.758zm29.328 186.272l30.177 17.244.048 34.511L297.95 477l-30.177-17.243v-34.495l30.178-17.244zm-29.328 17.737v33.508l29.328 16.758 29.374-16.741-.046-33.525-29.328-16.758-29.328 16.758zm386.359-323.75l30.177 17.243.047 34.512-30.225 17.226-30.177-17.243v-34.495l30.178-17.243zm-29.328 17.736v33.509l29.328 16.758 29.374-16.742-.047-33.524-29.327-16.758-29.328 16.757zm29.328 186.273l30.177 17.243.047 34.512-30.225 17.226-30.177-17.243v-34.495l30.178-17.243zm-29.328 17.736v33.509l29.328 16.758 29.374-16.742-.047-33.524-29.327-16.758-29.328 16.757zm29.328-119.74l30.177 17.242.047 34.512-30.225 17.227-30.177-17.244v-34.494l30.178-17.244zm-29.328 17.736v33.508l29.328 16.758 29.374-16.741-.047-33.525-29.327-16.758-29.328 16.758zm29.328 186.272l30.177 17.244.047 34.511L654.981 477l-30.177-17.243v-34.495l30.178-17.244zm-29.328 17.737v33.508l29.328 16.758 29.374-16.741-.047-33.525-29.327-16.758-29.328 16.758zm386.358-323.75l30.178 17.243.047 34.512-30.225 17.226-30.177-17.243v-34.495l30.177-17.243zm0 .979l-29.327 16.757v33.509l29.328 16.758 29.373-16.742-.046-33.524-29.328-16.758zm0 203.03l30.178 17.243.047 34.512-30.225 17.226-30.177-17.243v-34.495l30.177-17.243zm-29.327 17.736v33.509l29.328 16.758 29.373-16.742-.046-33.524-29.328-16.758-29.327 16.757zm29.327-119.74l30.178 17.242.047 34.512-30.225 17.227-30.177-17.244v-34.494l30.177-17.244zm-29.327 17.736v33.508l29.328 16.758 29.373-16.741-.046-33.525-29.328-16.758-29.327 16.758zm29.327 186.272l30.178 17.244.047 34.511L1012.012 477l-30.177-17.243v-34.495l30.177-17.244zm-29.327 17.737v33.508l29.328 16.758 29.373-16.741-.046-33.525-29.328-16.758-29.327 16.758zM178.94 102.005l30.178 17.243.047 34.512-30.225 17.226-30.177-17.243v-34.495l30.177-17.243zm-29.327 17.736v33.509l29.328 16.758 29.373-16.742-.046-33.524-29.328-16.758-29.327 16.757zm29.327 186.273l30.178 17.243.047 34.512-30.225 17.226-30.177-17.243v-34.495l30.177-17.243zm-29.327 17.736v33.509l29.328 16.758 29.373-16.742-.046-33.524-29.328-16.758-29.327 16.757zm29.327-119.74l30.178 17.242.047 34.512-30.225 17.227-30.177-17.244v-34.494l30.177-17.244zm-29.327 17.736v33.508l29.328 16.758 29.373-16.741-.046-33.525-29.328-16.758-29.327 16.758zm29.327 186.272l30.178 17.244.047 34.511L178.94 477l-30.177-17.243v-34.495l30.177-17.244zm-29.327 17.737v33.508l29.328 16.758 29.373-16.741-.046-33.525-29.328-16.758-29.327 16.758zm386.358-323.75l30.178 17.243.047 34.512-30.225 17.226-30.177-17.243v-34.495l30.177-17.243zm-29.327 17.736v33.509l29.328 16.758 29.373-16.742-.046-33.524-29.328-16.758-29.327 16.757zm29.327 186.273l30.178 17.243.047 34.512-30.225 17.226-30.177-17.243v-34.495l30.177-17.243zm-29.327 17.736v33.509l29.328 16.758 29.373-16.742-.046-33.524-29.328-16.758-29.327 16.757zm29.327-119.74l30.178 17.242.047 34.512-30.225 17.227-30.177-17.244v-34.494l30.177-17.244zm-29.327 17.736v33.508l29.328 16.758 29.373-16.741-.046-33.525-29.328-16.758-29.327 16.758zm29.327 186.272l30.178 17.244.047 34.511L535.971 477l-30.177-17.243v-34.495l30.177-17.244zm-29.327 17.737v33.508l29.328 16.758 29.373-16.741-.046-33.525-29.328-16.758-29.327 16.758zm386.358-323.75l30.177 17.243.048 34.512-30.225 17.226-30.178-17.243v-34.495l30.178-17.243zm-29.327 17.736v33.509l29.327 16.758 29.374-16.742-.046-33.524-29.328-16.758-29.327 16.757zm29.327 186.273l30.177 17.243.048 34.512-30.225 17.226-30.178-17.243v-34.495l30.178-17.243zm-29.327 17.736v33.509l29.327 16.758 29.374-16.742-.046-33.524-29.328-16.758-29.327 16.757zm29.327-119.74l30.177 17.242.048 34.512-30.225 17.227-30.178-17.244v-34.494l30.178-17.244zm-29.327 17.736v33.508l29.327 16.758 29.374-16.741-.046-33.525-29.328-16.758-29.327 16.758zm29.327 186.272l30.177 17.244.048 34.511L893.002 477l-30.178-17.243v-34.495l30.178-17.244zm-29.327 17.737v33.508l29.327 16.758 29.374-16.741-.046-33.525-29.328-16.758-29.327 16.758zM59.93 102.005l30.177 17.243.048 34.512-30.225 17.226-30.177-17.243v-34.495l30.177-17.243zM30.603 119.74v33.509l29.327 16.758 29.374-16.742-.046-33.524-29.328-16.758-29.327 16.757zM59.93 306.014l30.177 17.243.048 34.512-30.225 17.226-30.177-17.243v-34.495l30.177-17.243zM30.603 323.75v33.509l29.327 16.758 29.374-16.742-.046-33.524-29.328-16.758-29.327 16.757zM59.93 204.01l30.177 17.242.048 34.512-30.225 17.227-30.177-17.244v-34.494l30.177-17.244zm-29.327 17.736v33.508l29.327 16.758 29.374-16.741-.046-33.525-29.328-16.758-29.327 16.758zM59.93 408.018l30.177 17.244.048 34.511L59.93 477l-30.177-17.243v-34.495l30.177-17.244zm-29.327 17.737v33.508l29.327 16.758 29.374-16.741-.046-33.525-29.328-16.758-29.327 16.758zm386.358-323.75l30.177 17.243.048 34.512-30.225 17.226-30.178-17.243v-34.495l30.178-17.243zm0 .979l-29.328 16.757v33.509l29.328 16.758 29.374-16.742-.046-33.524-29.328-16.758zm0 203.03l30.177 17.243.048 34.512-30.225 17.226-30.178-17.243v-34.495l30.178-17.243zm-29.328 17.736v33.509l29.328 16.758 29.374-16.742-.046-33.524-29.328-16.758-29.328 16.757zm29.328-119.74l30.177 17.242.048 34.512-30.225 17.227-30.178-17.244v-34.494l30.178-17.244zm-29.328 17.736v33.508l29.328 16.758 29.374-16.741-.046-33.525-29.328-16.758-29.328 16.758zm29.328 186.272l30.177 17.244.048 34.511L416.96 477l-30.178-17.243v-34.495l30.178-17.244zm-29.328 17.737v33.508l29.328 16.758 29.374-16.741-.046-33.525-29.328-16.758-29.328 16.758zm386.359-323.75l30.177 17.243.048 34.512-30.225 17.226-30.178-17.243v-34.495l30.178-17.243zm-29.328 17.736v33.509l29.328 16.758 29.374-16.742-.046-33.524-29.328-16.758-29.328 16.757zm29.328 186.273l30.177 17.243.048 34.512-30.225 17.226-30.178-17.243v-34.495l30.178-17.243zm-29.328 17.736v33.509l29.328 16.758 29.374-16.742-.046-33.524-29.328-16.758-29.328 16.757zm29.328-119.74l30.177 17.242.048 34.512-30.225 17.227-30.178-17.244v-34.494l30.178-17.244zm-29.328 17.736v33.508l29.328 16.758 29.374-16.741-.046-33.525-29.328-16.758-29.328 16.758zm29.328 186.272l30.177 17.244.048 34.511L773.992 477l-30.178-17.243v-34.495l30.178-17.244zm-29.328 17.737v33.508l29.328 16.758 29.374-16.741-.046-33.525-29.328-16.758-29.328 16.758zm-387.208-323.75l30.177 17.243.048 34.512-30.225 17.226-30.178-17.243v-34.495l30.178-17.243zm-29.328 17.736v33.509l29.328 16.758 29.374-16.742-.046-33.524-29.328-16.758-29.328 16.757zm29.328 186.273l30.177 17.243.048 34.512-30.225 17.226-30.178-17.243v-34.495l30.178-17.243zm-29.328 17.736v33.509l29.328 16.758 29.374-16.742-.046-33.524-29.328-16.758-29.328 16.757zm29.328-119.74l30.177 17.242.048 34.512-30.225 17.227-30.178-17.244v-34.494l30.178-17.244zm-29.328 17.736v33.508l29.328 16.758 29.374-16.741-.046-33.525-29.328-16.758-29.328 16.758zm29.328 186.272l30.177 17.244.048 34.511L357.456 477l-30.178-17.243v-34.495l30.178-17.244zm-29.328 17.737v33.508l29.328 16.758 29.374-16.741-.046-33.525-29.328-16.758-29.328 16.758zm386.359-323.75l30.177 17.243.047 34.512-30.225 17.226-30.177-17.243v-34.495l30.178-17.243zm-29.328 17.736v33.509l29.328 16.758 29.374-16.742-.046-33.524-29.328-16.758-29.328 16.757zm29.328 186.273l30.177 17.243.047 34.512-30.225 17.226-30.177-17.243v-34.495l30.178-17.243zm-29.328 17.736v33.509l29.328 16.758 29.374-16.742-.046-33.524-29.328-16.758-29.328 16.757zm29.328-119.74l30.177 17.242.047 34.512-30.225 17.227-30.177-17.244v-34.494l30.178-17.244zm-29.328 17.736v33.508l29.328 16.758 29.374-16.741-.046-33.525-29.328-16.758-29.328 16.758zm29.328 186.272l30.177 17.244.047 34.511L714.486 477l-30.177-17.243v-34.495l30.178-17.244zm-29.328 17.737v33.508l29.328 16.758 29.374-16.741-.046-33.525-29.328-16.758-29.328 16.758zm386.358-323.75l30.178 17.243.047 34.512-30.225 17.226-30.177-17.243v-34.495l30.177-17.243zm-29.327 17.736v33.509l29.328 16.758 29.374-16.742-.047-33.524-29.328-16.758-29.327 16.757zm29.327 186.273l30.178 17.243.047 34.512-30.225 17.226-30.177-17.243v-34.495l30.177-17.243zm-29.327 17.736v33.509l29.328 16.758 29.374-16.742-.047-33.524-29.328-16.758-29.327 16.757zm29.327-119.74l30.178 17.242.047 34.512-30.225 17.227-30.177-17.244v-34.494l30.177-17.244zm-29.327 17.736v33.508l29.328 16.758 29.374-16.741-.047-33.525-29.328-16.758-29.327 16.758zm29.327 186.272l30.178 17.244.047 34.511L1071.517 477l-30.177-17.243v-34.495l30.177-17.244zm-29.327 17.737v33.508l29.328 16.758 29.374-16.741-.047-33.525-29.328-16.758-29.327 16.758zm88.833-323.75l30.177 17.243.047 34.512-30.225 17.226-30.177-17.243v-34.495l30.178-17.243zm-29.328 17.736v33.509l29.328 16.758 29.374-16.742-.046-33.524-29.328-16.758-29.328 16.757zm29.328 186.273l30.177 17.243.047 34.512-30.225 17.226-30.177-17.243v-34.495l30.178-17.243zm-29.328 17.736v33.509l29.328 16.758 29.374-16.742-.046-33.524-29.328-16.758-29.328 16.757zm29.328-119.74l30.177 17.242.047 34.512-30.225 17.227-30.177-17.244v-34.494l30.178-17.244zm-29.328 17.736v33.508l29.328 16.758 29.374-16.741-.046-33.525-29.328-16.758-29.328 16.758zm29.328 186.272l30.177 17.244.047 34.511L1131.022 477l-30.177-17.243v-34.495l30.178-17.244zm-29.328 17.737v33.508l29.328 16.758 29.374-16.741-.046-33.525-29.328-16.758-29.328 16.758zm-863.25-323.75l30.178 17.243.047 34.512-30.225 17.226-30.177-17.243v-34.495l30.178-17.243zm0 .979l-29.327 16.757v33.509l29.328 16.758 29.374-16.742-.047-33.524-29.327-16.758zm0 203.03l30.178 17.243.047 34.512-30.225 17.226-30.177-17.243v-34.495l30.178-17.243zm-29.327 17.736v33.509l29.328 16.758 29.374-16.742-.047-33.524-29.327-16.758-29.328 16.757zm29.328-119.74l30.177 17.242.047 34.512-30.225 17.227-30.177-17.244v-34.494l30.178-17.244zm-29.328 17.736v33.508l29.328 16.758 29.374-16.741-.047-33.525-29.327-16.758-29.328 16.758zm29.328 186.272l30.177 17.244.047 34.511L238.445 477l-30.177-17.243v-34.495l30.178-17.244zm-29.328 17.737v33.508l29.328 16.758 29.374-16.741-.047-33.525-29.327-16.758-29.328 16.758zm386.358-323.75l30.178 17.243.047 34.512-30.225 17.226-30.177-17.243v-34.495l30.177-17.243zM566.15 119.74v33.509l29.328 16.758 29.373-16.742-.046-33.524-29.328-16.758-29.327 16.757zm29.327 186.273l30.178 17.243.047 34.512-30.225 17.226-30.177-17.243v-34.495l30.177-17.243zM566.15 323.75v33.509l29.328 16.758 29.373-16.742-.046-33.524-29.328-16.758-29.327 16.757zm29.327-119.74l30.178 17.242.047 34.512-30.225 17.227-30.177-17.244v-34.494l30.177-17.244zm-29.327 17.736v33.508l29.328 16.758 29.373-16.741-.046-33.525-29.328-16.758-29.327 16.758zm29.327 186.272l30.178 17.244.047 34.511L595.476 477 565.3 459.757v-34.495l30.177-17.244zm-29.327 17.737v33.508l29.328 16.758 29.373-16.741-.046-33.525-29.328-16.758-29.327 16.758zm386.358-323.75l30.177 17.243.048 34.512-30.225 17.226-30.177-17.243v-34.495l30.177-17.243zm0 .979L923.18 119.74v33.509l29.327 16.758 29.374-16.742-.046-33.524-29.328-16.758zm0 203.03l30.177 17.243.048 34.512-30.225 17.226-30.177-17.243v-34.495l30.177-17.243zM923.18 323.75v33.509l29.327 16.758 29.374-16.742-.046-33.524-29.328-16.758-29.327 16.757zm29.327-119.74l30.177 17.242.048 34.512-30.225 17.227-30.177-17.244v-34.494l30.177-17.244zm-29.327 17.736v33.508l29.327 16.758 29.374-16.741-.046-33.525-29.328-16.758-29.327 16.758zm29.327 186.272l30.177 17.244.048 34.511L952.507 477l-30.177-17.243v-34.495l30.177-17.244zm-29.327 17.737v33.508l29.327 16.758 29.374-16.741-.046-33.525-29.328-16.758-29.327 16.758zm-803.745-323.75l30.178 17.243.047 34.512-30.225 17.226-30.177-17.243v-34.495l30.177-17.243zM90.108 119.74v33.509l29.328 16.758 29.373-16.742-.046-33.524-29.328-16.758-29.327 16.757zm29.327 186.273l30.178 17.243.047 34.512-30.225 17.226-30.177-17.243v-34.495l30.177-17.243zM90.108 323.75v33.509l29.328 16.758 29.373-16.742-.046-33.524-29.328-16.758-29.327 16.757zm29.327-119.74l30.178 17.242.047 34.512-30.225 17.227-30.177-17.244v-34.494l30.177-17.244zm-29.327 17.736v33.508l29.328 16.758 29.373-16.741-.046-33.525-29.328-16.758-29.327 16.758zm29.327 186.272l30.178 17.244.047 34.511L119.435 477l-30.177-17.243v-34.495l30.177-17.244zm-29.327 17.737v33.508l29.328 16.758 29.373-16.741-.046-33.525-29.328-16.758-29.327 16.758zm386.358-323.75l30.177 17.243.048 34.512-30.225 17.226-30.177-17.243v-34.495l30.177-17.243zM447.14 119.74v33.509l29.327 16.758 29.374-16.742-.046-33.524-29.328-16.758-29.327 16.757zm29.327 186.273l30.177 17.243.048 34.512-30.225 17.226-30.177-17.243v-34.495l30.177-17.243zM447.14 323.75v33.509l29.327 16.758 29.374-16.742-.046-33.524-29.328-16.758-29.327 16.757zm29.327-119.74l30.177 17.242.048 34.512-30.225 17.227-30.177-17.244v-34.494l30.177-17.244zm-29.327 17.736v33.508l29.327 16.758 29.374-16.741-.046-33.525-29.328-16.758-29.327 16.758zm29.327 186.272l30.177 17.244.048 34.511L476.466 477l-30.177-17.243v-34.495l30.177-17.244zm-29.327 17.737v33.508l29.327 16.758 29.374-16.741-.046-33.525-29.328-16.758-29.327 16.758zm386.358-323.75l30.177 17.243.048 34.512-30.225 17.226-30.178-17.243v-34.495l30.178-17.243zm-29.328 17.736v33.509l29.328 16.758 29.374-16.742-.046-33.524-29.328-16.758-29.328 16.757zm29.328 186.273l30.177 17.243.048 34.512-30.225 17.226-30.178-17.243v-34.495l30.178-17.243zm-29.328 17.736v33.509l29.328 16.758 29.374-16.742-.046-33.524-29.328-16.758-29.328 16.757zm29.328-119.74l30.177 17.242.048 34.512-30.225 17.227-30.178-17.244v-34.494l30.178-17.244zm-29.328 17.736v33.508l29.328 16.758 29.374-16.741-.046-33.525-29.328-16.758-29.328 16.758zm29.328 186.272l30.177 17.244.048 34.511L833.497 477l-30.178-17.243v-34.495l30.178-17.244zm-29.328 17.737v33.508l29.328 16.758 29.374-16.741-.046-33.525-29.328-16.758-29.328 16.758zM268.2 51.002l30.176 17.244.048 34.512-30.225 17.226-30.177-17.243V68.246l30.177-17.244zM238.87 68.74v33.508l29.327 16.758 29.374-16.741-.046-33.525-29.328-16.758-29.327 16.758zm29.327 186.272l30.177 17.244.048 34.512-30.225 17.226-30.177-17.243v-34.495l30.177-17.244zm-29.327 17.737v33.508l29.327 16.758 29.374-16.74-.046-33.526-29.328-16.758-29.327 16.758zm29.327-119.741l30.177 17.243.048 34.512-30.225 17.227-30.177-17.244V170.25l30.177-17.243zm-29.327 17.737v33.508l29.327 16.758 29.374-16.741-.046-33.525-29.328-16.758-29.327 16.758zm29.327 186.272l30.177 17.243.048 34.512-30.225 17.227-30.177-17.244V374.26l30.177-17.243zm-29.327 17.737v33.508l29.327 16.758 29.374-16.741-.046-33.525-29.328-16.758-29.327 16.758zm386.358-323.75l30.177 17.243.048 34.512-30.225 17.226-30.178-17.243V68.246l30.178-17.244zm-29.328 17.736v33.508l29.328 16.758 29.374-16.741-.046-33.525-29.328-16.758-29.328 16.758zm29.328 186.272l30.177 17.244.048 34.512-30.225 17.226-30.178-17.243v-34.495l30.178-17.244zm-29.328 17.737v33.508l29.328 16.758 29.374-16.74-.046-33.526-29.328-16.758-29.328 16.758zm29.328-119.741l30.177 17.243.048 34.512-30.225 17.227-30.178-17.244V170.25l30.178-17.243zm-29.328 17.737v33.508l29.328 16.758 29.374-16.741-.046-33.525-29.328-16.758-29.328 16.758zm29.328 186.272l30.177 17.243.048 34.512-30.225 17.227-30.178-17.244V374.26l30.178-17.243zm-29.328 17.737v33.508l29.328 16.758 29.374-16.741-.046-33.525-29.328-16.758-29.328 16.758zM982.26 51.003l30.177 17.243.048 34.512-30.225 17.226-30.178-17.243V68.246l30.178-17.244zm0 .978L952.932 68.74v33.508l29.328 16.758 29.374-16.741-.046-33.525-29.328-16.758zm0 203.03l30.177 17.244.048 34.512-30.225 17.226-30.178-17.243v-34.495l30.178-17.244zm-29.328 17.737v33.508l29.328 16.758 29.374-16.74-.046-33.526-29.328-16.758-29.328 16.758zm29.328-119.741l30.177 17.243.048 34.512-30.225 17.227-30.178-17.244V170.25l30.178-17.243zm-29.328 17.737v33.508l29.328 16.758 29.374-16.741-.046-33.525-29.328-16.758-29.328 16.758zm29.328 186.272l30.177 17.243.048 34.512-30.225 17.227-30.178-17.244V374.26l30.178-17.243zm-29.328 17.737v33.508l29.328 16.758 29.374-16.741-.046-33.525-29.328-16.758-29.328 16.758zM149.188 51.003l30.177 17.243.048 34.512-30.225 17.226-30.178-17.243V68.246l30.178-17.244zM119.86 68.738v33.508l29.328 16.758 29.374-16.741-.046-33.525-29.328-16.758L119.86 68.74zm29.328 186.272l30.177 17.244.048 34.512-30.225 17.226-30.178-17.243v-34.495l30.178-17.244zm-29.328 17.737v33.508l29.328 16.758 29.374-16.74-.046-33.526-29.328-16.758-29.328 16.758zm29.328-119.741l30.177 17.243.048 34.512-30.225 17.227-30.178-17.244V170.25l30.178-17.243zm-29.328 17.737v33.508l29.328 16.758 29.374-16.741-.046-33.525-29.328-16.758-29.328 16.758zm29.328 186.272l30.177 17.243.048 34.512-30.225 17.227-30.178-17.244V374.26l30.178-17.243zm-29.328 17.737v33.508l29.328 16.758 29.374-16.741-.046-33.525-29.328-16.758-29.328 16.758zM506.22 51.003l30.177 17.243.048 34.512-30.226 17.226-30.177-17.243V68.246l30.178-17.244zM476.89 68.738v33.508l29.328 16.758 29.374-16.741-.046-33.525-29.328-16.758L476.89 68.74zm29.328 186.272l30.177 17.244.048 34.512-30.226 17.226-30.177-17.243v-34.495l30.178-17.244zm-29.328 17.737v33.508l29.328 16.758 29.374-16.74-.046-33.526-29.328-16.758-29.328 16.758zm29.328-119.741l30.177 17.243.048 34.512-30.226 17.227-30.177-17.244V170.25l30.178-17.243zm-29.328 17.737v33.508l29.328 16.758 29.374-16.741-.046-33.525-29.328-16.758-29.328 16.758zm29.328 186.272l30.177 17.243.048 34.512-30.226 17.227-30.177-17.244V374.26l30.178-17.243zm-29.328 17.737v33.508l29.328 16.758 29.374-16.741-.046-33.525-29.328-16.758-29.328 16.758zM863.25 51.003l30.177 17.243.047 34.512-30.225 17.226-30.177-17.243V68.246l30.178-17.244zm-29.328 17.736v33.508l29.328 16.758 29.374-16.741-.047-33.525-29.327-16.758-29.328 16.758zm29.328 186.272l30.177 17.244.047 34.512-30.225 17.226-30.177-17.243v-34.495l30.178-17.244zm-29.328 17.737v33.508l29.328 16.758 29.374-16.74-.047-33.526-29.327-16.758-29.328 16.758zm29.328-119.741l30.177 17.243.047 34.512-30.225 17.227-30.177-17.244V170.25l30.178-17.243zm-29.328 17.737v33.508l29.328 16.758 29.374-16.741-.047-33.525-29.327-16.758-29.328 16.758zm29.328 186.272l30.177 17.243.047 34.512-30.225 17.227-30.177-17.244V374.26l30.178-17.243zm-29.328 17.737v33.508l29.328 16.758 29.374-16.741-.047-33.525-29.327-16.758-29.328 16.758zM30.178 51.003l30.177 17.243.047 34.512-30.225 17.226L0 102.741V68.246l30.178-17.244zM.85 68.738v33.508l29.328 16.758 29.374-16.741-.047-33.525-29.327-16.758L.85 68.74zm29.328 186.272l30.177 17.244.047 34.512-30.225 17.226L0 306.75v-34.495l30.178-17.244zM.85 272.748v33.508l29.328 16.758 29.374-16.74-.047-33.526-29.327-16.758L.85 272.748zm29.328-119.741l30.177 17.243.047 34.512-30.225 17.227L0 204.745V170.25l30.178-17.243zM.85 170.744v33.508l29.328 16.758 29.374-16.741-.047-33.525-29.327-16.758L.85 170.744zm29.328 186.272l30.177 17.243.047 34.512-30.225 17.227L0 408.754V374.26l30.178-17.243zM.85 374.753v33.508l29.328 16.758 29.374-16.741-.047-33.525-29.327-16.758L.85 374.753zm386.358-323.75l30.178 17.243.047 34.512-30.225 17.226-30.177-17.243V68.246l30.177-17.244zm-29.327 17.736v33.508l29.328 16.758 29.373-16.741-.046-33.525-29.328-16.758-29.327 16.758zm29.327 186.272l30.178 17.244.047 34.512-30.225 17.226-30.177-17.243v-34.495l30.177-17.244zm-29.327 17.737v33.508l29.328 16.758 29.373-16.74-.046-33.526-29.328-16.758-29.327 16.758zm29.327-119.741l30.178 17.243.047 34.512-30.225 17.227-30.177-17.244V170.25l30.177-17.243zm-29.327 17.737v33.508l29.328 16.758 29.373-16.741-.046-33.525-29.328-16.758-29.327 16.758zm29.327 186.272l30.178 17.243.047 34.512-30.225 17.227-30.177-17.244V374.26l30.177-17.243zm-29.327 17.737v33.508l29.328 16.758 29.373-16.741-.046-33.525-29.328-16.758-29.327 16.758zm386.358-323.75l30.178 17.243.047 34.512-30.225 17.226-30.177-17.243V68.246l30.177-17.244zm-29.327 17.736v33.508l29.328 16.758 29.373-16.741-.046-33.525-29.328-16.758-29.327 16.758zm29.327 186.272l30.178 17.244.047 34.512-30.225 17.226-30.177-17.243v-34.495l30.177-17.244zm-29.327 17.737v33.508l29.328 16.758 29.373-16.74-.046-33.526-29.328-16.758-29.327 16.758zm29.327-119.741l30.178 17.243.047 34.512-30.225 17.227-30.177-17.244V170.25l30.177-17.243zm-29.327 17.737v33.508l29.328 16.758 29.373-16.741-.046-33.525-29.328-16.758-29.327 16.758zm29.327 186.272l30.178 17.243.047 34.512-30.225 17.227-30.177-17.244V374.26l30.177-17.243zm-29.327 17.737v33.508l29.328 16.758 29.373-16.741-.046-33.525-29.328-16.758-29.327 16.758zm386.358-323.75l30.177 17.243.048 34.512-30.225 17.226-30.178-17.243V68.246l30.178-17.244zm-29.327 17.736v33.508l29.327 16.758 29.374-16.741-.046-33.525-29.328-16.758-29.327 16.758zm29.327 186.272l30.177 17.244.048 34.512-30.225 17.226-30.178-17.243v-34.495l30.178-17.244zm-29.327 17.737v33.508l29.327 16.758 29.374-16.74-.046-33.526-29.328-16.758-29.327 16.758zm29.327-119.741l30.177 17.243.048 34.512-30.225 17.227-30.178-17.244V170.25l30.178-17.243zm-29.327 17.737v33.508l29.327 16.758 29.374-16.741-.046-33.525-29.328-16.758-29.327 16.758zm29.327 186.272l30.177 17.243.048 34.512-30.225 17.227-30.178-17.244V374.26l30.178-17.243zm-29.327 17.737v33.508l29.327 16.758 29.374-16.741-.046-33.525-29.328-16.758-29.327 16.758zm88.832-323.75l30.177 17.243.048 34.512-30.225 17.226-30.177-17.243V68.246l30.177-17.244zm-29.327 17.736v33.508l29.327 16.758 29.374-16.741-.046-33.525-29.328-16.758-29.327 16.758zm29.327 186.272l30.177 17.244.048 34.512-30.225 17.226-30.177-17.243v-34.495l30.177-17.244zm-29.327 17.737v33.508l29.327 16.758 29.374-16.74-.046-33.526-29.328-16.758-29.327 16.758zm29.327-119.741l30.177 17.243.048 34.512-30.225 17.227-30.177-17.244V170.25l30.177-17.243zm-29.327 17.737v33.508l29.327 16.758 29.374-16.741-.046-33.525-29.328-16.758-29.327 16.758zm29.327 186.272l30.177 17.243.048 34.512-30.225 17.227-30.177-17.244V374.26l30.177-17.243zm-29.327 17.737v33.508l29.327 16.758 29.374-16.741-.046-33.525-29.328-16.758-29.327 16.758z" transform="translate(685 153)"/>
        <path fill="url(#b)" fill-rule="nonzero" d="M327.703 51.002l30.178 17.244.047 34.512-30.225 17.226-30.177-17.243V68.246l30.177-17.244zM298.376 68.74v33.508l29.328 16.758 29.373-16.741-.046-33.525-29.328-16.758-29.327 16.758zm29.327 186.272l30.178 17.244.047 34.512-30.225 17.226-30.177-17.243v-34.495l30.177-17.244zm-29.327 17.737v33.508l29.328 16.758 29.373-16.74-.046-33.526-29.328-16.758-29.327 16.758zm29.327-119.741l30.178 17.243.047 34.512-30.225 17.227-30.177-17.244V170.25l30.177-17.243zm-29.327 17.737v33.508l29.328 16.758 29.373-16.741-.046-33.525-29.328-16.758-29.327 16.758zm29.327 186.272l30.178 17.243.047 34.512-30.225 17.227-30.177-17.244V374.26l30.177-17.243zm-29.327 17.737v33.508l29.328 16.758 29.373-16.741-.046-33.525-29.328-16.758-29.327 16.758zm386.358-323.75l30.177 17.243.048 34.512-30.225 17.226-30.178-17.243V68.246l30.178-17.244zm-29.327 17.736v33.508l29.327 16.758 29.374-16.741-.046-33.525-29.328-16.758-29.327 16.758zm29.327 186.272l30.177 17.244.048 34.512-30.225 17.226-30.178-17.243v-34.495l30.178-17.244zm-29.327 17.737v33.508l29.327 16.758 29.374-16.74-.046-33.526-29.328-16.758-29.327 16.758zm29.327-119.741l30.177 17.243.048 34.512-30.225 17.227-30.178-17.244V170.25l30.178-17.243zm-29.327 17.737v33.508l29.327 16.758 29.374-16.741-.046-33.525-29.328-16.758-29.327 16.758zm29.327 186.272l30.177 17.243.048 34.512-30.225 17.227-30.178-17.244V374.26l30.178-17.243zm-29.327 17.737v33.508l29.327 16.758 29.374-16.741-.046-33.525-29.328-16.758-29.327 16.758zm386.358-323.75l30.177 17.243.048 34.512-30.225 17.226-30.178-17.243V68.246l30.178-17.244zm-29.328 17.736v33.508l29.328 16.758 29.374-16.741-.046-33.525-29.328-16.758-29.328 16.758zm29.328 186.272l30.177 17.244.048 34.512-30.225 17.226-30.178-17.243v-34.495l30.178-17.244zm-29.328 17.737v33.508l29.328 16.758 29.374-16.74-.046-33.526-29.328-16.758-29.328 16.758zm29.328-119.741l30.177 17.243.048 34.512-30.225 17.227-30.178-17.244V170.25l30.178-17.243zm-29.328 17.737v33.508l29.328 16.758 29.374-16.741-.046-33.525-29.328-16.758-29.328 16.758zm29.328 186.272l30.177 17.243.048 34.512-30.225 17.227-30.178-17.244V374.26l30.178-17.243zm-29.328 17.737v33.508l29.328 16.758 29.374-16.741-.046-33.525-29.328-16.758-29.328 16.758zM208.693 51.003l30.177 17.243.048 34.512-30.225 17.226-30.178-17.243V68.246l30.178-17.244zm0 .978L179.365 68.74v33.508l29.328 16.758 29.374-16.741-.046-33.525-29.328-16.758zm0 203.03l30.177 17.244.048 34.512-30.225 17.226-30.178-17.243v-34.495l30.178-17.244zm-29.328 17.737v33.508l29.328 16.758 29.374-16.74-.046-33.526-29.328-16.758-29.328 16.758zm29.328-119.741l30.177 17.243.048 34.512-30.225 17.227-30.178-17.244V170.25l30.178-17.243zm-29.328 17.737v33.508l29.328 16.758 29.374-16.741-.046-33.525-29.328-16.758-29.328 16.758zm29.328 186.272l30.177 17.243.048 34.512-30.225 17.227-30.178-17.244V374.26l30.178-17.243zm-29.328 17.737v33.508l29.328 16.758 29.374-16.741-.046-33.525-29.328-16.758-29.328 16.758zm386.359-323.75L595.9 68.245l.048 34.512-30.225 17.226-30.178-17.243V68.246l30.178-17.244zm-29.328 17.736v33.508l29.328 16.758 29.374-16.741-.046-33.525-29.328-16.758-29.328 16.758zm29.328 186.272l30.177 17.244.048 34.512-30.225 17.226-30.178-17.243v-34.495l30.178-17.244zm-29.328 17.737v33.508l29.328 16.758 29.374-16.74-.046-33.526-29.328-16.758-29.328 16.758zm29.328-119.741L595.9 170.25l.048 34.512-30.225 17.227-30.178-17.244V170.25l30.178-17.243zm-29.328 17.737v33.508l29.328 16.758 29.374-16.741-.046-33.525-29.328-16.758-29.328 16.758zm29.328 186.272l30.177 17.243.048 34.512-30.225 17.227-30.178-17.244V374.26l30.178-17.243zm-29.328 17.737v33.508l29.328 16.758 29.374-16.741-.046-33.525-29.328-16.758-29.328 16.758zm386.359-323.75l30.177 17.243.047 34.512-30.225 17.226-30.177-17.243V68.246l30.178-17.244zm-29.328 17.736v33.508l29.328 16.758 29.374-16.741-.046-33.525-29.328-16.758-29.328 16.758zm29.328 186.272l30.177 17.244.047 34.512-30.225 17.226-30.177-17.243v-34.495l30.178-17.244zm-29.328 17.737v33.508l29.328 16.758 29.374-16.74-.046-33.526-29.328-16.758-29.328 16.758zm29.328-119.741l30.177 17.243.047 34.512-30.225 17.227-30.177-17.244V170.25l30.178-17.243zm-29.328 17.737v33.508l29.328 16.758 29.374-16.741-.046-33.525-29.328-16.758-29.328 16.758zm29.328 186.272l30.177 17.243.047 34.512-30.225 17.227-30.177-17.244V374.26l30.178-17.243zm-29.328 17.737v33.508l29.328 16.758 29.374-16.741-.046-33.525-29.328-16.758-29.328 16.758zM89.683 51.003l30.177 17.243.048 34.512-30.226 17.226-30.177-17.243V68.246l30.178-17.244zM60.355 68.738v33.508l29.328 16.758 29.374-16.741-.046-33.525-29.328-16.758L60.355 68.74zm29.328 186.272l30.177 17.244.048 34.512-30.226 17.226-30.177-17.243v-34.495l30.178-17.244zm-29.328 17.737v33.508l29.328 16.758 29.374-16.74-.046-33.526-29.328-16.758-29.328 16.758zm29.328-119.741l30.177 17.243.048 34.512-30.226 17.227-30.177-17.244V170.25l30.178-17.243zm-29.328 17.737v33.508l29.328 16.758 29.374-16.741-.046-33.525-29.328-16.758-29.328 16.758zm29.328 186.272l30.177 17.243.048 34.512-30.226 17.227-30.177-17.244V374.26l30.178-17.243zm-29.328 17.737v33.508l29.328 16.758 29.374-16.741-.046-33.525-29.328-16.758-29.328 16.758zm386.359-323.75l30.177 17.243.047 34.512-30.225 17.226-30.177-17.243V68.246l30.178-17.244zm-29.328 17.736v33.508l29.328 16.758 29.374-16.741-.047-33.525-29.327-16.758-29.328 16.758zm29.328 186.272l30.177 17.244.047 34.512-30.225 17.226-30.177-17.243v-34.495l30.178-17.244zm-29.328 17.737v33.508l29.328 16.758 29.374-16.74-.047-33.526-29.327-16.758-29.328 16.758zm29.328-119.741l30.177 17.243.047 34.512-30.225 17.227-30.177-17.244V170.25l30.178-17.243zm-29.328 17.737v33.508l29.328 16.758 29.374-16.741-.047-33.525-29.327-16.758-29.328 16.758zm29.328 186.272l30.177 17.243.047 34.512-30.225 17.227-30.177-17.244V374.26l30.178-17.243zm-29.328 17.737v33.508l29.328 16.758 29.374-16.741-.047-33.525-29.327-16.758-29.328 16.758zm386.358-323.75l30.178 17.243.047 34.512-30.225 17.226-30.177-17.243V68.246l30.177-17.244zm-29.327 17.736v33.508l29.328 16.758 29.373-16.741-.046-33.525-29.328-16.758-29.327 16.758zm29.327 186.272l30.178 17.244.047 34.512-30.225 17.226-30.177-17.243v-34.495l30.177-17.244zm-29.327 17.737v33.508l29.328 16.758 29.373-16.74-.046-33.526-29.328-16.758-29.327 16.758zm29.327-119.741l30.178 17.243.047 34.512-30.225 17.227-30.177-17.244V170.25l30.177-17.243zm-29.327 17.737v33.508l29.328 16.758 29.373-16.741-.046-33.525-29.328-16.758-29.327 16.758zm29.327 186.272l30.178 17.243.047 34.512-30.225 17.227-30.177-17.244V374.26l30.177-17.243zm-29.327 17.737v33.508l29.328 16.758 29.373-16.741-.046-33.525-29.328-16.758-29.327 16.758zM297.95 0l30.177 17.243.048 34.512-30.226 17.227-30.177-17.244V17.244L297.951 0zm-29.328 17.737v33.508l29.328 16.758 29.374-16.741-.046-33.525L297.95.98l-29.328 16.758zM654.982 0l30.177 17.243.047 34.512-30.225 17.227-30.177-17.244V17.244L654.982 0zm-29.328 17.737v33.508l29.328 16.758 29.374-16.741-.047-33.525L654.982.98l-29.328 16.758zM1012.012 0l30.178 17.243.047 34.512-30.225 17.227-30.177-17.244V17.244L1012.012 0zm-29.327 17.737v33.508l29.328 16.758 29.373-16.741-.046-33.525L1012.012.98l-29.327 16.758zM178.94 0l30.178 17.243.047 34.512-30.225 17.227-30.177-17.244V17.244L178.94 0zm-29.327 17.737v33.508l29.328 16.758 29.373-16.741-.046-33.525L178.94.98l-29.327 16.758zM535.97 0l30.178 17.243.047 34.512-30.225 17.227-30.177-17.244V17.244L535.97 0zm-29.327 17.737v33.508l29.328 16.758 29.373-16.741-.046-33.525L535.971.98l-29.327 16.758zM893.002 0l30.177 17.243.048 34.512-30.225 17.227-30.178-17.244V17.244L893.002 0zm0 .979l-29.327 16.758v33.508l29.327 16.758 29.374-16.741-.046-33.525L893.002.98zM59.93 0l30.177 17.243.048 34.512L59.93 68.982 29.753 51.738V17.244L59.93 0zm0 .979L30.603 17.737v33.508L59.93 68.003l29.374-16.741-.046-33.525L59.93.98zM416.961 0l30.177 17.243.048 34.512-30.225 17.227-30.178-17.244V17.244L416.961 0zm-29.328 17.737v33.508l29.328 16.758 29.374-16.741-.046-33.525L416.96.98l-29.328 16.758zM773.992 0l30.177 17.243.048 34.512-30.225 17.227-30.178-17.244V17.244L773.992 0zm-29.328 17.737v33.508l29.328 16.758 29.374-16.741-.046-33.525L773.992.98l-29.328 16.758zM357.456 0l30.177 17.243.048 34.512-30.225 17.227-30.178-17.244V17.244L357.456 0zm-29.328 17.737v33.508l29.328 16.758 29.374-16.741-.046-33.525L357.456.98l-29.328 16.758zM714.487 0l30.177 17.243.047 34.512-30.225 17.227-30.177-17.244V17.244L714.487 0zm-29.328 17.737v33.508l29.328 16.758 29.374-16.741-.046-33.525L714.487.98l-29.328 16.758zM1071.517 0l30.178 17.243.047 34.512-30.225 17.227-30.177-17.244V17.244L1071.517 0zm-29.327 17.737v33.508l29.328 16.758 29.374-16.741-.047-33.525L1071.517.98l-29.327 16.758zM1131.023 0l30.177 17.243.047 34.512-30.225 17.227-30.177-17.244V17.244L1131.023 0zm-29.328 17.737v33.508l29.328 16.758 29.374-16.741-.046-33.525L1131.023.98l-29.328 16.758zM238.445 0l30.178 17.243.047 34.512-30.225 17.227-30.177-17.244V17.244L238.446 0zm0 .979l-29.327 16.758v33.508l29.328 16.758 29.374-16.741-.047-33.525L238.446.98zM595.477 0l30.178 17.243.047 34.512-30.225 17.227L565.3 51.738V17.244L595.476 0zM566.15 17.737v33.508l29.328 16.758 29.373-16.741-.046-33.525L595.476.98 566.15 17.737zM952.507 0l30.177 17.243.048 34.512-30.225 17.227-30.177-17.244V17.244L952.507 0zm0 .979L923.18 17.737v33.508l29.327 16.758 29.374-16.741-.046-33.525L952.507.98zM119.435 0l30.178 17.243.047 34.512-30.225 17.227-30.177-17.244V17.244L119.435 0zM90.108 17.737v33.508l29.328 16.758 29.373-16.741-.046-33.525L119.435.98 90.108 17.737zM476.466 0l30.177 17.243.048 34.512-30.225 17.227-30.177-17.244V17.244L476.466 0zm0 .979L447.14 17.737v33.508l29.327 16.758 29.374-16.741-.046-33.525L476.466.98zM833.496 0l30.178 17.243.048 34.512-30.225 17.227-30.178-17.244V17.244L833.497 0zM804.17 17.737v33.508l29.328 16.758 29.374-16.741-.046-33.525L833.497.98l-29.328 16.758zm-506.218 84.268l30.177 17.243.048 34.512-30.226 17.226-30.177-17.243v-34.495l30.178-17.243zm-29.328 17.736v33.509l29.328 16.758 29.374-16.742-.046-33.524-29.328-16.758-29.328 16.757zm29.328 186.273l30.177 17.243.048 34.512-30.226 17.226-30.177-17.243v-34.495l30.178-17.243zm-29.328 17.736v33.509l29.328 16.758 29.374-16.742-.046-33.524-29.328-16.758-29.328 16.757zm29.328-119.74l30.177 17.242.048 34.512-30.226 17.227-30.177-17.244v-34.494l30.178-17.244zm-29.328 17.736v33.508l29.328 16.758 29.374-16.741-.046-33.525-29.328-16.758-29.328 16.758zm29.328 186.272l30.177 17.244.048 34.511L297.95 477l-30.177-17.243v-34.495l30.178-17.244zm-29.328 17.737v33.508l29.328 16.758 29.374-16.741-.046-33.525-29.328-16.758-29.328 16.758zm386.359-323.75l30.177 17.243.047 34.512-30.225 17.226-30.177-17.243v-34.495l30.178-17.243zm-29.328 17.736v33.509l29.328 16.758 29.374-16.742-.047-33.524-29.327-16.758-29.328 16.757zm29.328 186.273l30.177 17.243.047 34.512-30.225 17.226-30.177-17.243v-34.495l30.178-17.243zm-29.328 17.736v33.509l29.328 16.758 29.374-16.742-.047-33.524-29.327-16.758-29.328 16.757zm29.328-119.74l30.177 17.242.047 34.512-30.225 17.227-30.177-17.244v-34.494l30.178-17.244zm-29.328 17.736v33.508l29.328 16.758 29.374-16.741-.047-33.525-29.327-16.758-29.328 16.758zm29.328 186.272l30.177 17.244.047 34.511L654.981 477l-30.177-17.243v-34.495l30.178-17.244zm-29.328 17.737v33.508l29.328 16.758 29.374-16.741-.047-33.525-29.327-16.758-29.328 16.758zm386.358-323.75l30.178 17.243.047 34.512-30.225 17.226-30.177-17.243v-34.495l30.177-17.243zm0 .979l-29.327 16.757v33.509l29.328 16.758 29.373-16.742-.046-33.524-29.328-16.758zm0 203.03l30.178 17.243.047 34.512-30.225 17.226-30.177-17.243v-34.495l30.177-17.243zm-29.327 17.736v33.509l29.328 16.758 29.373-16.742-.046-33.524-29.328-16.758-29.327 16.757zm29.327-119.74l30.178 17.242.047 34.512-30.225 17.227-30.177-17.244v-34.494l30.177-17.244zm-29.327 17.736v33.508l29.328 16.758 29.373-16.741-.046-33.525-29.328-16.758-29.327 16.758zm29.327 186.272l30.178 17.244.047 34.511L1012.012 477l-30.177-17.243v-34.495l30.177-17.244zm-29.327 17.737v33.508l29.328 16.758 29.373-16.741-.046-33.525-29.328-16.758-29.327 16.758zM178.94 102.005l30.178 17.243.047 34.512-30.225 17.226-30.177-17.243v-34.495l30.177-17.243zm-29.327 17.736v33.509l29.328 16.758 29.373-16.742-.046-33.524-29.328-16.758-29.327 16.757zm29.327 186.273l30.178 17.243.047 34.512-30.225 17.226-30.177-17.243v-34.495l30.177-17.243zm-29.327 17.736v33.509l29.328 16.758 29.373-16.742-.046-33.524-29.328-16.758-29.327 16.757zm29.327-119.74l30.178 17.242.047 34.512-30.225 17.227-30.177-17.244v-34.494l30.177-17.244zm-29.327 17.736v33.508l29.328 16.758 29.373-16.741-.046-33.525-29.328-16.758-29.327 16.758zm29.327 186.272l30.178 17.244.047 34.511L178.94 477l-30.177-17.243v-34.495l30.177-17.244zm-29.327 17.737v33.508l29.328 16.758 29.373-16.741-.046-33.525-29.328-16.758-29.327 16.758zm386.358-323.75l30.178 17.243.047 34.512-30.225 17.226-30.177-17.243v-34.495l30.177-17.243zm-29.327 17.736v33.509l29.328 16.758 29.373-16.742-.046-33.524-29.328-16.758-29.327 16.757zm29.327 186.273l30.178 17.243.047 34.512-30.225 17.226-30.177-17.243v-34.495l30.177-17.243zm-29.327 17.736v33.509l29.328 16.758 29.373-16.742-.046-33.524-29.328-16.758-29.327 16.757zm29.327-119.74l30.178 17.242.047 34.512-30.225 17.227-30.177-17.244v-34.494l30.177-17.244zm-29.327 17.736v33.508l29.328 16.758 29.373-16.741-.046-33.525-29.328-16.758-29.327 16.758zm29.327 186.272l30.178 17.244.047 34.511L535.971 477l-30.177-17.243v-34.495l30.177-17.244zm-29.327 17.737v33.508l29.328 16.758 29.373-16.741-.046-33.525-29.328-16.758-29.327 16.758zm386.358-323.75l30.177 17.243.048 34.512-30.225 17.226-30.178-17.243v-34.495l30.178-17.243zm-29.327 17.736v33.509l29.327 16.758 29.374-16.742-.046-33.524-29.328-16.758-29.327 16.757zm29.327 186.273l30.177 17.243.048 34.512-30.225 17.226-30.178-17.243v-34.495l30.178-17.243zm-29.327 17.736v33.509l29.327 16.758 29.374-16.742-.046-33.524-29.328-16.758-29.327 16.757zm29.327-119.74l30.177 17.242.048 34.512-30.225 17.227-30.178-17.244v-34.494l30.178-17.244zm-29.327 17.736v33.508l29.327 16.758 29.374-16.741-.046-33.525-29.328-16.758-29.327 16.758zm29.327 186.272l30.177 17.244.048 34.511L893.002 477l-30.178-17.243v-34.495l30.178-17.244zm-29.327 17.737v33.508l29.327 16.758 29.374-16.741-.046-33.525-29.328-16.758-29.327 16.758zM59.93 102.005l30.177 17.243.048 34.512-30.225 17.226-30.177-17.243v-34.495l30.177-17.243zM30.603 119.74v33.509l29.327 16.758 29.374-16.742-.046-33.524-29.328-16.758-29.327 16.757zM59.93 306.014l30.177 17.243.048 34.512-30.225 17.226-30.177-17.243v-34.495l30.177-17.243zM30.603 323.75v33.509l29.327 16.758 29.374-16.742-.046-33.524-29.328-16.758-29.327 16.757zM59.93 204.01l30.177 17.242.048 34.512-30.225 17.227-30.177-17.244v-34.494l30.177-17.244zm-29.327 17.736v33.508l29.327 16.758 29.374-16.741-.046-33.525-29.328-16.758-29.327 16.758zM59.93 408.018l30.177 17.244.048 34.511L59.93 477l-30.177-17.243v-34.495l30.177-17.244zm-29.327 17.737v33.508l29.327 16.758 29.374-16.741-.046-33.525-29.328-16.758-29.327 16.758zm386.358-323.75l30.177 17.243.048 34.512-30.225 17.226-30.178-17.243v-34.495l30.178-17.243zm0 .979l-29.328 16.757v33.509l29.328 16.758 29.374-16.742-.046-33.524-29.328-16.758zm0 203.03l30.177 17.243.048 34.512-30.225 17.226-30.178-17.243v-34.495l30.178-17.243zm-29.328 17.736v33.509l29.328 16.758 29.374-16.742-.046-33.524-29.328-16.758-29.328 16.757zm29.328-119.74l30.177 17.242.048 34.512-30.225 17.227-30.178-17.244v-34.494l30.178-17.244zm-29.328 17.736v33.508l29.328 16.758 29.374-16.741-.046-33.525-29.328-16.758-29.328 16.758zm29.328 186.272l30.177 17.244.048 34.511L416.96 477l-30.178-17.243v-34.495l30.178-17.244zm-29.328 17.737v33.508l29.328 16.758 29.374-16.741-.046-33.525-29.328-16.758-29.328 16.758zm386.359-323.75l30.177 17.243.048 34.512-30.225 17.226-30.178-17.243v-34.495l30.178-17.243zm-29.328 17.736v33.509l29.328 16.758 29.374-16.742-.046-33.524-29.328-16.758-29.328 16.757zm29.328 186.273l30.177 17.243.048 34.512-30.225 17.226-30.178-17.243v-34.495l30.178-17.243zm-29.328 17.736v33.509l29.328 16.758 29.374-16.742-.046-33.524-29.328-16.758-29.328 16.757zm29.328-119.74l30.177 17.242.048 34.512-30.225 17.227-30.178-17.244v-34.494l30.178-17.244zm-29.328 17.736v33.508l29.328 16.758 29.374-16.741-.046-33.525-29.328-16.758-29.328 16.758zm29.328 186.272l30.177 17.244.048 34.511L773.992 477l-30.178-17.243v-34.495l30.178-17.244zm-29.328 17.737v33.508l29.328 16.758 29.374-16.741-.046-33.525-29.328-16.758-29.328 16.758zm-387.208-323.75l30.177 17.243.048 34.512-30.225 17.226-30.178-17.243v-34.495l30.178-17.243zm-29.328 17.736v33.509l29.328 16.758 29.374-16.742-.046-33.524-29.328-16.758-29.328 16.757zm29.328 186.273l30.177 17.243.048 34.512-30.225 17.226-30.178-17.243v-34.495l30.178-17.243zm-29.328 17.736v33.509l29.328 16.758 29.374-16.742-.046-33.524-29.328-16.758-29.328 16.757zm29.328-119.74l30.177 17.242.048 34.512-30.225 17.227-30.178-17.244v-34.494l30.178-17.244zm-29.328 17.736v33.508l29.328 16.758 29.374-16.741-.046-33.525-29.328-16.758-29.328 16.758zm29.328 186.272l30.177 17.244.048 34.511L357.456 477l-30.178-17.243v-34.495l30.178-17.244zm-29.328 17.737v33.508l29.328 16.758 29.374-16.741-.046-33.525-29.328-16.758-29.328 16.758zm386.359-323.75l30.177 17.243.047 34.512-30.225 17.226-30.177-17.243v-34.495l30.178-17.243zm-29.328 17.736v33.509l29.328 16.758 29.374-16.742-.046-33.524-29.328-16.758-29.328 16.757zm29.328 186.273l30.177 17.243.047 34.512-30.225 17.226-30.177-17.243v-34.495l30.178-17.243zm-29.328 17.736v33.509l29.328 16.758 29.374-16.742-.046-33.524-29.328-16.758-29.328 16.757zm29.328-119.74l30.177 17.242.047 34.512-30.225 17.227-30.177-17.244v-34.494l30.178-17.244zm-29.328 17.736v33.508l29.328 16.758 29.374-16.741-.046-33.525-29.328-16.758-29.328 16.758zm29.328 186.272l30.177 17.244.047 34.511L714.486 477l-30.177-17.243v-34.495l30.178-17.244zm-29.328 17.737v33.508l29.328 16.758 29.374-16.741-.046-33.525-29.328-16.758-29.328 16.758zm386.358-323.75l30.178 17.243.047 34.512-30.225 17.226-30.177-17.243v-34.495l30.177-17.243zm-29.327 17.736v33.509l29.328 16.758 29.374-16.742-.047-33.524-29.328-16.758-29.327 16.757zm29.327 186.273l30.178 17.243.047 34.512-30.225 17.226-30.177-17.243v-34.495l30.177-17.243zm-29.327 17.736v33.509l29.328 16.758 29.374-16.742-.047-33.524-29.328-16.758-29.327 16.757zm29.327-119.74l30.178 17.242.047 34.512-30.225 17.227-30.177-17.244v-34.494l30.177-17.244zm-29.327 17.736v33.508l29.328 16.758 29.374-16.741-.047-33.525-29.328-16.758-29.327 16.758zm29.327 186.272l30.178 17.244.047 34.511L1071.517 477l-30.177-17.243v-34.495l30.177-17.244zm-29.327 17.737v33.508l29.328 16.758 29.374-16.741-.047-33.525-29.328-16.758-29.327 16.758zm88.833-323.75l30.177 17.243.047 34.512-30.225 17.226-30.177-17.243v-34.495l30.178-17.243zm-29.328 17.736v33.509l29.328 16.758 29.374-16.742-.046-33.524-29.328-16.758-29.328 16.757zm29.328 186.273l30.177 17.243.047 34.512-30.225 17.226-30.177-17.243v-34.495l30.178-17.243zm-29.328 17.736v33.509l29.328 16.758 29.374-16.742-.046-33.524-29.328-16.758-29.328 16.757zm29.328-119.74l30.177 17.242.047 34.512-30.225 17.227-30.177-17.244v-34.494l30.178-17.244zm-29.328 17.736v33.508l29.328 16.758 29.374-16.741-.046-33.525-29.328-16.758-29.328 16.758zm29.328 186.272l30.177 17.244.047 34.511L1131.022 477l-30.177-17.243v-34.495l30.178-17.244zm-29.328 17.737v33.508l29.328 16.758 29.374-16.741-.046-33.525-29.328-16.758-29.328 16.758zm-863.25-323.75l30.178 17.243.047 34.512-30.225 17.226-30.177-17.243v-34.495l30.178-17.243zm0 .979l-29.327 16.757v33.509l29.328 16.758 29.374-16.742-.047-33.524-29.327-16.758zm0 203.03l30.178 17.243.047 34.512-30.225 17.226-30.177-17.243v-34.495l30.178-17.243zm-29.327 17.736v33.509l29.328 16.758 29.374-16.742-.047-33.524-29.327-16.758-29.328 16.757zm29.328-119.74l30.177 17.242.047 34.512-30.225 17.227-30.177-17.244v-34.494l30.178-17.244zm-29.328 17.736v33.508l29.328 16.758 29.374-16.741-.047-33.525-29.327-16.758-29.328 16.758zm29.328 186.272l30.177 17.244.047 34.511L238.445 477l-30.177-17.243v-34.495l30.178-17.244zm-29.328 17.737v33.508l29.328 16.758 29.374-16.741-.047-33.525-29.327-16.758-29.328 16.758zm386.358-323.75l30.178 17.243.047 34.512-30.225 17.226-30.177-17.243v-34.495l30.177-17.243zM566.15 119.74v33.509l29.328 16.758 29.373-16.742-.046-33.524-29.328-16.758-29.327 16.757zm29.327 186.273l30.178 17.243.047 34.512-30.225 17.226-30.177-17.243v-34.495l30.177-17.243zM566.15 323.75v33.509l29.328 16.758 29.373-16.742-.046-33.524-29.328-16.758-29.327 16.757zm29.327-119.74l30.178 17.242.047 34.512-30.225 17.227-30.177-17.244v-34.494l30.177-17.244zm-29.327 17.736v33.508l29.328 16.758 29.373-16.741-.046-33.525-29.328-16.758-29.327 16.758zm29.327 186.272l30.178 17.244.047 34.511L595.476 477 565.3 459.757v-34.495l30.177-17.244zm-29.327 17.737v33.508l29.328 16.758 29.373-16.741-.046-33.525-29.328-16.758-29.327 16.758zm386.358-323.75l30.177 17.243.048 34.512-30.225 17.226-30.177-17.243v-34.495l30.177-17.243zm0 .979L923.18 119.74v33.509l29.327 16.758 29.374-16.742-.046-33.524-29.328-16.758zm0 203.03l30.177 17.243.048 34.512-30.225 17.226-30.177-17.243v-34.495l30.177-17.243zM923.18 323.75v33.509l29.327 16.758 29.374-16.742-.046-33.524-29.328-16.758-29.327 16.757zm29.327-119.74l30.177 17.242.048 34.512-30.225 17.227-30.177-17.244v-34.494l30.177-17.244zm-29.327 17.736v33.508l29.327 16.758 29.374-16.741-.046-33.525-29.328-16.758-29.327 16.758zm29.327 186.272l30.177 17.244.048 34.511L952.507 477l-30.177-17.243v-34.495l30.177-17.244zm-29.327 17.737v33.508l29.327 16.758 29.374-16.741-.046-33.525-29.328-16.758-29.327 16.758zm-803.745-323.75l30.178 17.243.047 34.512-30.225 17.226-30.177-17.243v-34.495l30.177-17.243zM90.108 119.74v33.509l29.328 16.758 29.373-16.742-.046-33.524-29.328-16.758-29.327 16.757zm29.327 186.273l30.178 17.243.047 34.512-30.225 17.226-30.177-17.243v-34.495l30.177-17.243zM90.108 323.75v33.509l29.328 16.758 29.373-16.742-.046-33.524-29.328-16.758-29.327 16.757zm29.327-119.74l30.178 17.242.047 34.512-30.225 17.227-30.177-17.244v-34.494l30.177-17.244zm-29.327 17.736v33.508l29.328 16.758 29.373-16.741-.046-33.525-29.328-16.758-29.327 16.758zm29.327 186.272l30.178 17.244.047 34.511L119.435 477l-30.177-17.243v-34.495l30.177-17.244zm-29.327 17.737v33.508l29.328 16.758 29.373-16.741-.046-33.525-29.328-16.758-29.327 16.758zm386.358-323.75l30.177 17.243.048 34.512-30.225 17.226-30.177-17.243v-34.495l30.177-17.243zM447.14 119.74v33.509l29.327 16.758 29.374-16.742-.046-33.524-29.328-16.758-29.327 16.757zm29.327 186.273l30.177 17.243.048 34.512-30.225 17.226-30.177-17.243v-34.495l30.177-17.243zM447.14 323.75v33.509l29.327 16.758 29.374-16.742-.046-33.524-29.328-16.758-29.327 16.757zm29.327-119.74l30.177 17.242.048 34.512-30.225 17.227-30.177-17.244v-34.494l30.177-17.244zm-29.327 17.736v33.508l29.327 16.758 29.374-16.741-.046-33.525-29.328-16.758-29.327 16.758zm29.327 186.272l30.177 17.244.048 34.511L476.466 477l-30.177-17.243v-34.495l30.177-17.244zm-29.327 17.737v33.508l29.327 16.758 29.374-16.741-.046-33.525-29.328-16.758-29.327 16.758zm386.358-323.75l30.177 17.243.048 34.512-30.225 17.226-30.178-17.243v-34.495l30.178-17.243zm-29.328 17.736v33.509l29.328 16.758 29.374-16.742-.046-33.524-29.328-16.758-29.328 16.757zm29.328 186.273l30.177 17.243.048 34.512-30.225 17.226-30.178-17.243v-34.495l30.178-17.243zm-29.328 17.736v33.509l29.328 16.758 29.374-16.742-.046-33.524-29.328-16.758-29.328 16.757zm29.328-119.74l30.177 17.242.048 34.512-30.225 17.227-30.178-17.244v-34.494l30.178-17.244zm-29.328 17.736v33.508l29.328 16.758 29.374-16.741-.046-33.525-29.328-16.758-29.328 16.758zm29.328 186.272l30.177 17.244.048 34.511L833.497 477l-30.178-17.243v-34.495l30.178-17.244zm-29.328 17.737v33.508l29.328 16.758 29.374-16.741-.046-33.525-29.328-16.758-29.328 16.758zM268.2 51.002l30.176 17.244.048 34.512-30.225 17.226-30.177-17.243V68.246l30.177-17.244zM238.87 68.74v33.508l29.327 16.758 29.374-16.741-.046-33.525-29.328-16.758-29.327 16.758zm29.327 186.272l30.177 17.244.048 34.512-30.225 17.226-30.177-17.243v-34.495l30.177-17.244zm-29.327 17.737v33.508l29.327 16.758 29.374-16.74-.046-33.526-29.328-16.758-29.327 16.758zm29.327-119.741l30.177 17.243.048 34.512-30.225 17.227-30.177-17.244V170.25l30.177-17.243zm-29.327 17.737v33.508l29.327 16.758 29.374-16.741-.046-33.525-29.328-16.758-29.327 16.758zm29.327 186.272l30.177 17.243.048 34.512-30.225 17.227-30.177-17.244V374.26l30.177-17.243zm-29.327 17.737v33.508l29.327 16.758 29.374-16.741-.046-33.525-29.328-16.758-29.327 16.758zm386.358-323.75l30.177 17.243.048 34.512-30.225 17.226-30.178-17.243V68.246l30.178-17.244zm-29.328 17.736v33.508l29.328 16.758 29.374-16.741-.046-33.525-29.328-16.758-29.328 16.758zm29.328 186.272l30.177 17.244.048 34.512-30.225 17.226-30.178-17.243v-34.495l30.178-17.244zm-29.328 17.737v33.508l29.328 16.758 29.374-16.74-.046-33.526-29.328-16.758-29.328 16.758zm29.328-119.741l30.177 17.243.048 34.512-30.225 17.227-30.178-17.244V170.25l30.178-17.243zm-29.328 17.737v33.508l29.328 16.758 29.374-16.741-.046-33.525-29.328-16.758-29.328 16.758zm29.328 186.272l30.177 17.243.048 34.512-30.225 17.227-30.178-17.244V374.26l30.178-17.243zm-29.328 17.737v33.508l29.328 16.758 29.374-16.741-.046-33.525-29.328-16.758-29.328 16.758zM982.26 51.003l30.177 17.243.048 34.512-30.225 17.226-30.178-17.243V68.246l30.178-17.244zm0 .978L952.932 68.74v33.508l29.328 16.758 29.374-16.741-.046-33.525-29.328-16.758zm0 203.03l30.177 17.244.048 34.512-30.225 17.226-30.178-17.243v-34.495l30.178-17.244zm-29.328 17.737v33.508l29.328 16.758 29.374-16.74-.046-33.526-29.328-16.758-29.328 16.758zm29.328-119.741l30.177 17.243.048 34.512-30.225 17.227-30.178-17.244V170.25l30.178-17.243zm-29.328 17.737v33.508l29.328 16.758 29.374-16.741-.046-33.525-29.328-16.758-29.328 16.758zm29.328 186.272l30.177 17.243.048 34.512-30.225 17.227-30.178-17.244V374.26l30.178-17.243zm-29.328 17.737v33.508l29.328 16.758 29.374-16.741-.046-33.525-29.328-16.758-29.328 16.758zM149.188 51.003l30.177 17.243.048 34.512-30.225 17.226-30.178-17.243V68.246l30.178-17.244zM119.86 68.738v33.508l29.328 16.758 29.374-16.741-.046-33.525-29.328-16.758L119.86 68.74zm29.328 186.272l30.177 17.244.048 34.512-30.225 17.226-30.178-17.243v-34.495l30.178-17.244zm-29.328 17.737v33.508l29.328 16.758 29.374-16.74-.046-33.526-29.328-16.758-29.328 16.758zm29.328-119.741l30.177 17.243.048 34.512-30.225 17.227-30.178-17.244V170.25l30.178-17.243zm-29.328 17.737v33.508l29.328 16.758 29.374-16.741-.046-33.525-29.328-16.758-29.328 16.758zm29.328 186.272l30.177 17.243.048 34.512-30.225 17.227-30.178-17.244V374.26l30.178-17.243zm-29.328 17.737v33.508l29.328 16.758 29.374-16.741-.046-33.525-29.328-16.758-29.328 16.758zM506.22 51.003l30.177 17.243.048 34.512-30.226 17.226-30.177-17.243V68.246l30.178-17.244zM476.89 68.738v33.508l29.328 16.758 29.374-16.741-.046-33.525-29.328-16.758L476.89 68.74zm29.328 186.272l30.177 17.244.048 34.512-30.226 17.226-30.177-17.243v-34.495l30.178-17.244zm-29.328 17.737v33.508l29.328 16.758 29.374-16.74-.046-33.526-29.328-16.758-29.328 16.758zm29.328-119.741l30.177 17.243.048 34.512-30.226 17.227-30.177-17.244V170.25l30.178-17.243zm-29.328 17.737v33.508l29.328 16.758 29.374-16.741-.046-33.525-29.328-16.758-29.328 16.758zm29.328 186.272l30.177 17.243.048 34.512-30.226 17.227-30.177-17.244V374.26l30.178-17.243zm-29.328 17.737v33.508l29.328 16.758 29.374-16.741-.046-33.525-29.328-16.758-29.328 16.758zM863.25 51.003l30.177 17.243.047 34.512-30.225 17.226-30.177-17.243V68.246l30.178-17.244zm-29.328 17.736v33.508l29.328 16.758 29.374-16.741-.047-33.525-29.327-16.758-29.328 16.758zm29.328 186.272l30.177 17.244.047 34.512-30.225 17.226-30.177-17.243v-34.495l30.178-17.244zm-29.328 17.737v33.508l29.328 16.758 29.374-16.74-.047-33.526-29.327-16.758-29.328 16.758zm29.328-119.741l30.177 17.243.047 34.512-30.225 17.227-30.177-17.244V170.25l30.178-17.243zm-29.328 17.737v33.508l29.328 16.758 29.374-16.741-.047-33.525-29.327-16.758-29.328 16.758zm29.328 186.272l30.177 17.243.047 34.512-30.225 17.227-30.177-17.244V374.26l30.178-17.243zm-29.328 17.737v33.508l29.328 16.758 29.374-16.741-.047-33.525-29.327-16.758-29.328 16.758zM30.178 51.003l30.177 17.243.047 34.512-30.225 17.226L0 102.741V68.246l30.178-17.244zM.85 68.738v33.508l29.328 16.758 29.374-16.741-.047-33.525-29.327-16.758L.85 68.74zm29.328 186.272l30.177 17.244.047 34.512-30.225 17.226L0 306.75v-34.495l30.178-17.244zM.85 272.748v33.508l29.328 16.758 29.374-16.74-.047-33.526-29.327-16.758L.85 272.748zm29.328-119.741l30.177 17.243.047 34.512-30.225 17.227L0 204.745V170.25l30.178-17.243zM.85 170.744v33.508l29.328 16.758 29.374-16.741-.047-33.525-29.327-16.758L.85 170.744zm29.328 186.272l30.177 17.243.047 34.512-30.225 17.227L0 408.754V374.26l30.178-17.243zM.85 374.753v33.508l29.328 16.758 29.374-16.741-.047-33.525-29.327-16.758L.85 374.753zm386.358-323.75l30.178 17.243.047 34.512-30.225 17.226-30.177-17.243V68.246l30.177-17.244zm-29.327 17.736v33.508l29.328 16.758 29.373-16.741-.046-33.525-29.328-16.758-29.327 16.758zm29.327 186.272l30.178 17.244.047 34.512-30.225 17.226-30.177-17.243v-34.495l30.177-17.244zm-29.327 17.737v33.508l29.328 16.758 29.373-16.74-.046-33.526-29.328-16.758-29.327 16.758zm29.327-119.741l30.178 17.243.047 34.512-30.225 17.227-30.177-17.244V170.25l30.177-17.243zm-29.327 17.737v33.508l29.328 16.758 29.373-16.741-.046-33.525-29.328-16.758-29.327 16.758zm29.327 186.272l30.178 17.243.047 34.512-30.225 17.227-30.177-17.244V374.26l30.177-17.243zm-29.327 17.737v33.508l29.328 16.758 29.373-16.741-.046-33.525-29.328-16.758-29.327 16.758zm386.358-323.75l30.178 17.243.047 34.512-30.225 17.226-30.177-17.243V68.246l30.177-17.244zm-29.327 17.736v33.508l29.328 16.758 29.373-16.741-.046-33.525-29.328-16.758-29.327 16.758zm29.327 186.272l30.178 17.244.047 34.512-30.225 17.226-30.177-17.243v-34.495l30.177-17.244zm-29.327 17.737v33.508l29.328 16.758 29.373-16.74-.046-33.526-29.328-16.758-29.327 16.758zm29.327-119.741l30.178 17.243.047 34.512-30.225 17.227-30.177-17.244V170.25l30.177-17.243zm-29.327 17.737v33.508l29.328 16.758 29.373-16.741-.046-33.525-29.328-16.758-29.327 16.758zm29.327 186.272l30.178 17.243.047 34.512-30.225 17.227-30.177-17.244V374.26l30.177-17.243zm-29.327 17.737v33.508l29.328 16.758 29.373-16.741-.046-33.525-29.328-16.758-29.327 16.758zm386.358-323.75l30.177 17.243.048 34.512-30.225 17.226-30.178-17.243V68.246l30.178-17.244zm-29.327 17.736v33.508l29.327 16.758 29.374-16.741-.046-33.525-29.328-16.758-29.327 16.758zm29.327 186.272l30.177 17.244.048 34.512-30.225 17.226-30.178-17.243v-34.495l30.178-17.244zm-29.327 17.737v33.508l29.327 16.758 29.374-16.74-.046-33.526-29.328-16.758-29.327 16.758zm29.327-119.741l30.177 17.243.048 34.512-30.225 17.227-30.178-17.244V170.25l30.178-17.243zm-29.327 17.737v33.508l29.327 16.758 29.374-16.741-.046-33.525-29.328-16.758-29.327 16.758zm29.327 186.272l30.177 17.243.048 34.512-30.225 17.227-30.178-17.244V374.26l30.178-17.243zm-29.327 17.737v33.508l29.327 16.758 29.374-16.741-.046-33.525-29.328-16.758-29.327 16.758zm88.832-323.75l30.177 17.243.048 34.512-30.225 17.226-30.177-17.243V68.246l30.177-17.244zm-29.327 17.736v33.508l29.327 16.758 29.374-16.741-.046-33.525-29.328-16.758-29.327 16.758zm29.327 186.272l30.177 17.244.048 34.512-30.225 17.226-30.177-17.243v-34.495l30.177-17.244zm-29.327 17.737v33.508l29.327 16.758 29.374-16.74-.046-33.526-29.328-16.758-29.327 16.758zm29.327-119.741l30.177 17.243.048 34.512-30.225 17.227-30.177-17.244V170.25l30.177-17.243zm-29.327 17.737v33.508l29.327 16.758 29.374-16.741-.046-33.525-29.328-16.758-29.327 16.758zm29.327 186.272l30.177 17.243.048 34.512-30.225 17.227-30.177-17.244V374.26l30.177-17.243zm-29.327 17.737v33.508l29.327 16.758 29.374-16.741-.046-33.525-29.328-16.758-29.327 16.758z" transform="translate(-596 153)"/>
    </g>
</svg>
