<svg xmlns="http://www.w3.org/2000/svg" width="25" height="35" viewBox="0 0 25 35">
    <g fill="none" fill-rule="evenodd">
        <path d="M-11-7h49v49h-49z"/>
        <path fill="#3B9AF9" d="M18.766 7.196l5.954 3.511v7.022l-5.954-3.51z"/>
        <path fill="#2888E8" d="M18.766 7.196l-5.953 3.511v7.022l5.953-3.51z"/>
        <path fill="#1E79D3" d="M18.767 14.065L12.813 17.5l5.953 3.435L24.72 17.5z"/>
        <path fill="#3B9AF9" d="M6.86.785l5.953 3.51v7.023L6.86 7.807z"/>
        <path fill="#2888E8" d="M6.86.785L.907 4.295v7.023L6.86 7.807z"/>
        <path fill="#1E79D3" d="M6.86 7.654L.907 11.09l5.953 3.434 5.953-3.434z"/>
        <g>
            <path fill="#3B9AF9" d="M12.813 10.86l5.953 3.51v7.023l-5.953-3.511z"/>
            <path fill="#2888E8" d="M12.813 10.86L6.86 14.37v7.023l5.953-3.511z"/>
            <path fill="#1E79D3" d="M12.813 17.729L6.86 21.164l5.953 3.434 5.953-3.434z"/>
        </g>
        <g>
            <path fill="#3B9AF9" d="M18.766 20.935l5.954 3.51v7.022l-5.954-3.51z"/>
            <path fill="#2888E8" d="M18.766 20.935l-5.953 3.51v7.022l5.953-3.51z"/>
            <path fill="#1E79D3" d="M18.767 27.804l-5.954 3.434 5.953 3.435 5.954-3.435z"/>
        </g>
    </g>
</svg>
