<svg xmlns="http://www.w3.org/2000/svg" width="25" height="35"><defs><linearGradient id="a" x1="0%" y1="0%" y2="100%"><stop offset="0%" stop-color="#51BDF5"/><stop offset="100%" stop-color="#2888E8"/></linearGradient><linearGradient id="b" x1="100%" x2="-9.88%" y1="100%" y2="-9.362%"><stop offset="0%" stop-color="#51BDF5"/><stop offset="100%" stop-color="#2888E8"/></linearGradient><linearGradient id="c" x1="50%" x2="50%" y1="0%" y2="100%"><stop offset="0%" stop-color="#3591C9"/><stop offset="100%" stop-color="#185899"/></linearGradient></defs><g fill="none" fill-rule="evenodd"><path d="M-11-7h49v49h-49z"/><path fill="url(#a)" d="M5.953 0l5.954 3.51v7.023L5.953 7.022z" transform="translate(12.813 7.196)"/><path fill="url(#b)" d="M0 0l5.953 3.51v7.023L0 7.022z" transform="matrix(-1 0 0 1 18.766 7.196)"/><path fill="url(#c)" d="M5.953 6.87l5.954 3.434-5.954 3.434L0 10.304z" transform="matrix(-1 0 0 1 24.72 7.196)"/><path fill="url(#a)" d="M5.953 0l5.954 3.51v7.023L5.953 7.022z" transform="translate(.907 .785)"/><path fill="url(#b)" d="M0 0l5.953 3.51v7.023L0 7.022z" transform="matrix(-1 0 0 1 6.86 .785)"/><path fill="url(#c)" d="M5.953 6.87l5.954 3.434-5.954 3.434L0 10.304z" transform="matrix(-1 0 0 1 12.813 .785)"/><path fill="url(#a)" d="M5.953 0l5.954 3.51v7.023L5.953 7.022z" transform="translate(6.86 10.86)"/><path fill="url(#b)" d="M0 0l5.953 3.51v7.023L0 7.022z" transform="matrix(-1 0 0 1 12.813 10.86)"/><path fill="url(#c)" d="M5.953 6.87l5.954 3.434-5.954 3.434L0 10.304z" transform="matrix(-1 0 0 1 18.766 10.86)"/><g><path fill="url(#a)" d="M5.953 0l5.954 3.51v7.023L5.953 7.022z" transform="translate(12.813 20.935)"/><path fill="url(#b)" d="M0 0l5.953 3.51v7.023L0 7.022z" transform="matrix(-1 0 0 1 18.766 20.935)"/><path fill="url(#c)" d="M5.953 6.87l5.954 3.434-5.954 3.434L0 10.304z" transform="matrix(-1 0 0 1 24.72 20.935)"/></g></g></svg>