<svg xmlns="http://www.w3.org/2000/svg" width="138" height="198" viewBox="0 0 138 198">
    <defs>
        <radialGradient id="a" cy="48.086%" r="48.782%" fx="50%" fy="48.086%" gradientTransform="matrix(0 -1 1.06579 0 -.012 .98)">
            <stop offset="0%" stop-color="#B7BDC1"/>
            <stop offset="30.544%" stop-color="#A8B9CB" stop-opacity=".662"/>
            <stop offset="100%" stop-color="#73A3D4" stop-opacity="0"/>
        </radialGradient>
    </defs>
    <path fill="url(#a)" fill-rule="nonzero" d="M163.99 25.555l15.1 8.64.024 17.291-15.125 8.632-15.101-8.64V34.194l15.101-8.64zm-14.677 8.887V51.23l14.676 8.396 14.7-8.388-.024-16.797-14.676-8.397-14.676 8.397zm14.676 93.331l15.102 8.64.023 17.292-15.125 8.631-15.101-8.64v-17.283l15.101-8.64zm-14.676 8.887v16.79l14.676 8.396 14.7-8.388-.024-16.798-14.676-8.396-14.676 8.396zm14.676-59.996l15.102 8.64.023 17.292-15.125 8.631-15.101-8.64V85.304l15.101-8.64zm-14.676 8.887v16.79l14.676 8.396 14.7-8.389-.024-16.797-14.676-8.397-14.676 8.397zm14.676 93.331l15.102 8.64.023 17.292-15.125 8.631-15.101-8.64v-17.283l15.101-8.64zm-14.676 8.887v16.79l14.676 8.396 14.7-8.388-.024-16.798-14.676-8.396-14.676 8.396zM342.655 25.555l15.1 8.64.025 17.291-15.126 8.632-15.101-8.64V34.194l15.102-8.64zm-14.677 8.887V51.23l14.677 8.396 14.699-8.388-.023-16.797-14.676-8.397-14.677 8.397zm14.677 93.331l15.1 8.64.025 17.292-15.126 8.631-15.101-8.64v-17.283l15.102-8.64zm-14.677 8.887v16.79l14.677 8.396 14.699-8.388-.023-16.798-14.676-8.396-14.677 8.396zm14.677-59.996l15.1 8.64.025 17.292-15.126 8.631-15.101-8.64V85.304l15.102-8.64zm-14.677 8.887v16.79l14.677 8.396 14.699-8.389-.023-16.797-14.676-8.397-14.677 8.397zm14.677 93.331l15.1 8.64.025 17.292-15.126 8.631-15.101-8.64v-17.283l15.102-8.64zm-14.677 8.887v16.79l14.677 8.396 14.699-8.388-.023-16.798-14.676-8.396-14.677 8.396zM521.32 25.555l15.101 8.64.024 17.291-15.125 8.632-15.102-8.64V34.194l15.102-8.64zm-14.676 8.887V51.23l14.676 8.396 14.7-8.388-.024-16.797-14.676-8.397-14.676 8.397zm14.676 93.331l15.101 8.64.024 17.292-15.125 8.631-15.102-8.64v-17.283l15.102-8.64zm-14.676 8.887v16.79l14.676 8.396 14.7-8.388-.024-16.798-14.676-8.396-14.676 8.396zm14.676-59.996l15.101 8.64.024 17.292-15.125 8.631-15.102-8.64V85.304l15.102-8.64zm-14.676 8.887v16.79l14.676 8.396 14.7-8.389-.024-16.797-14.676-8.397-14.676 8.397zm14.676 93.331l15.101 8.64.024 17.292-15.125 8.631-15.102-8.64v-17.283l15.102-8.64zm-14.676 8.887v16.79l14.676 8.396 14.7-8.388-.024-16.798-14.676-8.396-14.676 8.396zM104.434 25.555l15.101 8.64.024 17.291-15.125 8.632-15.101-8.64V34.194l15.101-8.64zm0 .49l-14.676 8.397V51.23l14.676 8.396 14.7-8.388-.024-16.797-14.676-8.397zm0 101.728l15.101 8.64.024 17.292-15.125 8.631-15.101-8.64v-17.283l15.101-8.64zm-14.676 8.887v16.79l14.676 8.396 14.7-8.388-.024-16.798-14.676-8.396-14.676 8.396zm14.676-59.996l15.101 8.64.024 17.292-15.125 8.631-15.101-8.64V85.304l15.101-8.64zM89.758 85.55v16.79l14.676 8.396 14.7-8.389-.024-16.797-14.676-8.397-14.676 8.397zm14.676 93.331l15.101 8.64.024 17.292-15.125 8.631-15.101-8.64v-17.283l15.101-8.64zm-14.676 8.887v16.79l14.676 8.396 14.7-8.388-.024-16.798-14.676-8.396-14.676 8.396zM283.099 25.555l15.102 8.64.024 17.291-15.126 8.632-15.101-8.64V34.194l15.101-8.64zm-14.676 8.887V51.23l14.677 8.396 14.699-8.388-.023-16.797-14.677-8.397-14.676 8.397zm14.676 93.331l15.102 8.64.024 17.292-15.126 8.631-15.101-8.64v-17.283l15.101-8.64zm-14.676 8.887v16.79l14.677 8.396 14.699-8.388-.023-16.798-14.677-8.396-14.676 8.396zM283.1 76.664l15.102 8.64.024 17.292-15.126 8.631-15.101-8.64V85.304l15.101-8.64zm-14.676 8.887v16.79l14.677 8.396 14.699-8.389-.023-16.797-14.677-8.397-14.676 8.397zm14.676 93.331l15.102 8.64.024 17.292-15.126 8.631-15.101-8.64v-17.283l15.101-8.64zm-14.676 8.887v16.79l14.677 8.396 14.699-8.388-.023-16.798-14.677-8.396-14.676 8.396zM461.765 25.555l15.101 8.64.024 17.291-15.125 8.632-15.102-8.64V34.194l15.102-8.64zm-14.676 8.887V51.23l14.676 8.396 14.7-8.388-.024-16.797-14.676-8.397-14.676 8.397zm14.676 93.331l15.101 8.64.024 17.292-15.125 8.631-15.102-8.64v-17.283l15.102-8.64zm-14.676 8.887v16.79l14.676 8.396 14.7-8.388-.024-16.798-14.676-8.396-14.676 8.396zm14.676-59.996l15.101 8.64.024 17.292-15.125 8.631-15.102-8.64V85.304l15.102-8.64zm-14.676 8.887v16.79l14.676 8.396 14.7-8.389-.024-16.797-14.676-8.397-14.676 8.397zm14.676 93.331l15.101 8.64.024 17.292-15.125 8.631-15.102-8.64v-17.283l15.102-8.64zm-14.676 8.887v16.79l14.676 8.396 14.7-8.388-.024-16.798-14.676-8.396-14.676 8.396zM44.879 25.555l15.101 8.64.024 17.291-15.125 8.632-15.101-8.64V34.194l15.101-8.64zm-14.676 8.887V51.23l14.676 8.396 14.7-8.388-.024-16.797-14.676-8.397-14.676 8.397zm14.676 93.331l15.101 8.64.024 17.292-15.125 8.631-15.101-8.64v-17.283l15.101-8.64zm-14.676 8.887v16.79l14.676 8.396 14.7-8.388-.024-16.798-14.676-8.396-14.676 8.396zm14.676-59.996l15.101 8.64.024 17.292-15.125 8.631-15.101-8.64V85.304l15.101-8.64zM30.203 85.55v16.79l14.676 8.396 14.7-8.389-.024-16.797-14.676-8.397-14.676 8.397zm14.676 93.331l15.101 8.64.024 17.292-15.125 8.631-15.101-8.64v-17.283l15.101-8.64zm-14.676 8.887v16.79l14.676 8.396 14.7-8.388-.024-16.798-14.676-8.396-14.676 8.396zM223.544 25.555l15.102 8.64.023 17.291-15.125 8.632-15.101-8.64V34.194l15.101-8.64zm-14.676 8.887V51.23l14.676 8.396 14.7-8.388-.023-16.797-14.677-8.397-14.676 8.397zm14.676 93.331l15.102 8.64.023 17.292-15.125 8.631-15.101-8.64v-17.283l15.101-8.64zm-14.676 8.887v16.79l14.676 8.396 14.7-8.388-.023-16.798-14.677-8.396-14.676 8.396zm14.676-59.996l15.102 8.64.023 17.292-15.125 8.631-15.101-8.64V85.304l15.101-8.64zm-14.676 8.887v16.79l14.676 8.396 14.7-8.389-.023-16.797-14.677-8.397-14.676 8.397zm14.676 93.331l15.102 8.64.023 17.292-15.125 8.631-15.101-8.64v-17.283l15.101-8.64zm-14.676 8.887v16.79l14.676 8.396 14.7-8.388-.023-16.798-14.677-8.396-14.676 8.396zM402.21 25.555l15.1 8.64.025 17.291-15.126 8.632-15.1-8.64V34.194l15.1-8.64zm-14.676 8.887V51.23l14.676 8.396 14.699-8.388-.023-16.797-14.676-8.397-14.676 8.397zm14.676 93.331l15.1 8.64.025 17.292-15.126 8.631-15.1-8.64v-17.283l15.1-8.64zm-14.676 8.887v16.79l14.676 8.396 14.699-8.388-.023-16.798-14.676-8.396-14.676 8.396zm14.676-59.996l15.1 8.64.025 17.292-15.126 8.631-15.1-8.64V85.304l15.1-8.64zm-14.676 8.887v16.79l14.676 8.396 14.699-8.389-.023-16.797-14.676-8.397-14.676 8.397zm14.676 93.331l15.1 8.64.025 17.292-15.126 8.631-15.1-8.64v-17.283l15.1-8.64zm-14.676 8.887v16.79l14.676 8.396 14.699-8.388-.023-16.798-14.676-8.396-14.676 8.396zM149.1 0l15.102 8.64.024 17.292-15.126 8.631L134 25.923V8.64L149.1 0zm-14.676 8.887v16.79l14.677 8.396 14.699-8.388-.023-16.798L149.1.491l-14.676 8.396zM327.766 0l15.101 8.64.024 17.292-15.125 8.631-15.102-8.64V8.64L327.766 0zM313.09 8.887v16.79l14.676 8.396 14.7-8.388-.024-16.798L327.766.491 313.09 8.887zM506.43 0l15.101 8.64.024 17.292-15.125 8.631-15.101-8.64V8.64L506.43 0zm-14.676 8.887v16.79l14.676 8.396 14.7-8.388-.024-16.798L506.431.491l-14.676 8.396zM89.545 0l15.102 8.64.023 17.292-15.125 8.631-15.101-8.64V8.64L89.545 0zM74.87 8.887v16.79l14.676 8.396 14.7-8.388-.023-16.798L89.545.491 74.87 8.887zM268.211 0l15.1 8.64.025 17.292-15.125 8.631-15.102-8.64V8.64L268.211 0zm-14.676 8.887v16.79l14.676 8.396 14.699-8.388-.023-16.798L268.21.491l-14.676 8.396zM446.875 0l15.102 8.64.024 17.292-15.125 8.631-15.102-8.64V8.64L446.876 0zm0 .49L432.2 8.888v16.79l14.676 8.396 14.7-8.388-.024-16.798L446.876.491zM29.99 0l15.102 8.64.023 17.292-15.125 8.631-15.101-8.64V8.64L29.99 0zm0 .49L15.314 8.888v16.79l14.676 8.396 14.7-8.388-.024-16.798L29.99.491zM208.656 0l15.1 8.64.025 17.292-15.126 8.631-15.1-8.64V8.64l15.1-8.64zm-14.677 8.887v16.79l14.677 8.396 14.699-8.388-.023-16.798L208.656.491l-14.677 8.396zM387.321 0l15.101 8.64.024 17.292-15.125 8.631-15.102-8.64V8.64L387.321 0zm-14.676 8.887v16.79l14.676 8.396 14.7-8.388-.024-16.798L387.321.491l-14.676 8.396zM178.878 0l15.101 8.64.024 17.292-15.125 8.631-15.101-8.64V8.64L178.878 0zm-14.676 8.887v16.79l14.676 8.396 14.7-8.388-.024-16.798L178.878.491l-14.676 8.396zM357.543 0l15.102 8.64.023 17.292-15.125 8.631-15.101-8.64V8.64L357.543 0zm-14.676 8.887v16.79l14.676 8.396 14.7-8.388-.023-16.798L357.543.491l-14.676 8.396zM536.21 0l15.1 8.64.025 17.292-15.126 8.631-15.1-8.64V8.64l15.1-8.64zm-14.676 8.887v16.79l14.676 8.396 14.699-8.388-.023-16.798L536.209.491l-14.676 8.396zM565.986 0l15.101 8.64.024 17.292-15.125 8.631-15.101-8.64V8.64L565.986 0zM551.31 8.887v16.79l14.676 8.396 14.7-8.388-.024-16.798L565.986.491 551.31 8.887zM119.323 0l15.101 8.64.024 17.292-15.125 8.631-15.102-8.64V8.64L119.323 0zm0 .49l-14.676 8.397v16.79l14.676 8.396 14.7-8.388-.024-16.798L119.323.491zM297.988 0l15.101 8.64.024 17.292-15.125 8.631-15.101-8.64V8.64L297.988 0zm-14.676 8.887v16.79l14.676 8.396 14.7-8.388-.024-16.798L297.988.491l-14.676 8.396zM476.653 0l15.102 8.64.024 17.292-15.126 8.631-15.101-8.64V8.64L476.653 0zm0 .49l-14.676 8.397v16.79l14.677 8.396 14.699-8.388-.023-16.798L476.653.491zM59.768 0l15.101 8.64.024 17.292-15.125 8.631-15.102-8.64V8.64L59.768 0zM45.092 8.887v16.79l14.676 8.396 14.7-8.388-.024-16.798L59.768.491 45.092 8.887zM238.433 0l15.101 8.64.024 17.292-15.125 8.631-15.101-8.64V8.64L238.433 0zm0 .49l-14.676 8.397v16.79l14.676 8.396 14.7-8.388-.024-16.798L238.433.491zM417.098 0L432.2 8.64l.023 17.292-15.125 8.631-15.101-8.64V8.64L417.098 0zm-14.676 8.887v16.79l14.677 8.396 14.699-8.388-.023-16.798L417.098.491l-14.676 8.396zM149.1 51.11l15.102 8.64.024 17.292-15.126 8.631L134 77.032V59.75l15.101-8.64zm-14.676 8.887v16.79l14.677 8.396 14.699-8.388-.023-16.798L149.1 51.6l-14.676 8.396zm14.676 93.332l15.102 8.64.024 17.291-15.126 8.632L134 179.25v-17.284l15.101-8.64zm-14.676 8.887v16.789l14.677 8.396 14.699-8.388-.023-16.797-14.677-8.397-14.676 8.397zm14.676-59.997l15.102 8.64.024 17.292-15.126 8.632-15.101-8.64v-17.284l15.101-8.64zm-14.676 8.887v16.79l14.677 8.396 14.699-8.388-.023-16.797-14.677-8.397-14.676 8.396zm14.676 93.332l15.102 8.64.024 17.292L149.1 239 134 230.36v-17.283l15.101-8.64zm-14.676 8.887v16.789l14.677 8.397 14.699-8.389-.023-16.797-14.677-8.397-14.676 8.397zM327.766 51.109l15.101 8.64.024 17.292-15.125 8.631-15.102-8.64V59.75l15.102-8.64zm-14.676 8.887v16.79l14.676 8.396 14.7-8.388-.024-16.798-14.676-8.396-14.676 8.396zm14.676 93.332l15.101 8.64.024 17.291-15.125 8.632-15.102-8.64v-17.284l15.102-8.64zm-14.676 8.887v16.789l14.676 8.396 14.7-8.388-.024-16.797-14.676-8.397-14.676 8.397zm14.676-59.997l15.101 8.64.024 17.292-15.125 8.632-15.102-8.64v-17.284l15.102-8.64zm-14.676 8.887v16.79l14.676 8.396 14.7-8.388-.024-16.797-14.676-8.397-14.676 8.396zm14.676 93.332l15.101 8.64.024 17.292L327.766 239l-15.102-8.64v-17.283l15.102-8.64zm-14.676 8.887v16.789l14.676 8.397 14.7-8.389-.024-16.797-14.676-8.397-14.676 8.397zM506.43 51.109l15.101 8.64.024 17.292-15.125 8.631-15.101-8.64V59.75l15.101-8.64zm0 .49l-14.676 8.397v16.79l14.676 8.396 14.7-8.388-.024-16.798-14.676-8.396zm0 101.729l15.101 8.64.024 17.291-15.125 8.632-15.101-8.64v-17.284l15.101-8.64zm-14.676 8.887v16.789l14.676 8.396 14.7-8.388-.024-16.797-14.676-8.397-14.676 8.397zm14.676-59.997l15.101 8.64.024 17.292-15.125 8.632-15.101-8.64v-17.284l15.101-8.64zm-14.676 8.887v16.79l14.676 8.396 14.7-8.388-.024-16.797-14.676-8.397-14.676 8.396zm14.676 93.332l15.101 8.64.024 17.292L506.431 239l-15.101-8.64v-17.283l15.101-8.64zm-14.676 8.887v16.789l14.676 8.397 14.7-8.389-.024-16.797-14.676-8.397-14.676 8.397zM89.545 51.109l15.102 8.64.023 17.292-15.125 8.631-15.101-8.64V59.75l15.101-8.64zM74.87 59.996v16.79l14.676 8.396 14.7-8.388-.023-16.798L89.545 51.6 74.87 59.996zm14.676 93.332l15.102 8.64.023 17.291-15.125 8.632-15.101-8.64v-17.284l15.101-8.64zm-14.676 8.887v16.789l14.676 8.396 14.7-8.388-.023-16.797-14.677-8.397-14.676 8.397zm14.676-59.997l15.102 8.64.023 17.292-15.125 8.632-15.101-8.64v-17.284l15.101-8.64zm-14.676 8.887v16.79l14.676 8.396 14.7-8.388-.023-16.797-14.677-8.397-14.676 8.396zm14.676 93.332l15.102 8.64.023 17.292L89.545 239l-15.101-8.64v-17.283l15.101-8.64zm-14.676 8.887v16.789l14.676 8.397 14.7-8.389-.023-16.797-14.677-8.397-14.676 8.397zM268.211 51.109l15.1 8.64.025 17.292-15.125 8.631-15.102-8.64V59.75l15.102-8.64zm-14.676 8.887v16.79l14.676 8.396 14.699-8.388-.023-16.798L268.21 51.6l-14.676 8.396zm14.676 93.332l15.1 8.64.025 17.291-15.125 8.632-15.102-8.64v-17.284l15.102-8.64zm-14.676 8.887v16.789l14.676 8.396 14.699-8.388-.023-16.797-14.676-8.397-14.676 8.397zm14.676-59.997l15.1 8.64.025 17.292-15.125 8.632-15.102-8.64v-17.284l15.102-8.64zm-14.676 8.887v16.79l14.676 8.396 14.699-8.388-.023-16.797-14.676-8.397-14.676 8.396zm14.676 93.332l15.1 8.64.025 17.292L268.21 239l-15.102-8.64v-17.283l15.102-8.64zm-14.676 8.887v16.789l14.676 8.397 14.699-8.389-.023-16.797-14.676-8.397-14.676 8.397zm193.34-162.215l15.102 8.64.024 17.292-15.125 8.631-15.102-8.64V59.75l15.102-8.64zM432.2 59.996v16.79l14.676 8.396 14.7-8.388-.024-16.798-14.676-8.396-14.676 8.396zm14.676 93.332l15.101 8.64.024 17.291-15.125 8.632-15.102-8.64v-17.284l15.102-8.64zm-14.676 8.887v16.789l14.676 8.396 14.7-8.388-.024-16.797-14.676-8.397-14.676 8.397zm14.676-59.997l15.101 8.64.024 17.292-15.125 8.632-15.102-8.64v-17.284l15.102-8.64zm-14.676 8.887v16.79l14.676 8.396 14.7-8.388-.024-16.797-14.676-8.397-14.676 8.396zm14.676 93.332l15.101 8.64.024 17.292L446.876 239l-15.102-8.64v-17.283l15.102-8.64zm-14.676 8.887v16.789l14.676 8.397 14.7-8.389-.024-16.797-14.676-8.397-14.676 8.397zM29.99 51.109l15.102 8.64.023 17.292-15.125 8.631-15.101-8.64V59.75l15.101-8.64zm-14.676 8.887v16.79l14.676 8.396 14.7-8.388-.024-16.798L29.99 51.6l-14.676 8.396zm14.676 93.332l15.102 8.64.023 17.291-15.125 8.632-15.101-8.64v-17.284l15.101-8.64zm-14.676 8.887v16.789L29.99 187.4l14.7-8.388-.024-16.797-14.676-8.397-14.676 8.397zm14.676-59.997l15.102 8.64.023 17.292-15.125 8.632-15.101-8.64v-17.284l15.101-8.64zm-14.676 8.887v16.79l14.676 8.396 14.7-8.388-.024-16.797-14.676-8.397-14.676 8.396zm14.676 93.332l15.102 8.64.023 17.292L29.99 239l-15.101-8.64v-17.283l15.101-8.64zm-14.676 8.887v16.789l14.676 8.397 14.7-8.389-.024-16.797-14.676-8.397-14.676 8.397zM208.656 51.109l15.1 8.64.025 17.292-15.126 8.631-15.1-8.64V59.75l15.1-8.64zm0 .49l-14.677 8.397v16.79l14.677 8.396 14.699-8.388-.023-16.798-14.676-8.396zm0 101.729l15.1 8.64.025 17.291-15.126 8.632-15.1-8.64v-17.284l15.1-8.64zm-14.677 8.887v16.789l14.677 8.396 14.699-8.388-.023-16.797-14.676-8.397-14.677 8.397zm14.677-59.997l15.1 8.64.025 17.292-15.126 8.632-15.1-8.64v-17.284l15.1-8.64zm-14.677 8.887v16.79l14.677 8.396 14.699-8.388-.023-16.797-14.676-8.397-14.677 8.396zm14.677 93.332l15.1 8.64.025 17.292L208.655 239l-15.1-8.64v-17.283l15.1-8.64zm-14.677 8.887v16.789l14.677 8.397 14.699-8.389-.023-16.797-14.676-8.397-14.677 8.397zM387.321 51.109l15.101 8.64.024 17.292-15.125 8.631-15.102-8.64V59.75l15.102-8.64zm-14.676 8.887v16.79l14.676 8.396 14.7-8.388-.024-16.798-14.676-8.396-14.676 8.396zm14.676 93.332l15.101 8.64.024 17.291-15.125 8.632-15.102-8.64v-17.284l15.102-8.64zm-14.676 8.887v16.789l14.676 8.396 14.7-8.388-.024-16.797-14.676-8.397-14.676 8.397zm14.676-59.997l15.101 8.64.024 17.292-15.125 8.632-15.102-8.64v-17.284l15.102-8.64zm-14.676 8.887v16.79l14.676 8.396 14.7-8.388-.024-16.797-14.676-8.397-14.676 8.396zm14.676 93.332l15.101 8.64.024 17.292L387.32 239l-15.102-8.64v-17.283l15.102-8.64zm-14.676 8.887v16.789l14.676 8.397 14.7-8.389-.024-16.797-14.676-8.397-14.676 8.397zM178.878 51.109l15.101 8.64.024 17.292-15.125 8.631-15.101-8.64V59.75l15.101-8.64zm-14.676 8.887v16.79l14.676 8.396 14.7-8.388-.024-16.798-14.676-8.396-14.676 8.396zm14.676 93.332l15.101 8.64.024 17.291-15.125 8.632-15.101-8.64v-17.284l15.101-8.64zm-14.676 8.887v16.789l14.676 8.396 14.7-8.388-.024-16.797-14.676-8.397-14.676 8.397zm14.676-59.997l15.101 8.64.024 17.292-15.125 8.632-15.101-8.64v-17.284l15.101-8.64zm-14.676 8.887v16.79l14.676 8.396 14.7-8.388-.024-16.797-14.676-8.397-14.676 8.396zm14.676 93.332l15.101 8.64.024 17.292L178.878 239l-15.101-8.64v-17.283l15.101-8.64zm-14.676 8.887v16.789l14.676 8.397 14.7-8.389-.024-16.797-14.676-8.397-14.676 8.397zM357.543 51.109l15.102 8.64.023 17.292-15.125 8.631-15.101-8.64V59.75l15.101-8.64zm-14.676 8.887v16.79l14.676 8.396 14.7-8.388-.023-16.798-14.677-8.396-14.676 8.396zm14.676 93.332l15.102 8.64.023 17.291-15.125 8.632-15.101-8.64v-17.284l15.101-8.64zm-14.676 8.887v16.789l14.676 8.396 14.7-8.388-.023-16.797-14.677-8.397-14.676 8.397zm14.676-59.997l15.102 8.64.023 17.292-15.125 8.632-15.101-8.64v-17.284l15.101-8.64zm-14.676 8.887v16.79l14.676 8.396 14.7-8.388-.023-16.797-14.677-8.397-14.676 8.396zm14.676 93.332l15.102 8.64.023 17.292L357.543 239l-15.101-8.64v-17.283l15.101-8.64zm-14.676 8.887v16.789l14.676 8.397 14.7-8.389-.023-16.797-14.677-8.397-14.676 8.397zM536.21 51.109l15.1 8.64.025 17.292-15.126 8.631-15.1-8.64V59.75l15.1-8.64zm-14.676 8.887v16.79l14.676 8.396 14.699-8.388-.023-16.798-14.676-8.396-14.676 8.396zm14.676 93.332l15.1 8.64.025 17.291-15.126 8.632-15.1-8.64v-17.284l15.1-8.64zm-14.676 8.887v16.789l14.676 8.396 14.699-8.388-.023-16.797-14.676-8.397-14.676 8.397zm14.676-59.997l15.1 8.64.025 17.292-15.126 8.632-15.1-8.64v-17.284l15.1-8.64zm-14.676 8.887v16.79l14.676 8.396 14.699-8.388-.023-16.797-14.676-8.397-14.676 8.396zm14.676 93.332l15.1 8.64.025 17.292L536.208 239l-15.1-8.64v-17.283l15.1-8.64zm-14.676 8.887v16.789l14.676 8.397 14.699-8.389-.023-16.797-14.676-8.397-14.676 8.397zm44.453-162.215l15.101 8.64.024 17.292-15.125 8.631-15.101-8.64V59.75l15.101-8.64zm-14.676 8.887v16.79l14.676 8.396 14.7-8.388-.024-16.798-14.676-8.396-14.676 8.396zm14.676 93.332l15.101 8.64.024 17.291-15.125 8.632-15.101-8.64v-17.284l15.101-8.64zm-14.676 8.887v16.789l14.676 8.396 14.7-8.388-.024-16.797-14.676-8.397-14.676 8.397zm14.676-59.997l15.101 8.64.024 17.292-15.125 8.632-15.101-8.64v-17.284l15.101-8.64zm-14.676 8.887v16.79l14.676 8.396 14.7-8.388-.024-16.797-14.676-8.397-14.676 8.396zm14.676 93.332l15.101 8.64.024 17.292L565.986 239l-15.101-8.64v-17.283l15.101-8.64zm-14.676 8.887v16.789l14.676 8.397 14.7-8.389-.024-16.797-14.676-8.397-14.676 8.397zM119.323 51.109l15.101 8.64.024 17.292-15.125 8.631-15.102-8.64V59.75l15.102-8.64zm0 .49l-14.676 8.397v16.79l14.676 8.396 14.7-8.388-.024-16.798-14.676-8.396zm0 101.729l15.101 8.64.024 17.291-15.125 8.632-15.102-8.64v-17.284l15.102-8.64zm-14.676 8.887v16.789l14.676 8.396 14.7-8.388-.024-16.797-14.676-8.397-14.676 8.397zm14.676-59.997l15.101 8.64.024 17.292-15.125 8.632-15.102-8.64v-17.284l15.102-8.64zm-14.676 8.887v16.79l14.676 8.396 14.7-8.388-.024-16.797-14.676-8.397-14.676 8.396zm14.676 93.332l15.101 8.64.024 17.292L119.323 239l-15.102-8.64v-17.283l15.102-8.64zm-14.676 8.887v16.789l14.676 8.397 14.7-8.389-.024-16.797-14.676-8.397-14.676 8.397zM297.988 51.109l15.101 8.64.024 17.292-15.125 8.631-15.101-8.64V59.75l15.101-8.64zm-14.676 8.887v16.79l14.676 8.396 14.7-8.388-.024-16.798-14.676-8.396-14.676 8.396zm14.676 93.332l15.101 8.64.024 17.291-15.125 8.632-15.101-8.64v-17.284l15.101-8.64zm-14.676 8.887v16.789l14.676 8.396 14.7-8.388-.024-16.797-14.676-8.397-14.676 8.397zm14.676-59.997l15.101 8.64.024 17.292-15.125 8.632-15.101-8.64v-17.284l15.101-8.64zm-14.676 8.887v16.79l14.676 8.396 14.7-8.388-.024-16.797-14.676-8.397-14.676 8.396zm14.676 93.332l15.101 8.64.024 17.292L297.988 239l-15.101-8.64v-17.283l15.101-8.64zm-14.676 8.887v16.789l14.676 8.397 14.7-8.389-.024-16.797-14.676-8.397-14.676 8.397zM476.653 51.109l15.102 8.64.024 17.292-15.126 8.631-15.101-8.64V59.75l15.101-8.64zm0 .49l-14.676 8.397v16.79l14.677 8.396 14.699-8.388-.023-16.798-14.677-8.396zm0 101.729l15.102 8.64.024 17.291-15.126 8.632-15.101-8.64v-17.284l15.101-8.64zm-14.676 8.887v16.789l14.677 8.396 14.699-8.388-.023-16.797-14.677-8.397-14.676 8.397zm14.676-59.997l15.102 8.64.024 17.292-15.126 8.632-15.101-8.64v-17.284l15.101-8.64zm-14.676 8.887v16.79l14.677 8.396 14.699-8.388-.023-16.797-14.677-8.397-14.676 8.396zm14.676 93.332l15.102 8.64.024 17.292L476.653 239l-15.101-8.64v-17.283l15.101-8.64zm-14.676 8.887v16.789l14.677 8.397 14.699-8.389-.023-16.797-14.677-8.397-14.676 8.397zM59.767 51.109l15.102 8.64.024 17.292-15.125 8.631-15.102-8.64V59.75l15.102-8.64zm-14.675 8.887v16.79l14.676 8.396 14.7-8.388-.024-16.798L59.768 51.6l-14.676 8.396zm14.676 93.332l15.101 8.64.024 17.291-15.125 8.632-15.102-8.64v-17.284l15.102-8.64zm-14.676 8.887v16.789l14.676 8.396 14.7-8.388-.024-16.797-14.676-8.397-14.676 8.397zm14.676-59.997l15.101 8.64.024 17.292-15.125 8.632-15.102-8.64v-17.284l15.102-8.64zm-14.676 8.887v16.79l14.676 8.396 14.7-8.388-.024-16.797-14.676-8.397-14.676 8.396zm14.676 93.332l15.101 8.64.024 17.292L59.768 239l-15.102-8.64v-17.283l15.102-8.64zm-14.676 8.887v16.789l14.676 8.397 14.7-8.389-.024-16.797-14.676-8.397-14.676 8.397zM238.433 51.109l15.101 8.64.024 17.292-15.125 8.631-15.101-8.64V59.75l15.101-8.64zm-14.676 8.887v16.79l14.676 8.396 14.7-8.388-.024-16.798-14.676-8.396-14.676 8.396zm14.676 93.332l15.101 8.64.024 17.291-15.125 8.632-15.101-8.64v-17.284l15.101-8.64zm-14.676 8.887v16.789l14.676 8.396 14.7-8.388-.024-16.797-14.676-8.397-14.676 8.397zm14.676-59.997l15.101 8.64.024 17.292-15.125 8.632-15.101-8.64v-17.284l15.101-8.64zm-14.676 8.887v16.79l14.676 8.396 14.7-8.388-.024-16.797-14.676-8.397-14.676 8.396zm14.676 93.332l15.101 8.64.024 17.292L238.433 239l-15.101-8.64v-17.283l15.101-8.64zm-14.676 8.887v16.789l14.676 8.397 14.7-8.389-.024-16.797-14.676-8.397-14.676 8.397zM417.098 51.109l15.102 8.64.023 17.292-15.125 8.631-15.101-8.64V59.75l15.101-8.64zm-14.676 8.887v16.79l14.677 8.396 14.699-8.388-.023-16.798-14.677-8.396-14.676 8.396zm14.676 93.332l15.102 8.64.023 17.291-15.125 8.632-15.101-8.64v-17.284l15.101-8.64zm-14.676 8.887v16.789L417.1 187.4l14.699-8.388-.023-16.797-14.677-8.397-14.676 8.397zm14.676-59.997l15.102 8.64.023 17.292-15.125 8.632-15.101-8.64v-17.284l15.101-8.64zm-14.676 8.887v16.79l14.677 8.396 14.699-8.388-.023-16.797-14.677-8.397-14.676 8.396zm14.676 93.332l15.102 8.64.023 17.292L417.098 239l-15.101-8.64v-17.283l15.101-8.64zm-14.676 8.887v16.789l14.677 8.397 14.699-8.389-.023-16.797-14.677-8.397-14.676 8.397zm-268.21-187.77l15.101 8.64.024 17.292-15.125 8.632-15.102-8.64V34.194l15.102-8.64zm-14.676 8.888V51.23l14.676 8.396 14.699-8.388-.023-16.797-14.676-8.397-14.676 8.397zm14.676 93.331l15.101 8.64.024 17.292-15.125 8.631-15.102-8.64v-17.283l15.102-8.64zm-14.676 8.887v16.79l14.676 8.396 14.699-8.388-.023-16.798-14.676-8.396-14.676 8.396zm14.676-59.996l15.101 8.64.024 17.292-15.125 8.631-15.102-8.64V85.304l15.102-8.64zm-14.676 8.887v16.79l14.676 8.396 14.699-8.389-.023-16.797-14.676-8.397-14.676 8.397zm14.676 93.331l15.101 8.64.024 17.292-15.125 8.631-15.102-8.64v-17.283l15.102-8.64zm-14.676 8.887v16.79l14.676 8.396 14.699-8.388-.023-16.798-14.676-8.396-14.676 8.396zM312.877 25.555l15.101 8.64.024 17.291-15.125 8.632-15.102-8.64V34.194l15.102-8.64zm-14.676 8.887V51.23l14.676 8.396 14.7-8.388-.024-16.797-14.676-8.397-14.676 8.397zm14.676 93.331l15.101 8.64.024 17.292-15.125 8.631-15.102-8.64v-17.283l15.102-8.64zm-14.676 8.887v16.79l14.676 8.396 14.7-8.388-.024-16.798-14.676-8.396-14.676 8.396zm14.676-59.996l15.101 8.64.024 17.292-15.125 8.631-15.102-8.64V85.304l15.102-8.64zm-14.676 8.887v16.79l14.676 8.396 14.7-8.389-.024-16.797-14.676-8.397-14.676 8.397zm14.676 93.331l15.101 8.64.024 17.292-15.125 8.631-15.102-8.64v-17.283l15.102-8.64zm-14.676 8.887v16.79l14.676 8.396 14.7-8.388-.024-16.798-14.676-8.396-14.676 8.396zM491.542 25.555l15.102 8.64.023 17.291-15.125 8.632-15.101-8.64V34.194l15.101-8.64zm0 .49l-14.676 8.397V51.23l14.676 8.396 14.7-8.388-.023-16.797-14.677-8.397zm0 101.728l15.102 8.64.023 17.292-15.125 8.631-15.101-8.64v-17.283l15.101-8.64zm-14.676 8.887v16.79l14.676 8.396 14.7-8.388-.023-16.798-14.677-8.396-14.676 8.396zm14.676-59.996l15.102 8.64.023 17.292-15.125 8.631-15.101-8.64V85.304l15.101-8.64zm-14.676 8.887v16.79l14.676 8.396 14.7-8.389-.023-16.797-14.677-8.397-14.676 8.397zm14.676 93.331l15.102 8.64.023 17.292-15.125 8.631-15.101-8.64v-17.283l15.101-8.64zm-14.676 8.887v16.79l14.676 8.396 14.7-8.388-.023-16.798-14.677-8.396-14.676 8.396zM74.656 25.555l15.102 8.64.024 17.291-15.126 8.632-15.1-8.64V34.194l15.1-8.64zM59.98 34.442V51.23l14.677 8.396 14.699-8.388-.023-16.797-14.676-8.397-14.677 8.397zm14.677 93.331l15.1 8.64.025 17.292-15.126 8.631-15.1-8.64v-17.283l15.1-8.64zM59.98 136.66v16.79l14.677 8.396 14.699-8.388-.023-16.798-14.676-8.396-14.677 8.396zm14.677-59.996l15.1 8.64.025 17.292-15.126 8.631-15.1-8.64V85.304l15.1-8.64zM59.98 85.55v16.79l14.677 8.396 14.699-8.389-.023-16.797-14.676-8.397-14.677 8.397zm14.677 93.331l15.1 8.64.025 17.292-15.126 8.631-15.1-8.64v-17.283l15.1-8.64zM59.98 187.77v16.79l14.677 8.396 14.699-8.388-.023-16.798-14.676-8.396-14.677 8.396zM253.322 25.555l15.101 8.64.024 17.291-15.125 8.632-15.102-8.64V34.194l15.102-8.64zm-14.676 8.887V51.23l14.676 8.396 14.7-8.388-.024-16.797-14.676-8.397-14.676 8.397zm14.676 93.331l15.101 8.64.024 17.292-15.125 8.631-15.102-8.64v-17.283l15.102-8.64zm-14.676 8.887v16.79l14.676 8.396 14.7-8.388-.024-16.798-14.676-8.396-14.676 8.396zm14.676-59.996l15.101 8.64.024 17.292-15.125 8.631-15.102-8.64V85.304l15.102-8.64zm-14.676 8.887v16.79l14.676 8.396 14.7-8.389-.024-16.797-14.676-8.397-14.676 8.397zm14.676 93.331l15.101 8.64.024 17.292-15.125 8.631-15.102-8.64v-17.283l15.102-8.64zm-14.676 8.887v16.79l14.676 8.396 14.7-8.388-.024-16.798-14.676-8.396-14.676 8.396zM431.987 25.555l15.101 8.64.024 17.291-15.125 8.632-15.101-8.64V34.194l15.101-8.64zm-14.676 8.887V51.23l14.676 8.396 14.7-8.388-.024-16.797-14.676-8.397-14.676 8.397zm14.676 93.331l15.101 8.64.024 17.292-15.125 8.631-15.101-8.64v-17.283l15.101-8.64zm-14.676 8.887v16.79l14.676 8.396 14.7-8.388-.024-16.798-14.676-8.396-14.676 8.396zm14.676-59.996l15.101 8.64.024 17.292-15.125 8.631-15.101-8.64V85.304l15.101-8.64zm-14.676 8.887v16.79l14.676 8.396 14.7-8.389-.024-16.797-14.676-8.397-14.676 8.397zm14.676 93.331l15.101 8.64.024 17.292-15.125 8.631-15.101-8.64v-17.283l15.101-8.64zm-14.676 8.887v16.79l14.676 8.396 14.7-8.388-.024-16.798-14.676-8.396-14.676 8.396zM15.101 25.555l15.102 8.64.024 17.291L15.1 60.118 0 51.478V34.194l15.101-8.64zM.425 34.442V51.23l14.677 8.396L29.8 51.24l-.023-16.797L15.1 26.045.425 34.442zm14.676 93.331l15.102 8.64.024 17.292-15.126 8.631L0 153.696v-17.283l15.101-8.64zM.425 136.66v16.79l14.677 8.396 14.699-8.388-.023-16.798-14.677-8.396L.425 136.66zm14.676-59.996l15.102 8.64.024 17.292-15.126 8.631L0 102.587V85.304l15.101-8.64zM.425 85.55v16.79l14.677 8.396 14.699-8.389-.023-16.797L15.1 77.154.425 85.551zm14.676 93.331l15.102 8.64.024 17.292-15.126 8.631L0 204.805v-17.283l15.101-8.64zM.425 187.77v16.79l14.677 8.396 14.699-8.388-.023-16.798-14.677-8.396-14.676 8.396zM193.767 25.555l15.101 8.64.024 17.291-15.125 8.632-15.102-8.64V34.194l15.102-8.64zm-14.676 8.887V51.23l14.676 8.396 14.7-8.388-.024-16.797-14.676-8.397-14.676 8.397zm14.676 93.331l15.101 8.64.024 17.292-15.125 8.631-15.102-8.64v-17.283l15.102-8.64zm-14.676 8.887v16.79l14.676 8.396 14.7-8.388-.024-16.798-14.676-8.396-14.676 8.396zm14.676-59.996l15.101 8.64.024 17.292-15.125 8.631-15.102-8.64V85.304l15.102-8.64zM179.09 85.55v16.79l14.676 8.396 14.7-8.389-.024-16.797-14.676-8.397-14.676 8.397zm14.676 93.331l15.101 8.64.024 17.292-15.125 8.631-15.102-8.64v-17.283l15.102-8.64zm-14.676 8.887v16.79l14.676 8.396 14.7-8.388-.024-16.798-14.676-8.396-14.676 8.396zM372.432 25.555l15.101 8.64.024 17.291-15.125 8.632-15.101-8.64V34.194l15.101-8.64zm-14.676 8.887V51.23l14.676 8.396 14.7-8.388-.024-16.797-14.676-8.397-14.676 8.397zm14.676 93.331l15.101 8.64.024 17.292-15.125 8.631-15.101-8.64v-17.283l15.101-8.64zm-14.676 8.887v16.79l14.676 8.396 14.7-8.388-.024-16.798-14.676-8.396-14.676 8.396zm14.676-59.996l15.101 8.64.024 17.292-15.125 8.631-15.101-8.64V85.304l15.101-8.64zm-14.676 8.887v16.79l14.676 8.396 14.7-8.389-.024-16.797-14.676-8.397-14.676 8.397zm14.676 93.331l15.101 8.64.024 17.292-15.125 8.631-15.101-8.64v-17.283l15.101-8.64zm-14.676 8.887v16.79l14.676 8.396 14.7-8.388-.024-16.798-14.676-8.396-14.676 8.396zM551.097 25.555l15.102 8.64.023 17.291-15.125 8.632-15.101-8.64V34.194l15.101-8.64zm-14.676 8.887V51.23l14.676 8.396 14.7-8.388-.023-16.797-14.677-8.397-14.676 8.397zm14.676 93.331l15.102 8.64.023 17.292-15.125 8.631-15.101-8.64v-17.283l15.101-8.64zm-14.676 8.887v16.79l14.676 8.396 14.7-8.388-.023-16.798-14.677-8.396-14.676 8.396zm14.676-59.996l15.102 8.64.023 17.292-15.125 8.631-15.101-8.64V85.304l15.101-8.64zm-14.676 8.887v16.79l14.676 8.396 14.7-8.389-.023-16.797-14.677-8.397-14.676 8.397zm14.676 93.331l15.102 8.64.023 17.292-15.125 8.631-15.101-8.64v-17.283l15.101-8.64zm-14.676 8.887v16.79l14.676 8.396 14.7-8.388-.023-16.798-14.677-8.396-14.676 8.396zm44.454-162.214l15.101 8.64.024 17.291-15.125 8.632-15.102-8.64V34.194l15.102-8.64zm-14.676 8.887V51.23l14.676 8.396 14.7-8.388-.024-16.797-14.676-8.397-14.676 8.397zm14.676 93.331l15.101 8.64.024 17.292-15.125 8.631-15.102-8.64v-17.283l15.102-8.64zm-14.676 8.887v16.79l14.676 8.396 14.7-8.388-.024-16.798-14.676-8.396-14.676 8.396zm14.676-59.996l15.101 8.64.024 17.292-15.125 8.631-15.102-8.64V85.304l15.102-8.64zm-14.676 8.887v16.79l14.676 8.396 14.7-8.389-.024-16.797-14.676-8.397-14.676 8.397zm14.676 93.331l15.101 8.64.024 17.292-15.125 8.631-15.102-8.64v-17.283l15.102-8.64zm-14.676 8.887v16.79l14.676 8.396 14.7-8.388-.024-16.798-14.676-8.396-14.676 8.396z" transform="translate(0 -16)"/>
</svg>
