<svg xmlns="http://www.w3.org/2000/svg" xmlns:xlink="http://www.w3.org/1999/xlink" width="1280" height="412" viewBox="0 0 1280 412">
    <defs>
        <path id="a" d="M0 0h1280v456H0z"/>
        <radialGradient id="c" cy="35.172%" r="38.256%" fx="50%" fy="35.172%" gradientTransform="matrix(0 -1 1.2553 0 .058 .852)">
            <stop offset="0%" stop-color="#0F4B89"/>
            <stop offset="30.544%" stop-color="#2888E8" stop-opacity=".662"/>
            <stop offset="100%" stop-color="#73A3D4" stop-opacity="0"/>
        </radialGradient>
    </defs>
    <g fill="none" fill-rule="evenodd" transform="translate(0 -14)">
        <mask id="b" fill="#fff">
            <use xlink:href="#a"/>
        </mask>
        <g fill="url(#c)" fill-rule="nonzero" mask="url(#b)" opacity=".475">
            <path d="M325 74.424l35.5 20.286.056 40.6L325 155.576l-35.5-20.286V94.71L325 74.424zM290.5 95.29v39.42l34.5 19.714 34.555-19.695-.055-39.439L325 75.576 290.5 95.29zM325 314.424l35.5 20.286.056 40.6L325 395.576l-35.5-20.286v-40.58l35.5-20.286zm-34.5 20.866v39.42l34.5 19.714 34.555-19.695-.055-39.439-34.5-19.714-34.5 19.714zM325 194.424l35.5 20.286.056 40.6L325 275.576l-35.5-20.286v-40.58l35.5-20.286zm-34.5 20.866v39.42l34.5 19.714 34.555-19.695-.055-39.439-34.5-19.714-34.5 19.714zM325 434.424l35.5 20.286.056 40.6L325 515.576l-35.5-20.286v-40.58l35.5-20.286zm-34.5 20.866v39.42l34.5 19.714 34.555-19.695-.055-39.439-34.5-19.714-34.5 19.714zM745 74.424l35.5 20.286.056 40.6L745 155.576l-35.5-20.286V94.71L745 74.424zM710.5 95.29v39.42l34.5 19.714 34.555-19.695-.055-39.439L745 75.576 710.5 95.29zM745 314.424l35.5 20.286.056 40.6L745 395.576l-35.5-20.286v-40.58l35.5-20.286zm-34.5 20.866v39.42l34.5 19.714 34.555-19.695-.055-39.439-34.5-19.714-34.5 19.714zM745 194.424l35.5 20.286.056 40.6L745 275.576l-35.5-20.286v-40.58l35.5-20.286zm-34.5 20.866v39.42l34.5 19.714 34.555-19.695-.055-39.439-34.5-19.714-34.5 19.714zM745 434.424l35.5 20.286.056 40.6L745 515.576l-35.5-20.286v-40.58l35.5-20.286zm-34.5 20.866v39.42l34.5 19.714 34.555-19.695-.055-39.439-34.5-19.714-34.5 19.714zM1165 74.424l35.5 20.286.056 40.6L1165 155.576l-35.5-20.286V94.71l35.5-20.286zm-34.5 20.866v39.42l34.5 19.714 34.555-19.695-.055-39.439-34.5-19.714-34.5 19.714zm34.5 219.134l35.5 20.286.056 40.6L1165 395.576l-35.5-20.286v-40.58l35.5-20.286zm-34.5 20.866v39.42l34.5 19.714 34.555-19.695-.055-39.439-34.5-19.714-34.5 19.714zm34.5-140.866l35.5 20.286.056 40.6L1165 275.576l-35.5-20.286v-40.58l35.5-20.286zm-34.5 20.866v39.42l34.5 19.714 34.555-19.695-.055-39.439-34.5-19.714-34.5 19.714zm34.5 219.134l35.5 20.286.056 40.6L1165 515.576l-35.5-20.286v-40.58l35.5-20.286zm-34.5 20.866v39.42l34.5 19.714 34.555-19.695-.055-39.439-34.5-19.714-34.5 19.714zM185 74.424l35.5 20.286.056 40.6L185 155.576l-35.5-20.286V94.71L185 74.424zm0 1.152L150.5 95.29v39.42l34.5 19.714 34.555-19.695-.055-39.439L185 75.576zm0 238.848l35.5 20.286.056 40.6L185 395.576l-35.5-20.286v-40.58l35.5-20.286zm-34.5 20.866v39.42l34.5 19.714 34.555-19.695-.055-39.439-34.5-19.714-34.5 19.714zM185 194.424l35.5 20.286.056 40.6L185 275.576l-35.5-20.286v-40.58l35.5-20.286zm-34.5 20.866v39.42l34.5 19.714 34.555-19.695-.055-39.439-34.5-19.714-34.5 19.714zM185 434.424l35.5 20.286.056 40.6L185 515.576l-35.5-20.286v-40.58l35.5-20.286zm-34.5 20.866v39.42l34.5 19.714 34.555-19.695-.055-39.439-34.5-19.714-34.5 19.714zM605 74.424l35.5 20.286.056 40.6L605 155.576l-35.5-20.286V94.71L605 74.424zM570.5 95.29v39.42l34.5 19.714 34.555-19.695-.055-39.439L605 75.576 570.5 95.29zM605 314.424l35.5 20.286.056 40.6L605 395.576l-35.5-20.286v-40.58l35.5-20.286zm-34.5 20.866v39.42l34.5 19.714 34.555-19.695-.055-39.439-34.5-19.714-34.5 19.714zM605 194.424l35.5 20.286.056 40.6L605 275.576l-35.5-20.286v-40.58l35.5-20.286zm-34.5 20.866v39.42l34.5 19.714 34.555-19.695-.055-39.439-34.5-19.714-34.5 19.714zM605 434.424l35.5 20.286.056 40.6L605 515.576l-35.5-20.286v-40.58l35.5-20.286zm-34.5 20.866v39.42l34.5 19.714 34.555-19.695-.055-39.439-34.5-19.714-34.5 19.714zM1025 74.424l35.5 20.286.056 40.6L1025 155.576l-35.5-20.286V94.71l35.5-20.286zM990.5 95.29v39.42l34.5 19.714 34.555-19.695-.055-39.439-34.5-19.714-34.5 19.714zm34.5 219.134l35.5 20.286.056 40.6L1025 395.576l-35.5-20.286v-40.58l35.5-20.286zm-34.5 20.866v39.42l34.5 19.714 34.555-19.695-.055-39.439-34.5-19.714-34.5 19.714zm34.5-140.866l35.5 20.286.056 40.6L1025 275.576l-35.5-20.286v-40.58l35.5-20.286zm-34.5 20.866v39.42l34.5 19.714 34.555-19.695-.055-39.439-34.5-19.714-34.5 19.714zm34.5 219.134l35.5 20.286.056 40.6L1025 515.576l-35.5-20.286v-40.58l35.5-20.286zm-34.5 20.866v39.42l34.5 19.714 34.555-19.695-.055-39.439-34.5-19.714-34.5 19.714zM45 74.424L80.5 94.71l.056 40.6L45 155.576 9.5 135.29V94.71L45 74.424zM10.5 95.29v39.42L45 154.424l34.555-19.695L79.5 95.29 45 75.576 10.5 95.29zM45 314.424l35.5 20.286.056 40.6L45 395.576 9.5 375.29v-40.58L45 314.424zM10.5 335.29v39.42L45 394.424l34.555-19.695-.055-39.439L45 315.576 10.5 335.29zM45 194.424l35.5 20.286.056 40.6L45 275.576 9.5 255.29v-40.58L45 194.424zM10.5 215.29v39.42L45 274.424l34.555-19.695-.055-39.439L45 195.576 10.5 215.29zM45 434.424l35.5 20.286.056 40.6L45 515.576 9.5 495.29v-40.58L45 434.424zM10.5 455.29v39.42L45 514.424l34.555-19.695-.055-39.439L45 435.576 10.5 455.29zM465 74.424l35.5 20.286.056 40.6L465 155.576l-35.5-20.286V94.71L465 74.424zM430.5 95.29v39.42l34.5 19.714 34.555-19.695-.055-39.439L465 75.576 430.5 95.29zM465 314.424l35.5 20.286.056 40.6L465 395.576l-35.5-20.286v-40.58l35.5-20.286zm-34.5 20.866v39.42l34.5 19.714 34.555-19.695-.055-39.439-34.5-19.714-34.5 19.714zM465 194.424l35.5 20.286.056 40.6L465 275.576l-35.5-20.286v-40.58l35.5-20.286zm-34.5 20.866v39.42l34.5 19.714 34.555-19.695-.055-39.439-34.5-19.714-34.5 19.714zM465 434.424l35.5 20.286.056 40.6L465 515.576l-35.5-20.286v-40.58l35.5-20.286zm-34.5 20.866v39.42l34.5 19.714 34.555-19.695-.055-39.439-34.5-19.714-34.5 19.714zM885 74.424l35.5 20.286.056 40.6L885 155.576l-35.5-20.286V94.71L885 74.424zM850.5 95.29v39.42l34.5 19.714 34.555-19.695-.055-39.439L885 75.576 850.5 95.29zM885 314.424l35.5 20.286.056 40.6L885 395.576l-35.5-20.286v-40.58l35.5-20.286zm-34.5 20.866v39.42l34.5 19.714 34.555-19.695-.055-39.439-34.5-19.714-34.5 19.714zM885 194.424l35.5 20.286.056 40.6L885 275.576l-35.5-20.286v-40.58l35.5-20.286zm-34.5 20.866v39.42l34.5 19.714 34.555-19.695-.055-39.439-34.5-19.714-34.5 19.714zM885 434.424l35.5 20.286.056 40.6L885 515.576l-35.5-20.286v-40.58l35.5-20.286zm-34.5 20.866v39.42l34.5 19.714 34.555-19.695-.055-39.439-34.5-19.714-34.5 19.714zM290 14.424l35.5 20.286.056 40.6L290 95.576 254.5 75.29V34.71L290 14.424zM255.5 35.29v39.42L290 94.424l34.555-19.695-.055-39.439L290 15.576 255.5 35.29zM710 14.424l35.5 20.286.056 40.6L710 95.576 674.5 75.29V34.71L710 14.424zM675.5 35.29v39.42L710 94.424l34.555-19.695-.055-39.439L710 15.576 675.5 35.29zM1130 14.424l35.5 20.286.056 40.6L1130 95.576l-35.5-20.286V34.71l35.5-20.286zm-34.5 20.866v39.42l34.5 19.714 34.555-19.695-.055-39.439-34.5-19.714-34.5 19.714zM150 14.424l35.5 20.286.056 40.6L150 95.576 114.5 75.29V34.71L150 14.424zM115.5 35.29v39.42L150 94.424l34.555-19.695-.055-39.439L150 15.576 115.5 35.29zM570 14.424l35.5 20.286.056 40.6L570 95.576 534.5 75.29V34.71L570 14.424zM535.5 35.29v39.42L570 94.424l34.555-19.695-.055-39.439L570 15.576 535.5 35.29zM990 14.424l35.5 20.286.056 40.6L990 95.576 954.5 75.29V34.71L990 14.424zm0 1.152L955.5 35.29v39.42L990 94.424l34.555-19.695-.055-39.439L990 15.576zM10 14.424L45.5 34.71l.056 40.6L10 95.576-25.5 75.29V34.71L10 14.424zm0 1.152L-24.5 35.29v39.42L10 94.424 44.555 74.73 44.5 35.29 10 15.576zm420-1.152l35.5 20.286.056 40.6L430 95.576 394.5 75.29V34.71L430 14.424zM395.5 35.29v39.42L430 94.424l34.555-19.695-.055-39.439L430 15.576 395.5 35.29zM850 14.424l35.5 20.286.056 40.6L850 95.576 814.5 75.29V34.71L850 14.424zM815.5 35.29v39.42L850 94.424l34.555-19.695-.055-39.439L850 15.576 815.5 35.29zM360 14.424l35.5 20.286.056 40.6L360 95.576 324.5 75.29V34.71L360 14.424zM325.5 35.29v39.42L360 94.424l34.555-19.695-.055-39.439L360 15.576 325.5 35.29zM780 14.424l35.5 20.286.056 40.6L780 95.576 744.5 75.29V34.71L780 14.424zM745.5 35.29v39.42L780 94.424l34.555-19.695-.055-39.439L780 15.576 745.5 35.29zM1200 14.424l35.5 20.286.056 40.6L1200 95.576l-35.5-20.286V34.71l35.5-20.286zm-34.5 20.866v39.42l34.5 19.714 34.555-19.695-.055-39.439-34.5-19.714-34.5 19.714zM1270 14.424l35.5 20.286.056 40.6L1270 95.576l-35.5-20.286V34.71l35.5-20.286zm-34.5 20.866v39.42l34.5 19.714 34.555-19.695-.055-39.439-34.5-19.714-34.5 19.714zM220 14.424l35.5 20.286.056 40.6L220 95.576 184.5 75.29V34.71L220 14.424zm0 1.152L185.5 35.29v39.42L220 94.424l34.555-19.695-.055-39.439L220 15.576zm420-1.152l35.5 20.286.056 40.6L640 95.576 604.5 75.29V34.71L640 14.424zM605.5 35.29v39.42L640 94.424l34.555-19.695-.055-39.439L640 15.576 605.5 35.29zM1060 14.424l35.5 20.286.056 40.6L1060 95.576l-35.5-20.286V34.71l35.5-20.286zm0 1.152l-34.5 19.714v39.42l34.5 19.714 34.555-19.695-.055-39.439-34.5-19.714zM80 14.424l35.5 20.286.056 40.6L80 95.576 44.5 75.29V34.71L80 14.424zM45.5 35.29v39.42L80 94.424l34.555-19.695-.055-39.439L80 15.576 45.5 35.29zM500 14.424l35.5 20.286.056 40.6L500 95.576 464.5 75.29V34.71L500 14.424zm0 1.152L465.5 35.29v39.42L500 94.424l34.555-19.695-.055-39.439L500 15.576zm420-1.152l35.5 20.286.056 40.6L920 95.576 884.5 75.29V34.71L920 14.424zM885.5 35.29v39.42L920 94.424l34.555-19.695-.055-39.439L920 15.576 885.5 35.29zM290 134.424l35.5 20.286.056 40.6L290 215.576l-35.5-20.286v-40.58l35.5-20.286zm-34.5 20.866v39.42l34.5 19.714 34.555-19.695-.055-39.439-34.5-19.714-34.5 19.714zM290 374.424l35.5 20.286.056 40.6L290 455.576l-35.5-20.286v-40.58l35.5-20.286zm-34.5 20.866v39.42l34.5 19.714 34.555-19.695-.055-39.439-34.5-19.714-34.5 19.714zM290 254.424l35.5 20.286.056 40.6L290 335.576l-35.5-20.286v-40.58l35.5-20.286zm-34.5 20.866v39.42l34.5 19.714 34.555-19.695-.055-39.439-34.5-19.714-34.5 19.714zM290 494.424l35.5 20.286.056 40.6L290 575.576l-35.5-20.286v-40.58l35.5-20.286zm-34.5 20.866v39.42l34.5 19.714 34.555-19.695-.055-39.439-34.5-19.714-34.5 19.714zM710 134.424l35.5 20.286.056 40.6L710 215.576l-35.5-20.286v-40.58l35.5-20.286zm-34.5 20.866v39.42l34.5 19.714 34.555-19.695-.055-39.439-34.5-19.714-34.5 19.714zM710 374.424l35.5 20.286.056 40.6L710 455.576l-35.5-20.286v-40.58l35.5-20.286zm-34.5 20.866v39.42l34.5 19.714 34.555-19.695-.055-39.439-34.5-19.714-34.5 19.714zM710 254.424l35.5 20.286.056 40.6L710 335.576l-35.5-20.286v-40.58l35.5-20.286zm-34.5 20.866v39.42l34.5 19.714 34.555-19.695-.055-39.439-34.5-19.714-34.5 19.714zM710 494.424l35.5 20.286.056 40.6L710 575.576l-35.5-20.286v-40.58l35.5-20.286zm-34.5 20.866v39.42l34.5 19.714 34.555-19.695-.055-39.439-34.5-19.714-34.5 19.714zM1130 134.424l35.5 20.286.056 40.6L1130 215.576l-35.5-20.286v-40.58l35.5-20.286zm0 1.152l-34.5 19.714v39.42l34.5 19.714 34.555-19.695-.055-39.439-34.5-19.714zm0 238.848l35.5 20.286.056 40.6L1130 455.576l-35.5-20.286v-40.58l35.5-20.286zm-34.5 20.866v39.42l34.5 19.714 34.555-19.695-.055-39.439-34.5-19.714-34.5 19.714zm34.5-140.866l35.5 20.286.056 40.6L1130 335.576l-35.5-20.286v-40.58l35.5-20.286zm-34.5 20.866v39.42l34.5 19.714 34.555-19.695-.055-39.439-34.5-19.714-34.5 19.714zm34.5 219.134l35.5 20.286.056 40.6L1130 575.576l-35.5-20.286v-40.58l35.5-20.286zm-34.5 20.866v39.42l34.5 19.714 34.555-19.695-.055-39.439-34.5-19.714-34.5 19.714zM150 134.424l35.5 20.286.056 40.6L150 215.576l-35.5-20.286v-40.58l35.5-20.286zm-34.5 20.866v39.42l34.5 19.714 34.555-19.695-.055-39.439-34.5-19.714-34.5 19.714zM150 374.424l35.5 20.286.056 40.6L150 455.576l-35.5-20.286v-40.58l35.5-20.286zm-34.5 20.866v39.42l34.5 19.714 34.555-19.695-.055-39.439-34.5-19.714-34.5 19.714zM150 254.424l35.5 20.286.056 40.6L150 335.576l-35.5-20.286v-40.58l35.5-20.286zm-34.5 20.866v39.42l34.5 19.714 34.555-19.695-.055-39.439-34.5-19.714-34.5 19.714zM150 494.424l35.5 20.286.056 40.6L150 575.576l-35.5-20.286v-40.58l35.5-20.286zm-34.5 20.866v39.42l34.5 19.714 34.555-19.695-.055-39.439-34.5-19.714-34.5 19.714zM570 134.424l35.5 20.286.056 40.6L570 215.576l-35.5-20.286v-40.58l35.5-20.286zm-34.5 20.866v39.42l34.5 19.714 34.555-19.695-.055-39.439-34.5-19.714-34.5 19.714zM570 374.424l35.5 20.286.056 40.6L570 455.576l-35.5-20.286v-40.58l35.5-20.286zm-34.5 20.866v39.42l34.5 19.714 34.555-19.695-.055-39.439-34.5-19.714-34.5 19.714zM570 254.424l35.5 20.286.056 40.6L570 335.576l-35.5-20.286v-40.58l35.5-20.286zm-34.5 20.866v39.42l34.5 19.714 34.555-19.695-.055-39.439-34.5-19.714-34.5 19.714zM570 494.424l35.5 20.286.056 40.6L570 575.576l-35.5-20.286v-40.58l35.5-20.286zm-34.5 20.866v39.42l34.5 19.714 34.555-19.695-.055-39.439-34.5-19.714-34.5 19.714zM990 134.424l35.5 20.286.056 40.6L990 215.576l-35.5-20.286v-40.58l35.5-20.286zm-34.5 20.866v39.42l34.5 19.714 34.555-19.695-.055-39.439-34.5-19.714-34.5 19.714zM990 374.424l35.5 20.286.056 40.6L990 455.576l-35.5-20.286v-40.58l35.5-20.286zm-34.5 20.866v39.42l34.5 19.714 34.555-19.695-.055-39.439-34.5-19.714-34.5 19.714zM990 254.424l35.5 20.286.056 40.6L990 335.576l-35.5-20.286v-40.58l35.5-20.286zm-34.5 20.866v39.42l34.5 19.714 34.555-19.695-.055-39.439-34.5-19.714-34.5 19.714zM990 494.424l35.5 20.286.056 40.6L990 575.576l-35.5-20.286v-40.58l35.5-20.286zm-34.5 20.866v39.42l34.5 19.714 34.555-19.695-.055-39.439-34.5-19.714-34.5 19.714zM10 134.424l35.5 20.286.056 40.6L10 215.576l-35.5-20.286v-40.58L10 134.424zm-34.5 20.866v39.42L10 214.424l34.555-19.695-.055-39.439L10 135.576l-34.5 19.714zM10 374.424l35.5 20.286.056 40.6L10 455.576l-35.5-20.286v-40.58L10 374.424zm-34.5 20.866v39.42L10 454.424l34.555-19.695-.055-39.439L10 375.576l-34.5 19.714zM10 254.424l35.5 20.286.056 40.6L10 335.576l-35.5-20.286v-40.58L10 254.424zm-34.5 20.866v39.42L10 334.424l34.555-19.695-.055-39.439L10 255.576l-34.5 19.714zM10 494.424l35.5 20.286.056 40.6L10 575.576l-35.5-20.286v-40.58L10 494.424zm-34.5 20.866v39.42L10 574.424l34.555-19.695-.055-39.439L10 495.576l-34.5 19.714zM430 134.424l35.5 20.286.056 40.6L430 215.576l-35.5-20.286v-40.58l35.5-20.286zm0 1.152l-34.5 19.714v39.42l34.5 19.714 34.555-19.695-.055-39.439-34.5-19.714zm0 238.848l35.5 20.286.056 40.6L430 455.576l-35.5-20.286v-40.58l35.5-20.286zm-34.5 20.866v39.42l34.5 19.714 34.555-19.695-.055-39.439-34.5-19.714-34.5 19.714zM430 254.424l35.5 20.286.056 40.6L430 335.576l-35.5-20.286v-40.58l35.5-20.286zm-34.5 20.866v39.42l34.5 19.714 34.555-19.695-.055-39.439-34.5-19.714-34.5 19.714zM430 494.424l35.5 20.286.056 40.6L430 575.576l-35.5-20.286v-40.58l35.5-20.286zm-34.5 20.866v39.42l34.5 19.714 34.555-19.695-.055-39.439-34.5-19.714-34.5 19.714zM850 134.424l35.5 20.286.056 40.6L850 215.576l-35.5-20.286v-40.58l35.5-20.286zm-34.5 20.866v39.42l34.5 19.714 34.555-19.695-.055-39.439-34.5-19.714-34.5 19.714zM850 374.424l35.5 20.286.056 40.6L850 455.576l-35.5-20.286v-40.58l35.5-20.286zm-34.5 20.866v39.42l34.5 19.714 34.555-19.695-.055-39.439-34.5-19.714-34.5 19.714zM850 254.424l35.5 20.286.056 40.6L850 335.576l-35.5-20.286v-40.58l35.5-20.286zm-34.5 20.866v39.42l34.5 19.714 34.555-19.695-.055-39.439-34.5-19.714-34.5 19.714zM850 494.424l35.5 20.286.056 40.6L850 575.576l-35.5-20.286v-40.58l35.5-20.286zm-34.5 20.866v39.42l34.5 19.714 34.555-19.695-.055-39.439-34.5-19.714-34.5 19.714zM360 134.424l35.5 20.286.056 40.6L360 215.576l-35.5-20.286v-40.58l35.5-20.286zm-34.5 20.866v39.42l34.5 19.714 34.555-19.695-.055-39.439-34.5-19.714-34.5 19.714zM360 374.424l35.5 20.286.056 40.6L360 455.576l-35.5-20.286v-40.58l35.5-20.286zm-34.5 20.866v39.42l34.5 19.714 34.555-19.695-.055-39.439-34.5-19.714-34.5 19.714zM360 254.424l35.5 20.286.056 40.6L360 335.576l-35.5-20.286v-40.58l35.5-20.286zm-34.5 20.866v39.42l34.5 19.714 34.555-19.695-.055-39.439-34.5-19.714-34.5 19.714zM360 494.424l35.5 20.286.056 40.6L360 575.576l-35.5-20.286v-40.58l35.5-20.286zm-34.5 20.866v39.42l34.5 19.714 34.555-19.695-.055-39.439-34.5-19.714-34.5 19.714zM780 134.424l35.5 20.286.056 40.6L780 215.576l-35.5-20.286v-40.58l35.5-20.286zm-34.5 20.866v39.42l34.5 19.714 34.555-19.695-.055-39.439-34.5-19.714-34.5 19.714zM780 374.424l35.5 20.286.056 40.6L780 455.576l-35.5-20.286v-40.58l35.5-20.286zm-34.5 20.866v39.42l34.5 19.714 34.555-19.695-.055-39.439-34.5-19.714-34.5 19.714zM780 254.424l35.5 20.286.056 40.6L780 335.576l-35.5-20.286v-40.58l35.5-20.286zm-34.5 20.866v39.42l34.5 19.714 34.555-19.695-.055-39.439-34.5-19.714-34.5 19.714zM780 494.424l35.5 20.286.056 40.6L780 575.576l-35.5-20.286v-40.58l35.5-20.286zm-34.5 20.866v39.42l34.5 19.714 34.555-19.695-.055-39.439-34.5-19.714-34.5 19.714zM1200 134.424l35.5 20.286.056 40.6L1200 215.576l-35.5-20.286v-40.58l35.5-20.286zm-34.5 20.866v39.42l34.5 19.714 34.555-19.695-.055-39.439-34.5-19.714-34.5 19.714zm34.5 219.134l35.5 20.286.056 40.6L1200 455.576l-35.5-20.286v-40.58l35.5-20.286zm-34.5 20.866v39.42l34.5 19.714 34.555-19.695-.055-39.439-34.5-19.714-34.5 19.714zm34.5-140.866l35.5 20.286.056 40.6L1200 335.576l-35.5-20.286v-40.58l35.5-20.286zm-34.5 20.866v39.42l34.5 19.714 34.555-19.695-.055-39.439-34.5-19.714-34.5 19.714zm34.5 219.134l35.5 20.286.056 40.6L1200 575.576l-35.5-20.286v-40.58l35.5-20.286zm-34.5 20.866v39.42l34.5 19.714 34.555-19.695-.055-39.439-34.5-19.714-34.5 19.714zM1270 134.424l35.5 20.286.056 40.6L1270 215.576l-35.5-20.286v-40.58l35.5-20.286zm-34.5 20.866v39.42l34.5 19.714 34.555-19.695-.055-39.439-34.5-19.714-34.5 19.714zm34.5 219.134l35.5 20.286.056 40.6L1270 455.576l-35.5-20.286v-40.58l35.5-20.286zm-34.5 20.866v39.42l34.5 19.714 34.555-19.695-.055-39.439-34.5-19.714-34.5 19.714zm34.5-140.866l35.5 20.286.056 40.6L1270 335.576l-35.5-20.286v-40.58l35.5-20.286zm-34.5 20.866v39.42l34.5 19.714 34.555-19.695-.055-39.439-34.5-19.714-34.5 19.714zm34.5 219.134l35.5 20.286.056 40.6L1270 575.576l-35.5-20.286v-40.58l35.5-20.286zm-34.5 20.866v39.42l34.5 19.714 34.555-19.695-.055-39.439-34.5-19.714-34.5 19.714zM220 134.424l35.5 20.286.056 40.6L220 215.576l-35.5-20.286v-40.58l35.5-20.286zm0 1.152l-34.5 19.714v39.42l34.5 19.714 34.555-19.695-.055-39.439-34.5-19.714zm0 238.848l35.5 20.286.056 40.6L220 455.576l-35.5-20.286v-40.58l35.5-20.286zm-34.5 20.866v39.42l34.5 19.714 34.555-19.695-.055-39.439-34.5-19.714-34.5 19.714zM220 254.424l35.5 20.286.056 40.6L220 335.576l-35.5-20.286v-40.58l35.5-20.286zm-34.5 20.866v39.42l34.5 19.714 34.555-19.695-.055-39.439-34.5-19.714-34.5 19.714zM220 494.424l35.5 20.286.056 40.6L220 575.576l-35.5-20.286v-40.58l35.5-20.286zm-34.5 20.866v39.42l34.5 19.714 34.555-19.695-.055-39.439-34.5-19.714-34.5 19.714zM640 134.424l35.5 20.286.056 40.6L640 215.576l-35.5-20.286v-40.58l35.5-20.286zm-34.5 20.866v39.42l34.5 19.714 34.555-19.695-.055-39.439-34.5-19.714-34.5 19.714zM640 374.424l35.5 20.286.056 40.6L640 455.576l-35.5-20.286v-40.58l35.5-20.286zm-34.5 20.866v39.42l34.5 19.714 34.555-19.695-.055-39.439-34.5-19.714-34.5 19.714zM640 254.424l35.5 20.286.056 40.6L640 335.576l-35.5-20.286v-40.58l35.5-20.286zm-34.5 20.866v39.42l34.5 19.714 34.555-19.695-.055-39.439-34.5-19.714-34.5 19.714zM640 494.424l35.5 20.286.056 40.6L640 575.576l-35.5-20.286v-40.58l35.5-20.286zm-34.5 20.866v39.42l34.5 19.714 34.555-19.695-.055-39.439-34.5-19.714-34.5 19.714zM1060 134.424l35.5 20.286.056 40.6L1060 215.576l-35.5-20.286v-40.58l35.5-20.286zm0 1.152l-34.5 19.714v39.42l34.5 19.714 34.555-19.695-.055-39.439-34.5-19.714zm0 238.848l35.5 20.286.056 40.6L1060 455.576l-35.5-20.286v-40.58l35.5-20.286zm-34.5 20.866v39.42l34.5 19.714 34.555-19.695-.055-39.439-34.5-19.714-34.5 19.714zm34.5-140.866l35.5 20.286.056 40.6L1060 335.576l-35.5-20.286v-40.58l35.5-20.286zm-34.5 20.866v39.42l34.5 19.714 34.555-19.695-.055-39.439-34.5-19.714-34.5 19.714zm34.5 219.134l35.5 20.286.056 40.6L1060 575.576l-35.5-20.286v-40.58l35.5-20.286zm-34.5 20.866v39.42l34.5 19.714 34.555-19.695-.055-39.439-34.5-19.714-34.5 19.714zM80 134.424l35.5 20.286.056 40.6L80 215.576 44.5 195.29v-40.58L80 134.424zM45.5 155.29v39.42L80 214.424l34.555-19.695-.055-39.439L80 135.576 45.5 155.29zM80 374.424l35.5 20.286.056 40.6L80 455.576 44.5 435.29v-40.58L80 374.424zM45.5 395.29v39.42L80 454.424l34.555-19.695-.055-39.439L80 375.576 45.5 395.29zM80 254.424l35.5 20.286.056 40.6L80 335.576 44.5 315.29v-40.58L80 254.424zM45.5 275.29v39.42L80 334.424l34.555-19.695-.055-39.439L80 255.576 45.5 275.29zM80 494.424l35.5 20.286.056 40.6L80 575.576 44.5 555.29v-40.58L80 494.424zM45.5 515.29v39.42L80 574.424l34.555-19.695-.055-39.439L80 495.576 45.5 515.29zM500 134.424l35.5 20.286.056 40.6L500 215.576l-35.5-20.286v-40.58l35.5-20.286zm-34.5 20.866v39.42l34.5 19.714 34.555-19.695-.055-39.439-34.5-19.714-34.5 19.714zM500 374.424l35.5 20.286.056 40.6L500 455.576l-35.5-20.286v-40.58l35.5-20.286zm-34.5 20.866v39.42l34.5 19.714 34.555-19.695-.055-39.439-34.5-19.714-34.5 19.714zM500 254.424l35.5 20.286.056 40.6L500 335.576l-35.5-20.286v-40.58l35.5-20.286zm-34.5 20.866v39.42l34.5 19.714 34.555-19.695-.055-39.439-34.5-19.714-34.5 19.714zM500 494.424l35.5 20.286.056 40.6L500 575.576l-35.5-20.286v-40.58l35.5-20.286zm-34.5 20.866v39.42l34.5 19.714 34.555-19.695-.055-39.439-34.5-19.714-34.5 19.714zM920 134.424l35.5 20.286.056 40.6L920 215.576l-35.5-20.286v-40.58l35.5-20.286zm-34.5 20.866v39.42l34.5 19.714 34.555-19.695-.055-39.439-34.5-19.714-34.5 19.714zM920 374.424l35.5 20.286.056 40.6L920 455.576l-35.5-20.286v-40.58l35.5-20.286zm-34.5 20.866v39.42l34.5 19.714 34.555-19.695-.055-39.439-34.5-19.714-34.5 19.714zM920 254.424l35.5 20.286.056 40.6L920 335.576l-35.5-20.286v-40.58l35.5-20.286zm-34.5 20.866v39.42l34.5 19.714 34.555-19.695-.055-39.439-34.5-19.714-34.5 19.714zM920 494.424l35.5 20.286.056 40.6L920 575.576l-35.5-20.286v-40.58l35.5-20.286zm-34.5 20.866v39.42l34.5 19.714 34.555-19.695-.055-39.439-34.5-19.714-34.5 19.714zM255 74.424l35.5 20.286.056 40.6L255 155.576l-35.5-20.286V94.71L255 74.424zM220.5 95.29v39.42l34.5 19.714 34.555-19.695-.055-39.439L255 75.576 220.5 95.29zM255 314.424l35.5 20.286.056 40.6L255 395.576l-35.5-20.286v-40.58l35.5-20.286zm-34.5 20.866v39.42l34.5 19.714 34.555-19.695-.055-39.439-34.5-19.714-34.5 19.714zM255 194.424l35.5 20.286.056 40.6L255 275.576l-35.5-20.286v-40.58l35.5-20.286zm-34.5 20.866v39.42l34.5 19.714 34.555-19.695-.055-39.439-34.5-19.714-34.5 19.714zM255 434.424l35.5 20.286.056 40.6L255 515.576l-35.5-20.286v-40.58l35.5-20.286zm-34.5 20.866v39.42l34.5 19.714 34.555-19.695-.055-39.439-34.5-19.714-34.5 19.714zM675 74.424l35.5 20.286.056 40.6L675 155.576l-35.5-20.286V94.71L675 74.424zM640.5 95.29v39.42l34.5 19.714 34.555-19.695-.055-39.439L675 75.576 640.5 95.29zM675 314.424l35.5 20.286.056 40.6L675 395.576l-35.5-20.286v-40.58l35.5-20.286zm-34.5 20.866v39.42l34.5 19.714 34.555-19.695-.055-39.439-34.5-19.714-34.5 19.714zM675 194.424l35.5 20.286.056 40.6L675 275.576l-35.5-20.286v-40.58l35.5-20.286zm-34.5 20.866v39.42l34.5 19.714 34.555-19.695-.055-39.439-34.5-19.714-34.5 19.714zM675 434.424l35.5 20.286.056 40.6L675 515.576l-35.5-20.286v-40.58l35.5-20.286zm-34.5 20.866v39.42l34.5 19.714 34.555-19.695-.055-39.439-34.5-19.714-34.5 19.714zM1095 74.424l35.5 20.286.056 40.6L1095 155.576l-35.5-20.286V94.71l35.5-20.286zm0 1.152l-34.5 19.714v39.42l34.5 19.714 34.555-19.695-.055-39.439-34.5-19.714zm0 238.848l35.5 20.286.056 40.6L1095 395.576l-35.5-20.286v-40.58l35.5-20.286zm-34.5 20.866v39.42l34.5 19.714 34.555-19.695-.055-39.439-34.5-19.714-34.5 19.714zm34.5-140.866l35.5 20.286.056 40.6L1095 275.576l-35.5-20.286v-40.58l35.5-20.286zm-34.5 20.866v39.42l34.5 19.714 34.555-19.695-.055-39.439-34.5-19.714-34.5 19.714zm34.5 219.134l35.5 20.286.056 40.6L1095 515.576l-35.5-20.286v-40.58l35.5-20.286zm-34.5 20.866v39.42l34.5 19.714 34.555-19.695-.055-39.439-34.5-19.714-34.5 19.714zM115 74.424l35.5 20.286.056 40.6L115 155.576 79.5 135.29V94.71L115 74.424zM80.5 95.29v39.42l34.5 19.714 34.555-19.695-.055-39.439L115 75.576 80.5 95.29zM115 314.424l35.5 20.286.056 40.6L115 395.576 79.5 375.29v-40.58l35.5-20.286zM80.5 335.29v39.42l34.5 19.714 34.555-19.695-.055-39.439-34.5-19.714-34.5 19.714zM115 194.424l35.5 20.286.056 40.6L115 275.576 79.5 255.29v-40.58l35.5-20.286zM80.5 215.29v39.42l34.5 19.714 34.555-19.695-.055-39.439-34.5-19.714-34.5 19.714zM115 434.424l35.5 20.286.056 40.6L115 515.576 79.5 495.29v-40.58l35.5-20.286zM80.5 455.29v39.42l34.5 19.714 34.555-19.695-.055-39.439-34.5-19.714-34.5 19.714zM535 74.424l35.5 20.286.056 40.6L535 155.576l-35.5-20.286V94.71L535 74.424zM500.5 95.29v39.42l34.5 19.714 34.555-19.695-.055-39.439L535 75.576 500.5 95.29zM535 314.424l35.5 20.286.056 40.6L535 395.576l-35.5-20.286v-40.58l35.5-20.286zm-34.5 20.866v39.42l34.5 19.714 34.555-19.695-.055-39.439-34.5-19.714-34.5 19.714zM535 194.424l35.5 20.286.056 40.6L535 275.576l-35.5-20.286v-40.58l35.5-20.286zm-34.5 20.866v39.42l34.5 19.714 34.555-19.695-.055-39.439-34.5-19.714-34.5 19.714zM535 434.424l35.5 20.286.056 40.6L535 515.576l-35.5-20.286v-40.58l35.5-20.286zm-34.5 20.866v39.42l34.5 19.714 34.555-19.695-.055-39.439-34.5-19.714-34.5 19.714zM955 74.424l35.5 20.286.056 40.6L955 155.576l-35.5-20.286V94.71L955 74.424zM920.5 95.29v39.42l34.5 19.714 34.555-19.695-.055-39.439L955 75.576 920.5 95.29zM955 314.424l35.5 20.286.056 40.6L955 395.576l-35.5-20.286v-40.58l35.5-20.286zm-34.5 20.866v39.42l34.5 19.714 34.555-19.695-.055-39.439-34.5-19.714-34.5 19.714zM955 194.424l35.5 20.286.056 40.6L955 275.576l-35.5-20.286v-40.58l35.5-20.286zm-34.5 20.866v39.42l34.5 19.714 34.555-19.695-.055-39.439-34.5-19.714-34.5 19.714zM955 434.424l35.5 20.286.056 40.6L955 515.576l-35.5-20.286v-40.58l35.5-20.286zm-34.5 20.866v39.42l34.5 19.714 34.555-19.695-.055-39.439-34.5-19.714-34.5 19.714zM-25 74.424L10.5 94.71l.056 40.6L-25 155.576l-35.5-20.286V94.71L-25 74.424zM-59.5 95.29v39.42l34.5 19.714L9.555 134.73 9.5 95.29-25 75.576-59.5 95.29zM-25 314.424l35.5 20.286.056 40.6L-25 395.576l-35.5-20.286v-40.58l35.5-20.286zm-34.5 20.866v39.42l34.5 19.714L9.555 374.73 9.5 335.29-25 315.576l-34.5 19.714zM-25 194.424l35.5 20.286.056 40.6L-25 275.576l-35.5-20.286v-40.58l35.5-20.286zm-34.5 20.866v39.42l34.5 19.714L9.555 254.73 9.5 215.29-25 195.576l-34.5 19.714zM-25 434.424l35.5 20.286.056 40.6L-25 515.576l-35.5-20.286v-40.58l35.5-20.286zm-34.5 20.866v39.42l34.5 19.714L9.555 494.73 9.5 455.29-25 435.576l-34.5 19.714zM395 74.424l35.5 20.286.056 40.6L395 155.576l-35.5-20.286V94.71L395 74.424zM360.5 95.29v39.42l34.5 19.714 34.555-19.695-.055-39.439L395 75.576 360.5 95.29zM395 314.424l35.5 20.286.056 40.6L395 395.576l-35.5-20.286v-40.58l35.5-20.286zm-34.5 20.866v39.42l34.5 19.714 34.555-19.695-.055-39.439-34.5-19.714-34.5 19.714zM395 194.424l35.5 20.286.056 40.6L395 275.576l-35.5-20.286v-40.58l35.5-20.286zm-34.5 20.866v39.42l34.5 19.714 34.555-19.695-.055-39.439-34.5-19.714-34.5 19.714zM395 434.424l35.5 20.286.056 40.6L395 515.576l-35.5-20.286v-40.58l35.5-20.286zm-34.5 20.866v39.42l34.5 19.714 34.555-19.695-.055-39.439-34.5-19.714-34.5 19.714zM815 74.424l35.5 20.286.056 40.6L815 155.576l-35.5-20.286V94.71L815 74.424zM780.5 95.29v39.42l34.5 19.714 34.555-19.695-.055-39.439L815 75.576 780.5 95.29zM815 314.424l35.5 20.286.056 40.6L815 395.576l-35.5-20.286v-40.58l35.5-20.286zm-34.5 20.866v39.42l34.5 19.714 34.555-19.695-.055-39.439-34.5-19.714-34.5 19.714zM815 194.424l35.5 20.286.056 40.6L815 275.576l-35.5-20.286v-40.58l35.5-20.286zm-34.5 20.866v39.42l34.5 19.714 34.555-19.695-.055-39.439-34.5-19.714-34.5 19.714zM815 434.424l35.5 20.286.056 40.6L815 515.576l-35.5-20.286v-40.58l35.5-20.286zm-34.5 20.866v39.42l34.5 19.714 34.555-19.695-.055-39.439-34.5-19.714-34.5 19.714zM1235 74.424l35.5 20.286.056 40.6L1235 155.576l-35.5-20.286V94.71l35.5-20.286zm-34.5 20.866v39.42l34.5 19.714 34.555-19.695-.055-39.439-34.5-19.714-34.5 19.714zm34.5 219.134l35.5 20.286.056 40.6L1235 395.576l-35.5-20.286v-40.58l35.5-20.286zm-34.5 20.866v39.42l34.5 19.714 34.555-19.695-.055-39.439-34.5-19.714-34.5 19.714zm34.5-140.866l35.5 20.286.056 40.6L1235 275.576l-35.5-20.286v-40.58l35.5-20.286zm-34.5 20.866v39.42l34.5 19.714 34.555-19.695-.055-39.439-34.5-19.714-34.5 19.714zm34.5 219.134l35.5 20.286.056 40.6L1235 515.576l-35.5-20.286v-40.58l35.5-20.286zm-34.5 20.866v39.42l34.5 19.714 34.555-19.695-.055-39.439-34.5-19.714-34.5 19.714zM1305 74.424l35.5 20.286.056 40.6L1305 155.576l-35.5-20.286V94.71l35.5-20.286zm-34.5 20.866v39.42l34.5 19.714 34.555-19.695-.055-39.439-34.5-19.714-34.5 19.714zm34.5 219.134l35.5 20.286.056 40.6L1305 395.576l-35.5-20.286v-40.58l35.5-20.286zm-34.5 20.866v39.42l34.5 19.714 34.555-19.695-.055-39.439-34.5-19.714-34.5 19.714zm34.5-140.866l35.5 20.286.056 40.6L1305 275.576l-35.5-20.286v-40.58l35.5-20.286zm-34.5 20.866v39.42l34.5 19.714 34.555-19.695-.055-39.439-34.5-19.714-34.5 19.714zm34.5 219.134l35.5 20.286.056 40.6L1305 515.576l-35.5-20.286v-40.58l35.5-20.286zm-34.5 20.866v39.42l34.5 19.714 34.555-19.695-.055-39.439-34.5-19.714-34.5 19.714z"/>
        </g>
    </g>
</svg>
