<svg xmlns="http://www.w3.org/2000/svg" width="28" height="32" viewBox="0 0 28 32">
    <defs>
        <linearGradient id="a" x1="61.245%" x2="18.947%" y1="142.487%" y2="19.376%">
            <stop offset="0%" stop-color="#3591C9"/>
            <stop offset="100%" stop-color="#185899"/>
        </linearGradient>
        <linearGradient id="b" x1="50%" x2="50%" y1="-70.177%" y2="100%">
            <stop offset="0%" stop-color="#3591C9"/>
            <stop offset="100%" stop-color="#185899"/>
        </linearGradient>
        <linearGradient id="c" x1="50%" x2="19.141%" y1="0%" y2="82.063%">
            <stop offset="0%" stop-color="#3591C9"/>
            <stop offset="100%" stop-color="#185899"/>
        </linearGradient>
    </defs>
    <g fill="none" fill-rule="evenodd">
        <path d="M-11-9h49v49h-49z"/>
        <path fill="url(#a)" d="M33.18 14.223l13.35 7.708-6.732 3.953-6.675-3.854-6.642 3.795-6.834-3.945z" transform="rotate(60 35.383 6.028)"/>
        <path fill="url(#b)" d="M24.855 28.737l13.397 7.708-6.79 3.854-6.607-3.854L18.25 40.3l-6.79-3.854z" transform="matrix(1 0 0 -1 -11 60.036)"/>
        <path fill="url(#c)" d="M16.663 14.223l13.35 7.708-6.733 3.954-6.675-3.854-6.64 3.794L3.13 21.88z" transform="scale(-1 1) rotate(60 13.294 -3.623)"/>
    </g>
</svg>
