<?xml version="1.0" standalone="no"?>
<!DOCTYPE svg PUBLIC "-//W3C//DTD SVG 20010904//EN"
 "http://www.w3.org/TR/2001/REC-SVG-20010904/DTD/svg10.dtd">
<svg version="1.0" xmlns="http://www.w3.org/2000/svg"
 width="832.000000pt" height="832.000000pt" viewBox="0 0 832.000000 832.000000"
 preserveAspectRatio="xMidYMid meet">
<metadata>
Created by potrace 1.11, written by Peter Selinger 2001-2013
</metadata>
<g transform="translate(0.000000,832.000000) scale(0.100000,-0.100000)"
fill="#000000" stroke="none">
<path d="M4091 8259 c-34 -22 -64 -39 -66 -39 -9 0 -221 -125 -227 -134 -4 -6
-8 -7 -8 -3 0 4 -17 -4 -37 -18 -21 -14 -43 -25 -50 -25 -7 0 -13 -4 -13 -9 0
-5 -8 -11 -17 -14 -10 -3 -40 -19 -68 -35 -102 -59 -572 -329 -586 -336 -7 -4
-23 -12 -34 -19 -11 -7 -51 -30 -90 -52 -38 -22 -79 -45 -90 -52 -11 -7 -27
-15 -35 -19 -8 -4 -31 -17 -50 -29 -19 -12 -60 -35 -90 -52 -30 -16 -100 -56
-155 -88 -55 -32 -107 -62 -115 -66 -8 -4 -49 -28 -90 -52 -41 -24 -82 -47
-90 -50 -8 -4 -28 -16 -45 -26 -32 -21 -134 -77 -172 -95 -13 -6 -23 -14 -23
-18 0 -5 -4 -8 -10 -8 -5 0 -39 -18 -75 -40 -36 -22 -68 -40 -70 -40 -3 0 -40
-21 -83 -46 -83 -49 -94 -55 -162 -93 -25 -14 -47 -27 -50 -30 -3 -3 -21 -14
-40 -24 -19 -9 -60 -32 -91 -50 -31 -17 -111 -63 -178 -102 -110 -64 -156 -90
-238 -136 -64 -36 -78 -44 -84 -52 -3 -5 -8 -7 -10 -5 -2 1 -53 -26 -114 -62
-60 -35 -123 -71 -140 -80 l-30 -15 -3 -2092 -2 -2093 47 -25 c27 -14 55 -30
63 -35 20 -13 391 -225 460 -263 30 -17 57 -33 60 -36 3 -3 21 -14 40 -23 19
-10 62 -34 95 -53 33 -20 75 -43 93 -52 17 -9 32 -20 32 -25 0 -4 9 -8 19 -8
11 0 22 -4 26 -9 3 -6 18 -16 33 -24 15 -7 44 -23 65 -35 20 -12 54 -32 75
-43 20 -12 73 -42 117 -68 44 -26 87 -51 95 -55 8 -4 24 -12 35 -19 11 -7 68
-39 125 -72 58 -32 108 -63 111 -68 3 -5 8 -7 10 -6 2 2 38 -17 79 -41 41 -23
89 -50 105 -59 17 -9 32 -19 33 -23 2 -5 8 -8 12 -8 8 0 100 -51 160 -88 14
-9 27 -15 30 -15 3 0 17 -8 32 -18 14 -10 31 -19 37 -19 6 0 11 -4 11 -10 0
-5 4 -10 8 -10 10 0 155 -82 177 -100 8 -7 15 -9 15 -6 0 4 13 -2 29 -13 16
-12 34 -21 40 -21 6 0 11 -4 11 -9 0 -5 16 -15 35 -22 19 -7 35 -16 35 -20 0
-4 8 -9 18 -12 9 -4 40 -20 67 -36 28 -17 66 -38 85 -48 19 -9 37 -20 40 -23
3 -4 12 -10 20 -13 8 -4 42 -23 75 -42 33 -20 68 -38 78 -42 9 -3 17 -9 17
-14 0 -5 4 -9 10 -9 5 0 39 -18 75 -40 36 -22 72 -40 80 -40 8 0 15 -4 15 -9
0 -5 24 -21 53 -36 28 -14 90 -49 137 -77 47 -28 108 -63 137 -79 82 -44 98
-54 103 -59 3 -3 16 -11 30 -18 14 -7 44 -23 68 -37 l43 -24 37 21 c20 11 57
32 82 46 25 14 57 33 72 43 14 11 28 19 31 19 3 0 41 21 84 47 43 25 94 55
113 65 19 11 44 25 55 31 11 7 63 37 115 67 52 30 104 60 115 67 11 7 27 16
35 20 8 4 64 35 123 70 60 35 111 63 114 63 4 0 14 6 22 14 9 8 41 26 71 42
30 15 57 31 60 34 3 4 30 20 60 37 30 17 95 53 144 82 49 28 90 51 92 51 2 0
27 15 56 33 29 19 60 37 68 40 8 4 33 18 55 32 22 14 55 32 73 41 17 9 32 21
32 27 0 6 3 7 7 4 3 -4 20 2 37 12 61 38 267 156 316 183 40 21 73 41 80 48 3
3 28 17 55 31 28 15 118 66 200 114 83 49 166 96 185 107 19 10 50 27 68 38
78 48 100 60 142 82 25 13 54 31 64 40 11 10 23 18 28 18 11 0 312 173 320
185 4 5 8 7 8 3 0 -4 16 3 35 17 20 13 49 30 65 37 17 7 30 16 30 20 0 5 4 8
10 8 5 0 47 22 94 50 47 27 89 50 95 50 6 0 11 4 11 9 0 5 9 11 20 14 20 5 20
14 20 2089 0 1717 -2 2085 -13 2085 -7 0 -57 25 -110 56 -53 32 -101 57 -106
57 -6 0 -11 5 -11 10 0 6 -5 10 -11 10 -9 0 -121 63 -179 100 -8 6 -31 18 -50
28 -19 9 -37 19 -40 22 -3 3 -63 39 -135 79 -71 41 -138 81 -149 90 -10 9 -19
14 -20 11 -1 -4 -128 68 -249 141 -27 16 -50 29 -52 29 -3 0 -29 16 -59 35
-30 19 -62 35 -71 35 -8 0 -15 4 -15 8 0 5 -18 17 -40 28 -22 10 -40 22 -40
27 0 4 -4 7 -10 7 -5 0 -47 22 -92 49 -46 26 -103 59 -128 73 -130 72 -285
164 -288 171 -2 4 -7 7 -12 7 -4 0 -64 32 -132 71 -67 39 -143 83 -168 97 -25
13 -70 39 -100 57 -30 18 -71 42 -90 53 -19 11 -64 37 -100 57 -36 21 -83 48
-105 60 -22 12 -56 32 -75 44 -19 11 -46 26 -60 33 -14 7 -27 15 -30 18 -3 4
-36 23 -75 45 -68 37 -205 116 -235 135 -8 6 -22 13 -30 17 -8 4 -48 26 -88
50 -40 24 -77 43 -82 43 -6 0 -10 5 -10 10 0 6 -6 10 -14 10 -7 0 -19 7 -26
15 -7 9 -15 13 -18 10 -3 -3 -12 1 -21 8 -24 20 -178 107 -191 107 -5 0 -10 4
-10 8 0 5 -15 15 -32 24 -32 15 -34 14 -97 -23z"/>
</g>
</svg>
