<svg xmlns="http://www.w3.org/2000/svg" width="1280" height="412" viewBox="0 0 1280 412">
    <defs>
        <radialGradient id="a" cy="35.172%" r="38.256%" fx="50%" fy="35.172%" gradientTransform="matrix(0 -1 1.87494 0 -.16 .852)">
            <stop offset="0%" stop-color="#0F4B89"/>
            <stop offset="30.544%" stop-color="#2888E8" stop-opacity=".662"/>
            <stop offset="100%" stop-color="#73A3D4" stop-opacity="0"/>
        </radialGradient>
    </defs>
    <path fill="url(#a)" fill-rule="nonzero" d="M386 60.424l35.5 20.286.056 40.6L386 141.576l-35.5-20.286V80.71L386 60.424zM351.5 81.29v39.42l34.5 19.714 34.555-19.695-.055-39.439L386 61.576 351.5 81.29zM386 300.424l35.5 20.286.056 40.6L386 381.576l-35.5-20.286v-40.58l35.5-20.286zm-34.5 20.866v39.42l34.5 19.714 34.555-19.695-.055-39.439-34.5-19.714-34.5 19.714zM386 180.424l35.5 20.286.056 40.6L386 261.576l-35.5-20.286v-40.58l35.5-20.286zm-34.5 20.866v39.42l34.5 19.714 34.555-19.695-.055-39.439-34.5-19.714-34.5 19.714zM386 420.424l35.5 20.286.056 40.6L386 501.576l-35.5-20.286v-40.58l35.5-20.286zm-34.5 20.866v39.42l34.5 19.714 34.555-19.695-.055-39.439-34.5-19.714-34.5 19.714zM806 60.424l35.5 20.286.056 40.6L806 141.576l-35.5-20.286V80.71L806 60.424zM771.5 81.29v39.42l34.5 19.714 34.555-19.695-.055-39.439L806 61.576 771.5 81.29zM806 300.424l35.5 20.286.056 40.6L806 381.576l-35.5-20.286v-40.58l35.5-20.286zm-34.5 20.866v39.42l34.5 19.714 34.555-19.695-.055-39.439-34.5-19.714-34.5 19.714zM806 180.424l35.5 20.286.056 40.6L806 261.576l-35.5-20.286v-40.58l35.5-20.286zm-34.5 20.866v39.42l34.5 19.714 34.555-19.695-.055-39.439-34.5-19.714-34.5 19.714zM806 420.424l35.5 20.286.056 40.6L806 501.576l-35.5-20.286v-40.58l35.5-20.286zm-34.5 20.866v39.42l34.5 19.714 34.555-19.695-.055-39.439-34.5-19.714-34.5 19.714zM1226 60.424l35.5 20.286.056 40.6L1226 141.576l-35.5-20.286V80.71l35.5-20.286zm-34.5 20.866v39.42l34.5 19.714 34.555-19.695-.055-39.439-34.5-19.714-34.5 19.714zm34.5 219.134l35.5 20.286.056 40.6L1226 381.576l-35.5-20.286v-40.58l35.5-20.286zm-34.5 20.866v39.42l34.5 19.714 34.555-19.695-.055-39.439-34.5-19.714-34.5 19.714zm34.5-140.866l35.5 20.286.056 40.6L1226 261.576l-35.5-20.286v-40.58l35.5-20.286zm-34.5 20.866v39.42l34.5 19.714 34.555-19.695-.055-39.439-34.5-19.714-34.5 19.714zm34.5 219.134l35.5 20.286.056 40.6L1226 501.576l-35.5-20.286v-40.58l35.5-20.286zm-34.5 20.866v39.42l34.5 19.714 34.555-19.695-.055-39.439-34.5-19.714-34.5 19.714zM246 60.424l35.5 20.286.056 40.6L246 141.576l-35.5-20.286V80.71L246 60.424zm0 1.152L211.5 81.29v39.42l34.5 19.714 34.555-19.695-.055-39.439L246 61.576zm0 238.848l35.5 20.286.056 40.6L246 381.576l-35.5-20.286v-40.58l35.5-20.286zm-34.5 20.866v39.42l34.5 19.714 34.555-19.695-.055-39.439-34.5-19.714-34.5 19.714zM246 180.424l35.5 20.286.056 40.6L246 261.576l-35.5-20.286v-40.58l35.5-20.286zm-34.5 20.866v39.42l34.5 19.714 34.555-19.695-.055-39.439-34.5-19.714-34.5 19.714zM246 420.424l35.5 20.286.056 40.6L246 501.576l-35.5-20.286v-40.58l35.5-20.286zm-34.5 20.866v39.42l34.5 19.714 34.555-19.695-.055-39.439-34.5-19.714-34.5 19.714zM666 60.424l35.5 20.286.056 40.6L666 141.576l-35.5-20.286V80.71L666 60.424zM631.5 81.29v39.42l34.5 19.714 34.555-19.695-.055-39.439L666 61.576 631.5 81.29zM666 300.424l35.5 20.286.056 40.6L666 381.576l-35.5-20.286v-40.58l35.5-20.286zm-34.5 20.866v39.42l34.5 19.714 34.555-19.695-.055-39.439-34.5-19.714-34.5 19.714zM666 180.424l35.5 20.286.056 40.6L666 261.576l-35.5-20.286v-40.58l35.5-20.286zm-34.5 20.866v39.42l34.5 19.714 34.555-19.695-.055-39.439-34.5-19.714-34.5 19.714zM666 420.424l35.5 20.286.056 40.6L666 501.576l-35.5-20.286v-40.58l35.5-20.286zm-34.5 20.866v39.42l34.5 19.714 34.555-19.695-.055-39.439-34.5-19.714-34.5 19.714zM1086 60.424l35.5 20.286.056 40.6L1086 141.576l-35.5-20.286V80.71l35.5-20.286zm-34.5 20.866v39.42l34.5 19.714 34.555-19.695-.055-39.439-34.5-19.714-34.5 19.714zm34.5 219.134l35.5 20.286.056 40.6L1086 381.576l-35.5-20.286v-40.58l35.5-20.286zm-34.5 20.866v39.42l34.5 19.714 34.555-19.695-.055-39.439-34.5-19.714-34.5 19.714zm34.5-140.866l35.5 20.286.056 40.6L1086 261.576l-35.5-20.286v-40.58l35.5-20.286zm-34.5 20.866v39.42l34.5 19.714 34.555-19.695-.055-39.439-34.5-19.714-34.5 19.714zm34.5 219.134l35.5 20.286.056 40.6L1086 501.576l-35.5-20.286v-40.58l35.5-20.286zm-34.5 20.866v39.42l34.5 19.714 34.555-19.695-.055-39.439-34.5-19.714-34.5 19.714zM106 60.424l35.5 20.286.056 40.6L106 141.576 70.5 121.29V80.71L106 60.424zM71.5 81.29v39.42l34.5 19.714 34.555-19.695-.055-39.439L106 61.576 71.5 81.29zM106 300.424l35.5 20.286.056 40.6L106 381.576 70.5 361.29v-40.58l35.5-20.286zM71.5 321.29v39.42l34.5 19.714 34.555-19.695-.055-39.439-34.5-19.714-34.5 19.714zM106 180.424l35.5 20.286.056 40.6L106 261.576 70.5 241.29v-40.58l35.5-20.286zM71.5 201.29v39.42l34.5 19.714 34.555-19.695-.055-39.439-34.5-19.714-34.5 19.714zM106 420.424l35.5 20.286.056 40.6L106 501.576 70.5 481.29v-40.58l35.5-20.286zM71.5 441.29v39.42l34.5 19.714 34.555-19.695-.055-39.439-34.5-19.714-34.5 19.714zM526 60.424l35.5 20.286.056 40.6L526 141.576l-35.5-20.286V80.71L526 60.424zM491.5 81.29v39.42l34.5 19.714 34.555-19.695-.055-39.439L526 61.576 491.5 81.29zM526 300.424l35.5 20.286.056 40.6L526 381.576l-35.5-20.286v-40.58l35.5-20.286zm-34.5 20.866v39.42l34.5 19.714 34.555-19.695-.055-39.439-34.5-19.714-34.5 19.714zM526 180.424l35.5 20.286.056 40.6L526 261.576l-35.5-20.286v-40.58l35.5-20.286zm-34.5 20.866v39.42l34.5 19.714 34.555-19.695-.055-39.439-34.5-19.714-34.5 19.714zM526 420.424l35.5 20.286.056 40.6L526 501.576l-35.5-20.286v-40.58l35.5-20.286zm-34.5 20.866v39.42l34.5 19.714 34.555-19.695-.055-39.439-34.5-19.714-34.5 19.714zM946 60.424l35.5 20.286.056 40.6L946 141.576l-35.5-20.286V80.71L946 60.424zM911.5 81.29v39.42l34.5 19.714 34.555-19.695-.055-39.439L946 61.576 911.5 81.29zM946 300.424l35.5 20.286.056 40.6L946 381.576l-35.5-20.286v-40.58l35.5-20.286zm-34.5 20.866v39.42l34.5 19.714 34.555-19.695-.055-39.439-34.5-19.714-34.5 19.714zM946 180.424l35.5 20.286.056 40.6L946 261.576l-35.5-20.286v-40.58l35.5-20.286zm-34.5 20.866v39.42l34.5 19.714 34.555-19.695-.055-39.439-34.5-19.714-34.5 19.714zM946 420.424l35.5 20.286.056 40.6L946 501.576l-35.5-20.286v-40.58l35.5-20.286zm-34.5 20.866v39.42l34.5 19.714 34.555-19.695-.055-39.439-34.5-19.714-34.5 19.714zM351 .424l35.5 20.286.056 40.6L351 81.576 315.5 61.29V20.71L351 .424zM316.5 21.29v39.42L351 80.424l34.555-19.695-.055-39.439L351 1.576 316.5 21.29zM771 .424l35.5 20.286.056 40.6L771 81.576 735.5 61.29V20.71L771 .424zM736.5 21.29v39.42L771 80.424l34.555-19.695-.055-39.439L771 1.576 736.5 21.29zM1191 .424l35.5 20.286.056 40.6L1191 81.576l-35.5-20.286V20.71L1191 .424zm-34.5 20.866v39.42l34.5 19.714 34.555-19.695-.055-39.439L1191 1.576l-34.5 19.714zM211 .424l35.5 20.286.056 40.6L211 81.576 175.5 61.29V20.71L211 .424zM176.5 21.29v39.42L211 80.424l34.555-19.695-.055-39.439L211 1.576 176.5 21.29zM631 .424l35.5 20.286.056 40.6L631 81.576 595.5 61.29V20.71L631 .424zM596.5 21.29v39.42L631 80.424l34.555-19.695-.055-39.439L631 1.576 596.5 21.29zM1051 .424l35.5 20.286.056 40.6L1051 81.576l-35.5-20.286V20.71L1051 .424zm0 1.152l-34.5 19.714v39.42l34.5 19.714 34.555-19.695-.055-39.439L1051 1.576zM71 .424l35.5 20.286.056 40.6L71 81.576 35.5 61.29V20.71L71 .424zm0 1.152L36.5 21.29v39.42L71 80.424l34.555-19.695-.055-39.439L71 1.576zM491 .424l35.5 20.286.056 40.6L491 81.576 455.5 61.29V20.71L491 .424zM456.5 21.29v39.42L491 80.424l34.555-19.695-.055-39.439L491 1.576 456.5 21.29zM911 .424l35.5 20.286.056 40.6L911 81.576 875.5 61.29V20.71L911 .424zM876.5 21.29v39.42L911 80.424l34.555-19.695-.055-39.439L911 1.576 876.5 21.29zM421 .424l35.5 20.286.056 40.6L421 81.576 385.5 61.29V20.71L421 .424zM386.5 21.29v39.42L421 80.424l34.555-19.695-.055-39.439L421 1.576 386.5 21.29zM841 .424l35.5 20.286.056 40.6L841 81.576 805.5 61.29V20.71L841 .424zM806.5 21.29v39.42L841 80.424l34.555-19.695-.055-39.439L841 1.576 806.5 21.29zM1261 .424l35.5 20.286.056 40.6L1261 81.576l-35.5-20.286V20.71L1261 .424zm-34.5 20.866v39.42l34.5 19.714 34.555-19.695-.055-39.439L1261 1.576l-34.5 19.714zM1331 .424l35.5 20.286.056 40.6L1331 81.576l-35.5-20.286V20.71L1331 .424zm-34.5 20.866v39.42l34.5 19.714 34.555-19.695-.055-39.439L1331 1.576l-34.5 19.714zM281 .424l35.5 20.286.056 40.6L281 81.576 245.5 61.29V20.71L281 .424zm0 1.152L246.5 21.29v39.42L281 80.424l34.555-19.695-.055-39.439L281 1.576zM701 .424l35.5 20.286.056 40.6L701 81.576 665.5 61.29V20.71L701 .424zM666.5 21.29v39.42L701 80.424l34.555-19.695-.055-39.439L701 1.576 666.5 21.29zM1121 .424l35.5 20.286.056 40.6L1121 81.576l-35.5-20.286V20.71L1121 .424zm0 1.152l-34.5 19.714v39.42l34.5 19.714 34.555-19.695-.055-39.439L1121 1.576zM141 .424l35.5 20.286.056 40.6L141 81.576 105.5 61.29V20.71L141 .424zM106.5 21.29v39.42L141 80.424l34.555-19.695-.055-39.439L141 1.576 106.5 21.29zM561 .424l35.5 20.286.056 40.6L561 81.576 525.5 61.29V20.71L561 .424zm0 1.152L526.5 21.29v39.42L561 80.424l34.555-19.695-.055-39.439L561 1.576zM981 .424l35.5 20.286.056 40.6L981 81.576 945.5 61.29V20.71L981 .424zM946.5 21.29v39.42L981 80.424l34.555-19.695-.055-39.439L981 1.576 946.5 21.29zM351 120.424l35.5 20.286.056 40.6L351 201.576l-35.5-20.286v-40.58l35.5-20.286zm-34.5 20.866v39.42l34.5 19.714 34.555-19.695-.055-39.439-34.5-19.714-34.5 19.714zM351 360.424l35.5 20.286.056 40.6L351 441.576l-35.5-20.286v-40.58l35.5-20.286zm-34.5 20.866v39.42l34.5 19.714 34.555-19.695-.055-39.439-34.5-19.714-34.5 19.714zM351 240.424l35.5 20.286.056 40.6L351 321.576l-35.5-20.286v-40.58l35.5-20.286zm-34.5 20.866v39.42l34.5 19.714 34.555-19.695-.055-39.439-34.5-19.714-34.5 19.714zM351 480.424l35.5 20.286.056 40.6L351 561.576l-35.5-20.286v-40.58l35.5-20.286zm-34.5 20.866v39.42l34.5 19.714 34.555-19.695-.055-39.439-34.5-19.714-34.5 19.714zM771 120.424l35.5 20.286.056 40.6L771 201.576l-35.5-20.286v-40.58l35.5-20.286zm-34.5 20.866v39.42l34.5 19.714 34.555-19.695-.055-39.439-34.5-19.714-34.5 19.714zM771 360.424l35.5 20.286.056 40.6L771 441.576l-35.5-20.286v-40.58l35.5-20.286zm-34.5 20.866v39.42l34.5 19.714 34.555-19.695-.055-39.439-34.5-19.714-34.5 19.714zM771 240.424l35.5 20.286.056 40.6L771 321.576l-35.5-20.286v-40.58l35.5-20.286zm-34.5 20.866v39.42l34.5 19.714 34.555-19.695-.055-39.439-34.5-19.714-34.5 19.714zM771 480.424l35.5 20.286.056 40.6L771 561.576l-35.5-20.286v-40.58l35.5-20.286zm-34.5 20.866v39.42l34.5 19.714 34.555-19.695-.055-39.439-34.5-19.714-34.5 19.714zM1191 120.424l35.5 20.286.056 40.6L1191 201.576l-35.5-20.286v-40.58l35.5-20.286zm0 1.152l-34.5 19.714v39.42l34.5 19.714 34.555-19.695-.055-39.439-34.5-19.714zm0 238.848l35.5 20.286.056 40.6L1191 441.576l-35.5-20.286v-40.58l35.5-20.286zm-34.5 20.866v39.42l34.5 19.714 34.555-19.695-.055-39.439-34.5-19.714-34.5 19.714zm34.5-140.866l35.5 20.286.056 40.6L1191 321.576l-35.5-20.286v-40.58l35.5-20.286zm-34.5 20.866v39.42l34.5 19.714 34.555-19.695-.055-39.439-34.5-19.714-34.5 19.714zm34.5 219.134l35.5 20.286.056 40.6L1191 561.576l-35.5-20.286v-40.58l35.5-20.286zm-34.5 20.866v39.42l34.5 19.714 34.555-19.695-.055-39.439-34.5-19.714-34.5 19.714zM211 120.424l35.5 20.286.056 40.6L211 201.576l-35.5-20.286v-40.58l35.5-20.286zm-34.5 20.866v39.42l34.5 19.714 34.555-19.695-.055-39.439-34.5-19.714-34.5 19.714zM211 360.424l35.5 20.286.056 40.6L211 441.576l-35.5-20.286v-40.58l35.5-20.286zm-34.5 20.866v39.42l34.5 19.714 34.555-19.695-.055-39.439-34.5-19.714-34.5 19.714zM211 240.424l35.5 20.286.056 40.6L211 321.576l-35.5-20.286v-40.58l35.5-20.286zm-34.5 20.866v39.42l34.5 19.714 34.555-19.695-.055-39.439-34.5-19.714-34.5 19.714zM211 480.424l35.5 20.286.056 40.6L211 561.576l-35.5-20.286v-40.58l35.5-20.286zm-34.5 20.866v39.42l34.5 19.714 34.555-19.695-.055-39.439-34.5-19.714-34.5 19.714zM631 120.424l35.5 20.286.056 40.6L631 201.576l-35.5-20.286v-40.58l35.5-20.286zm-34.5 20.866v39.42l34.5 19.714 34.555-19.695-.055-39.439-34.5-19.714-34.5 19.714zM631 360.424l35.5 20.286.056 40.6L631 441.576l-35.5-20.286v-40.58l35.5-20.286zm-34.5 20.866v39.42l34.5 19.714 34.555-19.695-.055-39.439-34.5-19.714-34.5 19.714zM631 240.424l35.5 20.286.056 40.6L631 321.576l-35.5-20.286v-40.58l35.5-20.286zm-34.5 20.866v39.42l34.5 19.714 34.555-19.695-.055-39.439-34.5-19.714-34.5 19.714zM631 480.424l35.5 20.286.056 40.6L631 561.576l-35.5-20.286v-40.58l35.5-20.286zm-34.5 20.866v39.42l34.5 19.714 34.555-19.695-.055-39.439-34.5-19.714-34.5 19.714zM1051 120.424l35.5 20.286.056 40.6L1051 201.576l-35.5-20.286v-40.58l35.5-20.286zm-34.5 20.866v39.42l34.5 19.714 34.555-19.695-.055-39.439-34.5-19.714-34.5 19.714zm34.5 219.134l35.5 20.286.056 40.6L1051 441.576l-35.5-20.286v-40.58l35.5-20.286zm-34.5 20.866v39.42l34.5 19.714 34.555-19.695-.055-39.439-34.5-19.714-34.5 19.714zm34.5-140.866l35.5 20.286.056 40.6L1051 321.576l-35.5-20.286v-40.58l35.5-20.286zm-34.5 20.866v39.42l34.5 19.714 34.555-19.695-.055-39.439-34.5-19.714-34.5 19.714zm34.5 219.134l35.5 20.286.056 40.6L1051 561.576l-35.5-20.286v-40.58l35.5-20.286zm-34.5 20.866v39.42l34.5 19.714 34.555-19.695-.055-39.439-34.5-19.714-34.5 19.714zM71 120.424l35.5 20.286.056 40.6L71 201.576 35.5 181.29v-40.58L71 120.424zM36.5 141.29v39.42L71 200.424l34.555-19.695-.055-39.439L71 121.576 36.5 141.29zM71 360.424l35.5 20.286.056 40.6L71 441.576 35.5 421.29v-40.58L71 360.424zM36.5 381.29v39.42L71 440.424l34.555-19.695-.055-39.439L71 361.576 36.5 381.29zM71 240.424l35.5 20.286.056 40.6L71 321.576 35.5 301.29v-40.58L71 240.424zM36.5 261.29v39.42L71 320.424l34.555-19.695-.055-39.439L71 241.576 36.5 261.29zM71 480.424l35.5 20.286.056 40.6L71 561.576 35.5 541.29v-40.58L71 480.424zM36.5 501.29v39.42L71 560.424l34.555-19.695-.055-39.439L71 481.576 36.5 501.29zM491 120.424l35.5 20.286.056 40.6L491 201.576l-35.5-20.286v-40.58l35.5-20.286zm0 1.152l-34.5 19.714v39.42l34.5 19.714 34.555-19.695-.055-39.439-34.5-19.714zm0 238.848l35.5 20.286.056 40.6L491 441.576l-35.5-20.286v-40.58l35.5-20.286zm-34.5 20.866v39.42l34.5 19.714 34.555-19.695-.055-39.439-34.5-19.714-34.5 19.714zM491 240.424l35.5 20.286.056 40.6L491 321.576l-35.5-20.286v-40.58l35.5-20.286zm-34.5 20.866v39.42l34.5 19.714 34.555-19.695-.055-39.439-34.5-19.714-34.5 19.714zM491 480.424l35.5 20.286.056 40.6L491 561.576l-35.5-20.286v-40.58l35.5-20.286zm-34.5 20.866v39.42l34.5 19.714 34.555-19.695-.055-39.439-34.5-19.714-34.5 19.714zM911 120.424l35.5 20.286.056 40.6L911 201.576l-35.5-20.286v-40.58l35.5-20.286zm-34.5 20.866v39.42l34.5 19.714 34.555-19.695-.055-39.439-34.5-19.714-34.5 19.714zM911 360.424l35.5 20.286.056 40.6L911 441.576l-35.5-20.286v-40.58l35.5-20.286zm-34.5 20.866v39.42l34.5 19.714 34.555-19.695-.055-39.439-34.5-19.714-34.5 19.714zM911 240.424l35.5 20.286.056 40.6L911 321.576l-35.5-20.286v-40.58l35.5-20.286zm-34.5 20.866v39.42l34.5 19.714 34.555-19.695-.055-39.439-34.5-19.714-34.5 19.714zM911 480.424l35.5 20.286.056 40.6L911 561.576l-35.5-20.286v-40.58l35.5-20.286zm-34.5 20.866v39.42l34.5 19.714 34.555-19.695-.055-39.439-34.5-19.714-34.5 19.714zM421 120.424l35.5 20.286.056 40.6L421 201.576l-35.5-20.286v-40.58l35.5-20.286zm-34.5 20.866v39.42l34.5 19.714 34.555-19.695-.055-39.439-34.5-19.714-34.5 19.714zM421 360.424l35.5 20.286.056 40.6L421 441.576l-35.5-20.286v-40.58l35.5-20.286zm-34.5 20.866v39.42l34.5 19.714 34.555-19.695-.055-39.439-34.5-19.714-34.5 19.714zM421 240.424l35.5 20.286.056 40.6L421 321.576l-35.5-20.286v-40.58l35.5-20.286zm-34.5 20.866v39.42l34.5 19.714 34.555-19.695-.055-39.439-34.5-19.714-34.5 19.714zM421 480.424l35.5 20.286.056 40.6L421 561.576l-35.5-20.286v-40.58l35.5-20.286zm-34.5 20.866v39.42l34.5 19.714 34.555-19.695-.055-39.439-34.5-19.714-34.5 19.714zM841 120.424l35.5 20.286.056 40.6L841 201.576l-35.5-20.286v-40.58l35.5-20.286zm-34.5 20.866v39.42l34.5 19.714 34.555-19.695-.055-39.439-34.5-19.714-34.5 19.714zM841 360.424l35.5 20.286.056 40.6L841 441.576l-35.5-20.286v-40.58l35.5-20.286zm-34.5 20.866v39.42l34.5 19.714 34.555-19.695-.055-39.439-34.5-19.714-34.5 19.714zM841 240.424l35.5 20.286.056 40.6L841 321.576l-35.5-20.286v-40.58l35.5-20.286zm-34.5 20.866v39.42l34.5 19.714 34.555-19.695-.055-39.439-34.5-19.714-34.5 19.714zM841 480.424l35.5 20.286.056 40.6L841 561.576l-35.5-20.286v-40.58l35.5-20.286zm-34.5 20.866v39.42l34.5 19.714 34.555-19.695-.055-39.439-34.5-19.714-34.5 19.714zM1261 120.424l35.5 20.286.056 40.6L1261 201.576l-35.5-20.286v-40.58l35.5-20.286zm-34.5 20.866v39.42l34.5 19.714 34.555-19.695-.055-39.439-34.5-19.714-34.5 19.714zm34.5 219.134l35.5 20.286.056 40.6L1261 441.576l-35.5-20.286v-40.58l35.5-20.286zm-34.5 20.866v39.42l34.5 19.714 34.555-19.695-.055-39.439-34.5-19.714-34.5 19.714zm34.5-140.866l35.5 20.286.056 40.6L1261 321.576l-35.5-20.286v-40.58l35.5-20.286zm-34.5 20.866v39.42l34.5 19.714 34.555-19.695-.055-39.439-34.5-19.714-34.5 19.714zm34.5 219.134l35.5 20.286.056 40.6L1261 561.576l-35.5-20.286v-40.58l35.5-20.286zm-34.5 20.866v39.42l34.5 19.714 34.555-19.695-.055-39.439-34.5-19.714-34.5 19.714zM1331 120.424l35.5 20.286.056 40.6L1331 201.576l-35.5-20.286v-40.58l35.5-20.286zm-34.5 20.866v39.42l34.5 19.714 34.555-19.695-.055-39.439-34.5-19.714-34.5 19.714zm34.5 219.134l35.5 20.286.056 40.6L1331 441.576l-35.5-20.286v-40.58l35.5-20.286zm-34.5 20.866v39.42l34.5 19.714 34.555-19.695-.055-39.439-34.5-19.714-34.5 19.714zm34.5-140.866l35.5 20.286.056 40.6L1331 321.576l-35.5-20.286v-40.58l35.5-20.286zm-34.5 20.866v39.42l34.5 19.714 34.555-19.695-.055-39.439-34.5-19.714-34.5 19.714zm34.5 219.134l35.5 20.286.056 40.6L1331 561.576l-35.5-20.286v-40.58l35.5-20.286zm-34.5 20.866v39.42l34.5 19.714 34.555-19.695-.055-39.439-34.5-19.714-34.5 19.714zM281 120.424l35.5 20.286.056 40.6L281 201.576l-35.5-20.286v-40.58l35.5-20.286zm0 1.152l-34.5 19.714v39.42l34.5 19.714 34.555-19.695-.055-39.439-34.5-19.714zm0 238.848l35.5 20.286.056 40.6L281 441.576l-35.5-20.286v-40.58l35.5-20.286zm-34.5 20.866v39.42l34.5 19.714 34.555-19.695-.055-39.439-34.5-19.714-34.5 19.714zM281 240.424l35.5 20.286.056 40.6L281 321.576l-35.5-20.286v-40.58l35.5-20.286zm-34.5 20.866v39.42l34.5 19.714 34.555-19.695-.055-39.439-34.5-19.714-34.5 19.714zM281 480.424l35.5 20.286.056 40.6L281 561.576l-35.5-20.286v-40.58l35.5-20.286zm-34.5 20.866v39.42l34.5 19.714 34.555-19.695-.055-39.439-34.5-19.714-34.5 19.714zM701 120.424l35.5 20.286.056 40.6L701 201.576l-35.5-20.286v-40.58l35.5-20.286zm-34.5 20.866v39.42l34.5 19.714 34.555-19.695-.055-39.439-34.5-19.714-34.5 19.714zM701 360.424l35.5 20.286.056 40.6L701 441.576l-35.5-20.286v-40.58l35.5-20.286zm-34.5 20.866v39.42l34.5 19.714 34.555-19.695-.055-39.439-34.5-19.714-34.5 19.714zM701 240.424l35.5 20.286.056 40.6L701 321.576l-35.5-20.286v-40.58l35.5-20.286zm-34.5 20.866v39.42l34.5 19.714 34.555-19.695-.055-39.439-34.5-19.714-34.5 19.714zM701 480.424l35.5 20.286.056 40.6L701 561.576l-35.5-20.286v-40.58l35.5-20.286zm-34.5 20.866v39.42l34.5 19.714 34.555-19.695-.055-39.439-34.5-19.714-34.5 19.714zM1121 120.424l35.5 20.286.056 40.6L1121 201.576l-35.5-20.286v-40.58l35.5-20.286zm0 1.152l-34.5 19.714v39.42l34.5 19.714 34.555-19.695-.055-39.439-34.5-19.714zm0 238.848l35.5 20.286.056 40.6L1121 441.576l-35.5-20.286v-40.58l35.5-20.286zm-34.5 20.866v39.42l34.5 19.714 34.555-19.695-.055-39.439-34.5-19.714-34.5 19.714zm34.5-140.866l35.5 20.286.056 40.6L1121 321.576l-35.5-20.286v-40.58l35.5-20.286zm-34.5 20.866v39.42l34.5 19.714 34.555-19.695-.055-39.439-34.5-19.714-34.5 19.714zm34.5 219.134l35.5 20.286.056 40.6L1121 561.576l-35.5-20.286v-40.58l35.5-20.286zm-34.5 20.866v39.42l34.5 19.714 34.555-19.695-.055-39.439-34.5-19.714-34.5 19.714zM141 120.424l35.5 20.286.056 40.6L141 201.576l-35.5-20.286v-40.58l35.5-20.286zm-34.5 20.866v39.42l34.5 19.714 34.555-19.695-.055-39.439-34.5-19.714-34.5 19.714zM141 360.424l35.5 20.286.056 40.6L141 441.576l-35.5-20.286v-40.58l35.5-20.286zm-34.5 20.866v39.42l34.5 19.714 34.555-19.695-.055-39.439-34.5-19.714-34.5 19.714zM141 240.424l35.5 20.286.056 40.6L141 321.576l-35.5-20.286v-40.58l35.5-20.286zm-34.5 20.866v39.42l34.5 19.714 34.555-19.695-.055-39.439-34.5-19.714-34.5 19.714zM141 480.424l35.5 20.286.056 40.6L141 561.576l-35.5-20.286v-40.58l35.5-20.286zm-34.5 20.866v39.42l34.5 19.714 34.555-19.695-.055-39.439-34.5-19.714-34.5 19.714zM561 120.424l35.5 20.286.056 40.6L561 201.576l-35.5-20.286v-40.58l35.5-20.286zm-34.5 20.866v39.42l34.5 19.714 34.555-19.695-.055-39.439-34.5-19.714-34.5 19.714zM561 360.424l35.5 20.286.056 40.6L561 441.576l-35.5-20.286v-40.58l35.5-20.286zm-34.5 20.866v39.42l34.5 19.714 34.555-19.695-.055-39.439-34.5-19.714-34.5 19.714zM561 240.424l35.5 20.286.056 40.6L561 321.576l-35.5-20.286v-40.58l35.5-20.286zm-34.5 20.866v39.42l34.5 19.714 34.555-19.695-.055-39.439-34.5-19.714-34.5 19.714zM561 480.424l35.5 20.286.056 40.6L561 561.576l-35.5-20.286v-40.58l35.5-20.286zm-34.5 20.866v39.42l34.5 19.714 34.555-19.695-.055-39.439-34.5-19.714-34.5 19.714zM981 120.424l35.5 20.286.056 40.6L981 201.576l-35.5-20.286v-40.58l35.5-20.286zm-34.5 20.866v39.42l34.5 19.714 34.555-19.695-.055-39.439-34.5-19.714-34.5 19.714zM981 360.424l35.5 20.286.056 40.6L981 441.576l-35.5-20.286v-40.58l35.5-20.286zm-34.5 20.866v39.42l34.5 19.714 34.555-19.695-.055-39.439-34.5-19.714-34.5 19.714zM981 240.424l35.5 20.286.056 40.6L981 321.576l-35.5-20.286v-40.58l35.5-20.286zm-34.5 20.866v39.42l34.5 19.714 34.555-19.695-.055-39.439-34.5-19.714-34.5 19.714zM981 480.424l35.5 20.286.056 40.6L981 561.576l-35.5-20.286v-40.58l35.5-20.286zm-34.5 20.866v39.42l34.5 19.714 34.555-19.695-.055-39.439-34.5-19.714-34.5 19.714zM316 60.424l35.5 20.286.056 40.6L316 141.576l-35.5-20.286V80.71L316 60.424zM281.5 81.29v39.42l34.5 19.714 34.555-19.695-.055-39.439L316 61.576 281.5 81.29zM316 300.424l35.5 20.286.056 40.6L316 381.576l-35.5-20.286v-40.58l35.5-20.286zm-34.5 20.866v39.42l34.5 19.714 34.555-19.695-.055-39.439-34.5-19.714-34.5 19.714zM316 180.424l35.5 20.286.056 40.6L316 261.576l-35.5-20.286v-40.58l35.5-20.286zm-34.5 20.866v39.42l34.5 19.714 34.555-19.695-.055-39.439-34.5-19.714-34.5 19.714zM316 420.424l35.5 20.286.056 40.6L316 501.576l-35.5-20.286v-40.58l35.5-20.286zm-34.5 20.866v39.42l34.5 19.714 34.555-19.695-.055-39.439-34.5-19.714-34.5 19.714zM736 60.424l35.5 20.286.056 40.6L736 141.576l-35.5-20.286V80.71L736 60.424zM701.5 81.29v39.42l34.5 19.714 34.555-19.695-.055-39.439L736 61.576 701.5 81.29zM736 300.424l35.5 20.286.056 40.6L736 381.576l-35.5-20.286v-40.58l35.5-20.286zm-34.5 20.866v39.42l34.5 19.714 34.555-19.695-.055-39.439-34.5-19.714-34.5 19.714zM736 180.424l35.5 20.286.056 40.6L736 261.576l-35.5-20.286v-40.58l35.5-20.286zm-34.5 20.866v39.42l34.5 19.714 34.555-19.695-.055-39.439-34.5-19.714-34.5 19.714zM736 420.424l35.5 20.286.056 40.6L736 501.576l-35.5-20.286v-40.58l35.5-20.286zm-34.5 20.866v39.42l34.5 19.714 34.555-19.695-.055-39.439-34.5-19.714-34.5 19.714zM1156 60.424l35.5 20.286.056 40.6L1156 141.576l-35.5-20.286V80.71l35.5-20.286zm0 1.152l-34.5 19.714v39.42l34.5 19.714 34.555-19.695-.055-39.439-34.5-19.714zm0 238.848l35.5 20.286.056 40.6L1156 381.576l-35.5-20.286v-40.58l35.5-20.286zm-34.5 20.866v39.42l34.5 19.714 34.555-19.695-.055-39.439-34.5-19.714-34.5 19.714zm34.5-140.866l35.5 20.286.056 40.6L1156 261.576l-35.5-20.286v-40.58l35.5-20.286zm-34.5 20.866v39.42l34.5 19.714 34.555-19.695-.055-39.439-34.5-19.714-34.5 19.714zm34.5 219.134l35.5 20.286.056 40.6L1156 501.576l-35.5-20.286v-40.58l35.5-20.286zm-34.5 20.866v39.42l34.5 19.714 34.555-19.695-.055-39.439-34.5-19.714-34.5 19.714zM176 60.424l35.5 20.286.056 40.6L176 141.576l-35.5-20.286V80.71L176 60.424zM141.5 81.29v39.42l34.5 19.714 34.555-19.695-.055-39.439L176 61.576 141.5 81.29zM176 300.424l35.5 20.286.056 40.6L176 381.576l-35.5-20.286v-40.58l35.5-20.286zm-34.5 20.866v39.42l34.5 19.714 34.555-19.695-.055-39.439-34.5-19.714-34.5 19.714zM176 180.424l35.5 20.286.056 40.6L176 261.576l-35.5-20.286v-40.58l35.5-20.286zm-34.5 20.866v39.42l34.5 19.714 34.555-19.695-.055-39.439-34.5-19.714-34.5 19.714zM176 420.424l35.5 20.286.056 40.6L176 501.576l-35.5-20.286v-40.58l35.5-20.286zm-34.5 20.866v39.42l34.5 19.714 34.555-19.695-.055-39.439-34.5-19.714-34.5 19.714zM596 60.424l35.5 20.286.056 40.6L596 141.576l-35.5-20.286V80.71L596 60.424zM561.5 81.29v39.42l34.5 19.714 34.555-19.695-.055-39.439L596 61.576 561.5 81.29zM596 300.424l35.5 20.286.056 40.6L596 381.576l-35.5-20.286v-40.58l35.5-20.286zm-34.5 20.866v39.42l34.5 19.714 34.555-19.695-.055-39.439-34.5-19.714-34.5 19.714zM596 180.424l35.5 20.286.056 40.6L596 261.576l-35.5-20.286v-40.58l35.5-20.286zm-34.5 20.866v39.42l34.5 19.714 34.555-19.695-.055-39.439-34.5-19.714-34.5 19.714zM596 420.424l35.5 20.286.056 40.6L596 501.576l-35.5-20.286v-40.58l35.5-20.286zm-34.5 20.866v39.42l34.5 19.714 34.555-19.695-.055-39.439-34.5-19.714-34.5 19.714zM1016 60.424l35.5 20.286.056 40.6L1016 141.576l-35.5-20.286V80.71l35.5-20.286zM981.5 81.29v39.42l34.5 19.714 34.555-19.695-.055-39.439-34.5-19.714-34.5 19.714zm34.5 219.134l35.5 20.286.056 40.6L1016 381.576l-35.5-20.286v-40.58l35.5-20.286zm-34.5 20.866v39.42l34.5 19.714 34.555-19.695-.055-39.439-34.5-19.714-34.5 19.714zm34.5-140.866l35.5 20.286.056 40.6L1016 261.576l-35.5-20.286v-40.58l35.5-20.286zm-34.5 20.866v39.42l34.5 19.714 34.555-19.695-.055-39.439-34.5-19.714-34.5 19.714zm34.5 219.134l35.5 20.286.056 40.6L1016 501.576l-35.5-20.286v-40.58l35.5-20.286zm-34.5 20.866v39.42l34.5 19.714 34.555-19.695-.055-39.439-34.5-19.714-34.5 19.714zM36 60.424L71.5 80.71l.056 40.6L36 141.576.5 121.29V80.71L36 60.424zM1.5 81.29v39.42L36 140.424l34.555-19.695L70.5 81.29 36 61.576 1.5 81.29zM36 300.424l35.5 20.286.056 40.6L36 381.576.5 361.29v-40.58L36 300.424zM1.5 321.29v39.42L36 380.424l34.555-19.695-.055-39.439L36 301.576 1.5 321.29zM36 180.424l35.5 20.286.056 40.6L36 261.576.5 241.29v-40.58L36 180.424zM1.5 201.29v39.42L36 260.424l34.555-19.695-.055-39.439L36 181.576 1.5 201.29zM36 420.424l35.5 20.286.056 40.6L36 501.576.5 481.29v-40.58L36 420.424zM1.5 441.29v39.42L36 500.424l34.555-19.695-.055-39.439L36 421.576 1.5 441.29zM456 60.424l35.5 20.286.056 40.6L456 141.576l-35.5-20.286V80.71L456 60.424zM421.5 81.29v39.42l34.5 19.714 34.555-19.695-.055-39.439L456 61.576 421.5 81.29zM456 300.424l35.5 20.286.056 40.6L456 381.576l-35.5-20.286v-40.58l35.5-20.286zm-34.5 20.866v39.42l34.5 19.714 34.555-19.695-.055-39.439-34.5-19.714-34.5 19.714zM456 180.424l35.5 20.286.056 40.6L456 261.576l-35.5-20.286v-40.58l35.5-20.286zm-34.5 20.866v39.42l34.5 19.714 34.555-19.695-.055-39.439-34.5-19.714-34.5 19.714zM456 420.424l35.5 20.286.056 40.6L456 501.576l-35.5-20.286v-40.58l35.5-20.286zm-34.5 20.866v39.42l34.5 19.714 34.555-19.695-.055-39.439-34.5-19.714-34.5 19.714zM876 60.424l35.5 20.286.056 40.6L876 141.576l-35.5-20.286V80.71L876 60.424zM841.5 81.29v39.42l34.5 19.714 34.555-19.695-.055-39.439L876 61.576 841.5 81.29zM876 300.424l35.5 20.286.056 40.6L876 381.576l-35.5-20.286v-40.58l35.5-20.286zm-34.5 20.866v39.42l34.5 19.714 34.555-19.695-.055-39.439-34.5-19.714-34.5 19.714zM876 180.424l35.5 20.286.056 40.6L876 261.576l-35.5-20.286v-40.58l35.5-20.286zm-34.5 20.866v39.42l34.5 19.714 34.555-19.695-.055-39.439-34.5-19.714-34.5 19.714zM876 420.424l35.5 20.286.056 40.6L876 501.576l-35.5-20.286v-40.58l35.5-20.286zm-34.5 20.866v39.42l34.5 19.714 34.555-19.695-.055-39.439-34.5-19.714-34.5 19.714zM1296 60.424l35.5 20.286.056 40.6L1296 141.576l-35.5-20.286V80.71l35.5-20.286zm-34.5 20.866v39.42l34.5 19.714 34.555-19.695-.055-39.439-34.5-19.714-34.5 19.714zm34.5 219.134l35.5 20.286.056 40.6L1296 381.576l-35.5-20.286v-40.58l35.5-20.286zm-34.5 20.866v39.42l34.5 19.714 34.555-19.695-.055-39.439-34.5-19.714-34.5 19.714zm34.5-140.866l35.5 20.286.056 40.6L1296 261.576l-35.5-20.286v-40.58l35.5-20.286zm-34.5 20.866v39.42l34.5 19.714 34.555-19.695-.055-39.439-34.5-19.714-34.5 19.714zm34.5 219.134l35.5 20.286.056 40.6L1296 501.576l-35.5-20.286v-40.58l35.5-20.286zm-34.5 20.866v39.42l34.5 19.714 34.555-19.695-.055-39.439-34.5-19.714-34.5 19.714zM1366 60.424l35.5 20.286.056 40.6L1366 141.576l-35.5-20.286V80.71l35.5-20.286zm-34.5 20.866v39.42l34.5 19.714 34.555-19.695-.055-39.439-34.5-19.714-34.5 19.714zm34.5 219.134l35.5 20.286.056 40.6L1366 381.576l-35.5-20.286v-40.58l35.5-20.286zm-34.5 20.866v39.42l34.5 19.714 34.555-19.695-.055-39.439-34.5-19.714-34.5 19.714zm34.5-140.866l35.5 20.286.056 40.6L1366 261.576l-35.5-20.286v-40.58l35.5-20.286zm-34.5 20.866v39.42l34.5 19.714 34.555-19.695-.055-39.439-34.5-19.714-34.5 19.714zm34.5 219.134l35.5 20.286.056 40.6L1366 501.576l-35.5-20.286v-40.58l35.5-20.286zm-34.5 20.866v39.42l34.5 19.714 34.555-19.695-.055-39.439-34.5-19.714-34.5 19.714z" opacity=".475" transform="translate(-61)"/>
</svg>
